<svg width="101" height="43" viewBox="0 0 101 43" fill="none" xmlns="http://www.w3.org/2000/svg">
<path d="M6.86993 4.93259C8.07519 4.93259 9.11571 5.20259 9.99153 5.7426C10.8673 6.28261 11.5302 7.0241 11.9802 7.9671C12.4302 8.9101 12.6551 9.99414 12.6551 11.2192C12.6551 12.4282 12.4261 13.5082 11.9681 14.4593C11.5101 15.4103 10.8473 16.1518 9.97948 16.6838C9.11169 17.2157 8.06715 17.4817 6.84582 17.4817C6.04232 17.4817 5.29507 17.3003 4.60406 16.9377C3.91304 16.575 3.38274 16.0873 3.01313 15.4748V17.2883H0.67494V0.0241805H3.01313V6.9153C3.38274 6.31888 3.91304 5.83932 4.60406 5.47663C5.29507 5.11393 6.05035 4.93259 6.86993 4.93259ZM10.2928 7.56814H3.01313V14.8945H10.2928V7.56814ZM14.9692 0H17.3074V2.3454H14.9692V0ZM14.9692 17.2883V5.12603H17.3074V17.2883H14.9692ZM27.5761 15.1605V17.2883H25.6718C24.4505 17.2883 23.4783 16.9336 22.7551 16.2244C22.032 15.5151 21.6704 14.5399 21.6704 13.2987V7.15709H19.1876V5.12603H21.6704V1.30569H24.0086V5.12603H27.5761V7.15709H24.0086V15.1605H27.5761ZM12.0043 25.9052V38.0674H9.66611V36.4232C9.37685 36.9552 8.87467 37.3944 8.15955 37.741C7.44443 38.0876 6.66906 38.2608 5.83341 38.2608C4.61208 38.2608 3.56353 37.9908 2.68771 37.4508C1.81189 36.9108 1.14499 36.1693 0.686991 35.2263C0.228994 34.2833 0 33.2074 0 31.9984C0 30.7733 0.228994 29.6893 0.686991 28.7463C1.14499 27.8033 1.81189 27.0618 2.68771 26.5218C3.56353 25.9817 4.60405 25.7117 5.80931 25.7117C6.59674 25.7117 7.33997 25.881 8.03902 26.2195C8.73807 26.558 9.28043 26.9932 9.66611 27.5252V25.9052H12.0043ZM9.69022 28.3473H2.36229V35.6736H9.69022V28.3473ZM20.4169 38.2608C19.1795 38.2608 18.1069 37.9747 17.1989 37.4025C16.291 36.8302 15.5959 36.0686 15.1138 35.1175C14.6317 34.1665 14.3907 33.1187 14.3907 31.9742C14.3907 30.8297 14.6317 29.7819 15.1138 28.8309C15.5959 27.8798 16.291 27.1182 17.1989 26.5459C18.1069 25.9737 19.1795 25.6876 20.4169 25.6876C21.3651 25.6876 22.2489 25.8689 23.0685 26.2316C23.8881 26.5943 24.563 27.1101 25.0933 27.7791C25.6236 28.448 25.945 29.2339 26.0575 30.1366H23.7193C23.6068 29.4434 23.2413 28.8712 22.6226 28.4198C22.0039 27.9685 21.2847 27.7428 20.4652 27.7428C19.292 27.7428 18.3921 28.1377 17.7654 28.9276C17.1387 29.7175 16.8253 30.733 16.8253 31.9742C16.8253 33.1993 17.1427 34.2108 17.7774 35.0087C18.4122 35.8066 19.3081 36.2056 20.4652 36.2056C21.2847 36.2056 21.9878 36.0041 22.5743 35.6011C23.1609 35.1981 23.5506 34.6501 23.7434 33.9569H26.0575C25.8647 35.2465 25.258 36.2862 24.2376 37.076C23.2171 37.8659 21.9436 38.2608 20.4169 38.2608ZM39.6045 25.9052V38.0674H37.2663V36.4232C36.9771 36.9552 36.4749 37.3944 35.7598 37.741C35.0447 38.0876 34.2693 38.2608 33.4337 38.2608C32.2123 38.2608 31.1638 37.9908 30.2879 37.4508C29.4121 36.9108 28.7452 36.1693 28.2872 35.2263C27.8292 34.2833 27.6002 33.2074 27.6002 31.9984C27.6002 30.7733 27.8292 29.6893 28.2872 28.7463C28.7452 27.8033 29.4121 27.0618 30.2879 26.5218C31.1638 25.9817 32.2043 25.7117 33.4095 25.7117C34.197 25.7117 34.9402 25.881 35.6393 26.2195C36.3383 26.558 36.8807 26.9932 37.2663 27.5252V25.9052H39.6045ZM37.2905 28.3473H29.9625V35.6736H37.2905V28.3473ZM53.9952 20.8033V38.0674H51.657V36.254C51.2874 36.8665 50.7571 37.3541 50.0661 37.7168C49.3751 38.0795 48.6278 38.2608 47.8243 38.2608C46.6191 38.2608 45.5786 37.9908 44.7027 37.4508C43.8269 36.9108 43.16 36.1693 42.702 35.2263C42.244 34.2833 42.015 33.2074 42.015 31.9984C42.015 30.7894 42.244 29.7094 42.702 28.7583C43.16 27.8073 43.8229 27.0618 44.6907 26.5218C45.5585 25.9817 46.595 25.7117 47.8002 25.7117C48.6198 25.7117 49.3751 25.8931 50.0661 26.2558C50.7571 26.6185 51.2874 27.098 51.657 27.6945V20.8033H53.9952ZM51.657 28.3473H44.3773V35.6736H51.657V28.3473ZM68.0967 34.102C67.8717 35.3593 67.253 36.3668 66.2406 37.1244C65.2282 37.882 63.9747 38.2608 62.4802 38.2608C61.2589 38.2608 60.1862 37.9707 59.2622 37.3904C58.3381 36.8101 57.6271 36.0363 57.1289 35.0692C56.6307 34.102 56.3816 33.0462 56.3816 31.9017C56.3816 30.7572 56.6146 29.7134 57.0807 28.7704C57.5467 27.8274 58.2216 27.0779 59.1055 26.5218C59.9893 25.9656 61.0339 25.6876 62.2391 25.6876C63.4444 25.6876 64.4809 25.9495 65.3487 26.4734C66.2165 26.9973 66.8753 27.6985 67.3253 28.577C67.7753 29.4555 68.0002 30.4187 68.0002 31.4664C68.0002 31.7888 67.9842 32.0951 67.952 32.3853H58.6716C58.768 33.5459 59.1617 34.4808 59.8527 35.1901C60.5438 35.8993 61.4196 36.254 62.4802 36.254C63.364 36.254 64.0872 36.0686 64.6496 35.6978C65.2121 35.3271 65.5817 34.7951 65.7585 34.102H68.0967ZM62.2391 27.5736C61.291 27.5736 60.5156 27.8355 59.913 28.3594C59.3104 28.8833 58.9207 29.653 58.7439 30.6685H65.6379C65.5576 29.7336 65.2201 28.984 64.6255 28.4198C64.0309 27.8556 63.2355 27.5736 62.2391 27.5736ZM84.1988 25.7117C85.5005 25.7117 86.537 26.1308 87.3084 26.9691C88.0797 27.8073 88.4654 28.9276 88.4654 30.33V38.0674H86.1272V28.3231H80.5831V38.0674H78.269V28.3231H72.7489V38.0674H70.4107V25.9052H72.7489V27.501C73.1185 26.9691 73.6006 26.5419 74.1952 26.2195C74.7898 25.8971 75.4407 25.7279 76.1477 25.7117H76.4611C77.2485 25.7279 77.9717 25.8971 78.6306 26.2195C79.2894 26.5419 79.8278 26.9691 80.2456 27.501C80.6634 26.9691 81.1977 26.5419 81.8486 26.2195C82.4994 25.8971 83.2185 25.7279 84.006 25.7117H84.1988ZM94.9014 43H92.6597L94.2988 38.1883L89.7912 25.881H92.2017L95.3835 35.0208L98.5895 25.881H101L96.7334 37.6322L94.9014 43Z" fill="white"/>
</svg>