<svg xmlns="http://www.w3.org/2000/svg" viewBox="0 0 936.83 337.41"><defs><style>.cls-1{fill:#ffeed6;}.cls-2{fill:#6d4aff;}.cls-3{fill:#15aa90;}</style></defs><g id="Layer_2" data-name="Layer 2"><g id="Layer_1-2" data-name="Layer 1"><path class="cls-1" d="M374.68,104.71c0,26.84-20.53,41.68-51.23,41.68h-48V2H320c30.09,0,46.56,16.07,46.56,38.84,0,11.79-5.69,21.75-14.44,28.46C364.92,76.65,374.68,88.85,374.68,104.71ZM300.47,59H320c13.42,0,21.55-5.08,21.55-16.67,0-11-8.13-16.67-21.55-16.67H300.47Zm49.21,44.33c0-12.2-9.15-20.74-25.62-20.74H300.47v40.26h23C340.53,122.81,349.68,115.49,349.68,103.29Z"/><path class="cls-1" d="M442.51,101.05H417.1v45.34h-25V2h54.29C472.61,2,497,20.74,497,51.64c0,22-12.4,37.82-29.07,44.94l30.5,49.81H470.17ZM417.1,77.47h29.28c14,0,25.62-9.76,25.62-25.83,0-16.26-11.59-26-25.62-26H417.1Z"/><path class="cls-1" d="M517.82,2h25V146.39h-25Z"/><path class="cls-1" d="M685.08,74.21c0,40.46-28.47,72.18-69.54,72.18H565.93V2h49.61C656.61,2,685.08,33.75,685.08,74.21Zm-25,0c0-31.31-19.52-48.59-44.53-48.59h-24.6v97.19h24.6C640.55,122.81,660.07,105.52,660.07,74.21Z"/><path class="cls-1" d="M841.28,66.28c0,51.65-29.89,82.15-73,82.15-41.07,0-71.36-33.76-71.36-74.22S727.21,0,771.13,0c24.8,0,43.71,11.79,56.73,29.48L809,44.12c-7.73-11-19.93-20.53-37.82-20.53-28.87,0-49.21,22.36-49.21,50.62s18.91,50.63,46.36,50.63c24,0,40.67-13.83,46-35H762.18V66.28Z"/><path class="cls-1" d="M880.92,25.62V61h43.92V84.58H880.92v38.23h55.91v23.58H855.91V2h80.92V25.62Z"/><path class="cls-1" d="M300.69,214.61V251h48v23.59h-48v60.79h-25V191h80.93v23.59Z"/><path class="cls-1" d="M434,337.41c-36.19,0-58.15-19.72-58.15-63.84V191h25v82.55c0,29.69,12.2,40.26,33.14,40.26s32.94-10.57,32.94-40.26V191h25v82.55C491.9,317.69,469.94,337.41,434,337.41Z"/><path class="cls-1" d="M637.44,191V335.38h-25l-73.2-102.27V335.38h-25V191h25l73.2,102.27V191Z"/><path class="cls-1" d="M778.22,263.2c0,40.46-28.46,72.18-69.53,72.18H659.08V191h49.61C749.76,191,778.22,222.74,778.22,263.2Zm-25,0c0-31.31-19.52-48.59-44.53-48.59h-24.6V311.8h24.6C733.7,311.8,753.22,294.51,753.22,263.2Z"/><path class="cls-2" d="M110,.09H0v110a109.95,109.95,0,0,0,202.94,58.69A109.92,109.92,0,0,0,110,.09Z"/><path class="cls-3" d="M202.94,168.75A110,110,0,0,0,0,227.43v110H110a109.91,109.91,0,0,0,93-168.65Z"/><path class="cls-1" d="M202.94,168.75a109.9,109.9,0,0,1-185.93,0,109.9,109.9,0,0,1,185.93,0Z"/></g></g></svg>