<svg xmlns="http://www.w3.org/2000/svg" viewBox="0 0 382.98 100"><defs><style>.cls-1{fill:#3779ed;}</style></defs><title>logo-blue</title><g id="Layer_2" data-name="Layer 2"><g id="Layer_1-2" data-name="Layer 1"><path class="cls-1" d="M142.46,74.94a23.91,23.91,0,0,1-8,3.71,36.92,36.92,0,0,1-9.69,1.28,27,27,0,0,1-11.25-2.11A19.14,19.14,0,0,1,106,71.89a24.24,24.24,0,0,1-4.16-9.25,52.25,52.25,0,0,1-1.27-12q0-14.07,6.31-21.66t18.39-7.59a38.85,38.85,0,0,1,9.81,1A32.64,32.64,0,0,1,141.8,25l-3.43,11.74a29,29,0,0,0-5-1.88,22,22,0,0,0-5.71-.67q-6,0-9.08,3.94t-3.11,12.57a25.94,25.94,0,0,0,.78,6.54,15.66,15.66,0,0,0,2.33,5.2,10.86,10.86,0,0,0,4,3.49,12.61,12.61,0,0,0,5.82,1.28,17.92,17.92,0,0,0,6.2-1A21.16,21.16,0,0,0,139.14,64Z"/><path class="cls-1" d="M150.88,26.2A47.24,47.24,0,0,1,161.41,23a67.44,67.44,0,0,1,12.74-1.17,29,29,0,0,1,9.64,1.39,13.86,13.86,0,0,1,9.36,10,31,31,0,0,1,.94,8q0,4.88-.33,9.81c-.22,3.28-.35,6.52-.39,9.69s.06,6.26.28,9.25a34.65,34.65,0,0,0,1.66,8.48H183.57l-2.33-7.65h-.55a19.76,19.76,0,0,1-6.15,5.93,18.69,18.69,0,0,1-10.14,2.49,19.88,19.88,0,0,1-7-1.16,14.86,14.86,0,0,1-8.75-8.42,17.12,17.12,0,0,1-1.22-6.59,15.46,15.46,0,0,1,2.27-8.59,16.34,16.34,0,0,1,6.54-5.65,32.34,32.34,0,0,1,10.19-3,72.69,72.69,0,0,1,13.24-.5c.51-4.13.22-7.11-.89-8.92s-3.58-2.71-7.42-2.71a49.79,49.79,0,0,0-9.14.89,33.46,33.46,0,0,0-7.92,2.32Zm18.28,41.21A11.1,11.1,0,0,0,176,65.47a13.45,13.45,0,0,0,3.77-4.16v-7.2a40.63,40.63,0,0,0-6.59-.11,24.06,24.06,0,0,0-5.6,1,9.38,9.38,0,0,0-3.87,2.22,4.9,4.9,0,0,0-1.44,3.65,6.27,6.27,0,0,0,1.82,4.82A7.05,7.05,0,0,0,169.16,67.41Z"/><path class="cls-1" d="M229.1,63.09a4.14,4.14,0,0,0-1.89-3.55,22.8,22.8,0,0,0-4.65-2.44q-2.77-1.1-6.09-2.27a22.65,22.65,0,0,1-6.1-3.21,17.73,17.73,0,0,1-4.65-5.21,15.67,15.67,0,0,1-1.88-8.14q0-8.19,4.87-12.52t14.07-4.32a45,45,0,0,1,11.41,1.33,33.07,33.07,0,0,1,8,3L239,36.17q-2.55-1-6.43-2.11A28.37,28.37,0,0,0,224.67,33c-4.29,0-6.43,1.67-6.43,5a3.69,3.69,0,0,0,1.88,3.21,24.41,24.41,0,0,0,4.66,2.27c1.84.71,3.87,1.46,6.09,2.27A26.6,26.6,0,0,1,237,48.85a16.6,16.6,0,0,1,4.66,5,15.25,15.25,0,0,1,1.88,8q0,8.42-5.37,13.24T222,79.93a39.31,39.31,0,0,1-11-1.5,34,34,0,0,1-8.36-3.49l4-10.75A37.4,37.4,0,0,0,213.37,67,27.5,27.5,0,0,0,222,68.4a9.6,9.6,0,0,0,5.15-1.21A4.48,4.48,0,0,0,229.1,63.09Z"/><path class="cls-1" d="M247.15,23h7.65V12.57l14.4-4.1V23h13.52V35.17H269.2V56.44q0,5.76,1.16,8.25a4.38,4.38,0,0,0,4.38,2.5,14.25,14.25,0,0,0,3.82-.45,24.39,24.39,0,0,0,3.6-1.33l2.55,11.08a36.81,36.81,0,0,1-7,2.44,33.44,33.44,0,0,1-8.09,1Q262,79.93,258.4,76t-3.6-12.9V35.17h-7.65Z"/><path class="cls-1" d="M288.37,50.68q0-14.07,6.87-21.66t19.27-7.59A28.79,28.79,0,0,1,326,23.54a21.55,21.55,0,0,1,8.09,5.92,25.45,25.45,0,0,1,4.82,9.25,42.11,42.11,0,0,1,1.61,12q0,14.07-6.82,21.66t-19.22,7.59A29,29,0,0,1,303,77.82a22,22,0,0,1-8.14-5.93A24.79,24.79,0,0,1,290,62.64,42,42,0,0,1,288.37,50.68Zm14.84,0a31.81,31.81,0,0,0,.67,6.76,19,19,0,0,0,2,5.43,9.66,9.66,0,0,0,3.49,3.6,10,10,0,0,0,5.15,1.27q5.65,0,8.42-4.1t2.77-13q0-7.65-2.55-12.35t-8.64-4.71a9.81,9.81,0,0,0-8.31,4Q303.21,41.6,303.21,50.68Z"/><path class="cls-1" d="M381.09,36.5a18.84,18.84,0,0,0-6.2-1.22,10.11,10.11,0,0,0-6.48,2,9.86,9.86,0,0,0-3.49,5.26V78.38h-14.4V23h11.19l1.66,7.31h.44a15.1,15.1,0,0,1,5.1-6.31,12.91,12.91,0,0,1,7.53-2.22A21.07,21.07,0,0,1,383,23Z"/><path class="cls-1" d="M63.28,39.62c-4.11-4.73-8.65-7.42-9.93-6.31s1.79,4.9,3.08,8.95A32.19,32.19,0,0,1,12.52,81.37c-4.12-1.85-6.41-5-8-3.66s-.45,5,3.66,9.73A36.47,36.47,0,1,0,63.28,39.62Z"/><path class="cls-1" d="M8.93,60.38c4.11,4.73,8.65,7.42,9.94,6.31s-1.8-4.9-3.09-8.95A32.19,32.19,0,0,1,59.69,18.63c4.12,1.85,6.41,5,8,3.66s.45-5-3.65-9.73A36.47,36.47,0,0,0,8.93,60.38Z"/><path class="cls-1" d="M36.11,36.31c-5.32,0-9.64,5.61-9.64,12.53s4.32,12.53,9.64,12.53,9.63-5.61,9.63-12.53S41.43,36.31,36.11,36.31Z"/></g></g></svg>