<?xml version="1.0" encoding="UTF-8" standalone="no"?>
<!DOCTYPE svg PUBLIC "-//W3C//DTD SVG 1.1//EN" "http://www.w3.org/Graphics/SVG/1.1/DTD/svg11.dtd">
<svg width="100%" height="100%" viewBox="0 0 2430 596" version="1.1" xmlns="http://www.w3.org/2000/svg" xmlns:xlink="http://www.w3.org/1999/xlink" xml:space="preserve" xmlns:serif="http://www.serif.com/" style="fill-rule:evenodd;clip-rule:evenodd;stroke-linejoin:round;stroke-miterlimit:2;">
    <g transform="matrix(4.16667,0,0,4.16667,0,0)">
        <path d="M37.388,18.909C37.388,27.08 34.34,29.017 26.172,29.017C18.001,29.017 14.955,27.08 14.955,18.909L14.955,17.801C14.955,9.907 18.001,7.83 26.172,7.83C34.34,7.83 37.388,9.907 37.388,17.801L37.388,18.909ZM36.556,36.633L36.556,113.619C36.556,118.05 36.279,120.405 34.479,124.835C32.68,129.407 27.831,132.865 20.495,134.529C14.541,135.775 7.756,136.606 0,136.742L0,120.267C4.016,120.127 7.893,119.575 11.493,118.881C15.649,118.05 15.926,115.004 15.926,111.819L15.926,51.587L4.708,51.587L4.708,36.633L36.556,36.633Z" style="fill:white;fill-rule:nonzero;"/>
        <path d="M120.61,92.574L129.889,92.574L129.889,107.528L103.994,107.528L102.748,103.651C95.826,107.113 89.317,108.773 83.222,108.773C73.116,108.773 66.191,106.559 62.314,102.265C58.577,97.834 56.638,91.05 56.638,81.775L56.638,51.587L46.252,51.587L46.252,36.633L77.27,36.633L77.27,76.65C77.27,80.389 77.407,83.158 77.684,85.095C78.239,88.972 81.286,92.712 87.515,92.712C91.946,92.712 96.1,92.02 99.977,90.634L99.977,36.633L120.61,36.633L120.61,92.574Z" style="fill:white;fill-rule:nonzero;"/>
        <path d="M148.31,51.587L137.923,51.587L137.923,36.633L165.34,36.633L167.14,42.725L173.371,40.51C176.416,39.265 178.771,38.433 180.293,37.879C183.616,36.773 189.156,35.388 193.447,35.388L193.447,53.527C182.093,53.803 173.925,54.772 168.94,56.295L168.94,92.575L178.077,92.575L178.077,107.528L139.031,107.528L139.031,92.575L148.31,92.575L148.31,51.587Z" style="fill:white;fill-rule:nonzero;"/>
        <path d="M231.534,18.909C231.534,27.08 228.483,29.017 220.318,29.017C212.144,29.017 209.099,27.08 209.099,18.909L209.099,17.801C209.099,9.907 212.144,7.83 220.318,7.83C228.483,7.83 231.534,9.907 231.534,17.801L231.534,18.909ZM199.682,36.633L230.7,36.633L230.7,92.575L239.839,92.575L239.839,107.528L200.793,107.528L200.793,92.575L210.07,92.575L210.07,51.587L199.682,51.587L199.682,36.633Z" style="fill:white;fill-rule:nonzero;"/>
        <path d="M272.66,92.158C275.291,92.575 279.168,92.712 284.153,92.712C293.569,92.712 296.336,89.526 296.336,80.11L296.336,64.049C296.336,54.08 293.153,51.449 284.153,51.449C280.139,51.449 276.397,51.864 272.66,52.832L272.66,92.158ZM252.027,24.034L241.642,24.034L241.642,9.078L272.66,9.078L272.66,37.742C277.783,36.216 283.182,35.387 288.861,35.387C307.415,35.802 316.693,45.633 316.693,64.603L316.693,78.036C316.693,87.45 315.171,93.818 310.599,99.774C306.167,105.728 297.306,108.773 284.153,108.773C273.351,108.773 262.689,107.945 252.027,106.419L252.027,24.034Z" style="fill:white;fill-rule:nonzero;"/>
        <path d="M324.452,9.078L355.468,9.078L355.468,92.575L364.606,92.575L364.606,107.528L325.56,107.528L325.56,92.575L334.837,92.575L334.837,24.034L324.452,24.034L324.452,9.078Z" style="fill:white;fill-rule:nonzero;"/>
        <path d="M559.795,107.735L546.087,84.611L545.807,84.611L532.377,107.735L509.807,107.735L509.807,92.781L519.5,92.781L534.456,71.041L521.301,51.794L512.024,51.794L512.024,36.841L534.316,36.841L545.947,57.47L546.224,57.47L557.72,36.841L580.147,36.841L580.147,51.794L570.874,51.794L557.854,71.041L572.674,92.781L582.364,92.781L582.364,107.735L559.795,107.735Z" style="fill:white;fill-rule:nonzero;"/>
        <path d="M497.51,107.613L497.486,107.655L436.302,142.994L436.254,142.994L375.064,107.655L375.04,107.613L375.04,36.955L375.064,36.914L436.254,1.579L436.302,1.579L497.486,36.914L497.51,36.955L497.51,107.613Z" style="fill:white;fill-rule:nonzero;"/>
        <g>
            <path d="M436.265,71.603L405.294,54.101L375.04,36.983L375.04,36.955L375.064,36.914L436.254,1.579L436.288,1.579L436.939,1.947L497.486,36.914L497.51,36.955L497.51,36.977L467.237,54.101L436.265,71.603Z" style="fill:rgb(247,167,145);fill-rule:nonzero;"/>
        </g>
    </g>
</svg>
