<?xml version="1.0" encoding="UTF-8"?>
<svg width="493px" height="102px" viewBox="0 0 493 102" version="1.1" xmlns="http://www.w3.org/2000/svg" xmlns:xlink="http://www.w3.org/1999/xlink">
    <!-- Generator: Sketch 64 (93537) - https://sketch.com -->
    <title>Group 15</title>
    <desc>Created with Sketch.</desc>
    <defs>
        <polygon id="path-1" points="0.1185 0.9014 48.939 0.9014 48.939 56.6794 0.1185 56.6794"></polygon>
        <polygon id="path-3" points="0 101.761 492.939 101.761 492.939 0 0 0"></polygon>
    </defs>
    <g id="Page-1" stroke="none" stroke-width="1" fill="none" fill-rule="evenodd">
        <g id="Group-15">
            <path d="M379.1016,22.6624 L335.8166,22.6624 C335.3546,22.6624 334.9816,23.0374 334.9816,23.4994 L334.9816,31.9244 C334.9816,32.3854 335.3546,32.7604 335.8166,32.7604 L364.9596,32.7604 L334.1666,70.0394 C334.0436,70.1884 333.9756,70.3774 333.9756,70.5714 L333.9756,77.6044 C333.9756,78.0664 334.3506,78.4404 334.8116,78.4404 L379.1016,78.4404 C379.5636,78.4404 379.9376,78.0664 379.9376,77.6044 L379.9376,69.1804 C379.9376,68.7184 379.5636,68.3444 379.1016,68.3444 L348.9546,68.3444 L379.7466,31.0644 C379.8706,30.9154 379.9376,30.7264 379.9376,30.5324 L379.9376,23.4994 C379.9376,23.0374 379.5636,22.6624 379.1016,22.6624" id="Fill-1" fill="#FFFFFF"></path>
            <path d="M431.6699,68.2669 L401.5099,68.2669 L401.5099,55.4079 L427.8059,55.4079 C428.2689,55.4079 428.6419,55.0339 428.6419,54.5709 L428.6419,46.0689 C428.6419,45.6079 428.2689,45.2329 427.8059,45.2329 L401.5099,45.2329 L401.5099,32.8369 L431.2839,32.8369 C431.7459,32.8369 432.1189,32.4629 432.1189,32.0009 L432.1189,23.4989 C432.1189,23.0379 431.7459,22.6629 431.2839,22.6629 L391.1679,22.6629 C390.7059,22.6629 390.3309,23.0379 390.3309,23.4989 L390.3309,77.6049 C390.3309,78.0669 390.7059,78.4409 391.1679,78.4409 L431.6699,78.4409 C432.1319,78.4409 432.5059,78.0669 432.5059,77.6049 L432.5059,69.1029 C432.5059,68.6409 432.1319,68.2669 431.6699,68.2669" id="Fill-3" fill="#FFFFFF"></path>
            <g id="Group-7" transform="translate(444.000000, 21.761000)">
                <mask id="mask-2" fill="white">
                    <use xlink:href="#path-1"></use>
                </mask>
                <g id="Clip-6"></g>
                <path d="M48.1045,0.9014 L38.7505,0.9014 C38.2895,0.9014 37.9165,1.2764 37.9165,1.7384 L37.9165,36.7054 L10.4255,1.2254 C10.2675,1.0214 10.0245,0.9014 9.7665,0.9014 L0.9545,0.9014 C0.4915,0.9014 0.1185,1.2764 0.1185,1.7384 L0.1185,55.8434 C0.1185,56.3054 0.4915,56.6794 0.9545,56.6794 L10.3065,56.6794 C10.7685,56.6794 11.1425,56.3054 11.1425,55.8434 L11.1425,19.7944 L39.4825,56.3564 C39.6405,56.5604 39.8835,56.6794 40.1415,56.6794 L48.1045,56.6794 C48.5655,56.6794 48.9395,56.3054 48.9395,55.8434 L48.9395,1.7384 C48.9395,1.2764 48.5655,0.9014 48.1045,0.9014" id="Fill-5" fill="#FFFFFF" mask="url(#mask-2)"></path>
            </g>
            <mask id="mask-4" fill="white">
                <use xlink:href="#path-3"></use>
            </mask>
            <g id="Clip-9"></g>
            <path d="M9.483,92.356 L309.418,92.356 L309.418,9.406 L9.483,9.406 L9.483,92.356 Z M317.553,0 L1.349,0 C0.605,0 0,0.602 0,1.341 L0,100.42 C0,101.159 0.605,101.761 1.349,101.761 L317.553,101.761 C318.296,101.761 318.9,101.159 318.9,100.42 L318.9,1.341 C318.9,0.602 318.296,0 317.553,0 L317.553,0 Z" id="Fill-8" fill="#FFFFFF" mask="url(#mask-4)"></path>
            <path d="M127.377,22.9915 L87.106,22.9915 C86.645,22.9915 86.27,23.3665 86.27,23.8275 L86.27,77.9345 C86.27,78.3955 86.645,78.7695 87.106,78.7695 L96.613,78.7695 C97.074,78.7695 97.449,78.3955 97.449,77.9345 L97.449,56.7405 L123.898,56.7405 C124.359,56.7405 124.734,56.3665 124.734,55.9055 L124.734,47.2485 C124.734,46.7865 124.359,46.4125 123.898,46.4125 L97.449,46.4125 L97.449,33.3205 L127.377,33.3205 C127.838,33.3205 128.213,32.9465 128.213,32.4845 L128.213,23.8275 C128.213,23.3665 127.838,22.9915 127.377,22.9915" id="Fill-10" fill="#FFFFFF" mask="url(#mask-4)"></path>
            <path d="M180.752,22.9915 L140.481,22.9915 C140.02,22.9915 139.645,23.3665 139.645,23.8275 L139.645,77.9345 C139.645,78.3955 140.02,78.7695 140.481,78.7695 L149.988,78.7695 C150.451,78.7695 150.824,78.3955 150.824,77.9345 L150.824,56.7405 L177.273,56.7405 C177.734,56.7405 178.109,56.3665 178.109,55.9055 L178.109,47.2485 C178.109,46.7865 177.734,46.4125 177.273,46.4125 L150.824,46.4125 L150.824,33.3205 L180.752,33.3205 C181.213,33.3205 181.588,32.9465 181.588,32.4845 L181.588,23.8275 C181.588,23.3665 181.213,22.9915 180.752,22.9915" id="Fill-11" fill="#FFFFFF" mask="url(#mask-4)"></path>
            <path d="M234.6875,68.596 L204.5275,68.596 L204.5275,55.736 L230.8225,55.736 C231.2855,55.736 231.6585,55.362 231.6585,54.901 L231.6585,46.398 C231.6585,45.937 231.2855,45.563 230.8225,45.563 L204.5275,45.563 L204.5275,33.166 L234.3005,33.166 C234.7635,33.166 235.1365,32.791 235.1365,32.33 L235.1365,23.827 C235.1365,23.367 234.7635,22.992 234.3005,22.992 L194.1855,22.992 C193.7225,22.992 193.3495,23.367 193.3495,23.827 L193.3495,77.935 C193.3495,78.396 193.7225,78.77 194.1855,78.77 L234.6875,78.77 C235.1505,78.77 235.5235,78.396 235.5235,77.935 L235.5235,69.432 C235.5235,68.97 235.1505,68.596 234.6875,68.596" id="Fill-12" fill="#FFFFFF" mask="url(#mask-4)"></path>
            <path d="M257.9854,33.3206 L270.9834,33.3206 C275.7144,33.3206 281.3564,34.7456 281.3564,41.5286 C281.3564,46.6386 277.4114,49.8136 271.0624,49.8136 L257.9854,49.8136 L257.9854,33.3206 Z M280.3024,57.9146 C288.1934,55.3196 292.6894,49.2076 292.6894,40.9866 C292.6894,29.8876 284.6694,22.9916 271.7564,22.9916 L247.6414,22.9916 C247.1814,22.9916 246.8064,23.3666 246.8064,23.8276 L246.8064,77.9346 C246.8064,78.3956 247.1814,78.7700444 247.6414,78.7700444 L257.1494,78.7700444 C257.6104,78.7700444 257.9854,78.3956 257.9854,77.9346 L257.9854,59.9096 L268.6184,59.9096 L281.6654,78.4166 C281.8214,78.6376 282.0764,78.7700444 282.3454,78.7700444 L293.5554,78.7700444 C293.5604,78.7700444 293.5664,78.7700444 293.5714,78.7700444 C294.0334,78.7700444 294.4074,78.3956 294.4074,77.9346 C294.4074,77.6986 294.3094,77.4866 294.1544,77.3346 L280.3024,57.9146 Z" id="Fill-13" fill="#FFFFFF" mask="url(#mask-4)"></path>
            <path d="M50.2559,69.096 C40.6349,69.096 33.3789,61.148 33.3789,50.608 C33.3789,40.156 40.5699,32.275 50.1079,32.275 C59.7289,32.275 66.9849,40.223 66.9849,50.763 C66.9849,61.214 59.7929,69.096 50.2559,69.096 M50.3169,22.065 C34.4549,22.065 22.4939,34.486 22.4939,50.958 C22.4939,67.342 34.3929,79.698 50.1679,79.698 C66.0309,79.698 77.9919,67.276 77.9919,50.803 C77.9919,34.42 66.0939,22.065 50.3169,22.065" id="Fill-14" fill="#FFFFFF" mask="url(#mask-4)"></path>
        </g>
    </g>
</svg>