<svg xmlns="http://www.w3.org/2000/svg" width="226" height="42" viewBox="0 0 226 42" xmlns:xlink="http://www.w3.org/1999/xlink">
  <defs>
    <polygon id="a" points="0 41.994 225.803 41.994 225.803 0 0 0"/>
    <linearGradient id="c" x1="0%" y1="50%" y2="50%">
      <stop stop-color="#F1404B" offset="0%"/>
      <stop stop-color="#F76B1C" offset="100%"/>
    </linearGradient>
  </defs>
  <g fill="none" fill-rule="evenodd">
    <path fill="#FFFFFF" d="M64.2000882,20.5453873 C64.6058348,20.2012793 64.8070452,19.6447793 64.8070452,18.8824731 C64.8070452,18.1201669 64.5991833,17.5998888 64.1834593,17.3166994 C63.7677353,17.0335101 63.0260837,16.8886225 61.9585045,16.8886225 L59.4309027,16.8886225 L59.4309027,21.0623725 L61.9069548,21.0623725 C63.0327353,21.0623725 63.7960045,20.8894953 64.2000882,20.5453873 L64.2000882,20.5453873 Z M66.8474186,18.8923518 C66.8474186,20.815405 65.9976787,22.0304849 64.3031878,22.5326521 L67.3845339,26.7706136 L64.858595,26.7706136 L62.0416493,22.847124 L59.4309027,22.847124 L59.4309027,26.7706136 L57.4420792,26.7706136 L57.4420792,15.103871 L61.8221471,15.103871 C63.6214005,15.103871 64.9084819,15.4068178 65.6850543,16.004479 C66.4599638,16.6054331 66.8474186,17.5669598 66.8474186,18.8923518 L66.8474186,18.8923518 Z"/>
    <polygon fill="#FFFFFF" points="83.889 15.104 83.889 16.957 77.603 16.957 77.603 20.044 83.248 20.044 83.248 21.796 77.603 21.796 77.603 24.919 84.093 24.919 84.093 26.771 75.612 26.771 75.612 15.104"/>
    <path fill="#FFFFFF" d="M97.9128088 24.9861914C98.5979219 24.9861914 99.1899129 24.8709399 99.6821301 24.6420834 100.17601 24.4132269 100.696497 24.051008 101.235275 23.5521337L102.515705 24.8511825C101.268533 26.2210287 99.7536346 26.9059518 97.974336 26.9059518 96.1917115 26.9059518 94.7133971 26.3362802 93.5377296 25.2018763 92.365388 24.065826 91.7783857 22.6317683 91.7783857 20.8964104 91.7783857 19.1594059 92.3753654 17.7121766 93.5743133 16.5547225 94.7715984 15.3972683 96.2831708 14.817718 98.1073676 14.817718 99.9332274 14.817718 101.459766 15.4861766 102.683657 16.8214473L101.419856 18.1912935C100.857798 17.6578438 100.328997 17.2840997 99.8251391 17.0717077 99.3295962 16.8626086 98.740931 16.7572358 98.0657952 16.7572358 96.8734989 16.7572358 95.8724355 17.1359192 95.0642681 17.8982254 94.2561007 18.6605317 93.8503541 19.6352299 93.8503541 20.8223201 93.8503541 22.004471 94.2527749 22.9956337 95.0576165 23.7925154 95.8607952 24.5844577 96.8152975 24.9861914 97.9128088 24.9861914M117.601164 20.5453873C118.006911 20.2012793 118.208121 19.6447793 118.208121 18.8824731 118.208121 18.1201669 118.000259 17.5998888 117.584535 17.3166994 117.168811 17.0335101 116.425497 16.8886225 115.35958 16.8886225L112.833641 16.8886225 112.833641 21.0623725 115.311356 21.0623725C116.432148 21.0623725 117.198743 20.8894953 117.601164 20.5453873M120.248494 18.8923518C120.248494 20.815405 119.400417 22.0304849 117.704264 22.5326521L120.787273 26.7706136 118.259671 26.7706136 115.444388 22.847124 112.833641 22.847124 112.833641 26.7706136 110.843155 26.7706136 110.843155 15.103871 115.226549 15.103871C117.022476 15.103871 118.309558 15.4068178 119.08613 16.004479 119.86104 16.6054331 120.248494 17.5669598 120.248494 18.8923518M131.661115 24.098755C132.199894 24.7260524 132.928242 25.0339385 133.849486 25.0339385 134.772394 25.0339385 135.504068 24.7260524 136.042846 24.098755 136.581624 23.4780435 136.851014 22.6317683 136.851014 21.561576L136.851014 15.1042003 138.8415 15.1042003 138.8415 21.645545C138.8415 23.329863 138.374226 24.6190331 137.443005 25.5262269 136.51012 26.4334207 135.311172 26.8894873 133.849486 26.8894873 132.391127 26.8894873 131.190516 26.4334207 130.260957 25.5262269 129.329735 24.6190331 128.864124 23.329863 128.864124 21.645545L128.864124 15.1042003 130.852948 15.1042003 130.852948 21.561576C130.852948 22.6317683 131.122337 23.4780435 131.661115 24.098755"/>
    <mask id="b" fill="white">
      <use xlink:href="#a"/>
    </mask>
    <polygon fill="#FFFFFF" points="147.858 26.771 149.845 26.771 149.845 15.104 147.858 15.104" mask="url(#b)"/>
    <polygon fill="#FFFFFF" points="163.467 16.905 163.467 26.771 161.48 26.771 161.48 16.905 157.906 16.905 157.906 15.104 167.039 15.104 167.039 16.905" mask="url(#b)"/>
    <polygon fill="#FFFFFF" points="181.116 16.905 174.474 16.905 174.474 15.104 183.88 15.104 183.88 16.638 177.037 24.902 177.037 24.951 183.981 24.951 183.981 26.771 174.257 26.771 174.257 25.253 181.116 16.956" mask="url(#b)"/>
    <path fill="#FFFFFF" d="M192.217133,26.5394521 C191.976014,26.2924846 191.852959,25.9961237 191.852959,25.6520157 C191.852959,25.3079077 191.976014,25.0148396 192.217133,24.7777509 C192.458253,24.5357228 192.74926,24.4171784 193.100131,24.4171784 C193.447676,24.4171784 193.746998,24.5357228 193.993106,24.7777509 C194.240878,25.0148396 194.363932,25.3079077 194.363932,25.6520157 C194.363932,25.9961237 194.240878,26.2924846 193.993106,26.5394521 C193.746998,26.7798337 193.447676,26.9066104 193.100131,26.9066104 C192.74926,26.9066104 192.458253,26.7798337 192.217133,26.5394521" mask="url(#b)"/>
    <polygon fill="#FFFFFF" points="202.993 26.771 204.987 26.771 204.987 15.104 202.993 15.104" mask="url(#b)"/>
    <path fill="#FFFFFF" d="M222.558499,17.8568996 C221.753657,17.0369676 220.765897,16.6220623 219.596881,16.6220623 C218.427865,16.6220623 217.446757,17.0369676 216.640252,17.8568996 C215.838736,18.6834173 215.436316,19.6795194 215.436316,20.853438 C215.436316,22.0273567 215.838736,23.0283981 216.640252,23.8516229 C217.446757,24.6748478 218.427865,25.0864602 219.596881,25.0864602 C220.765897,25.0864602 221.753657,24.6748478 222.558499,23.8516229 C223.360015,23.0283981 223.764098,22.0273567 223.764098,20.853438 C223.764098,19.6795194 223.360015,18.6834173 222.558499,17.8568996 M224.016859,25.1605504 C222.824562,26.3114188 221.349574,26.8893226 219.596881,26.8893226 C217.849178,26.8893226 216.374189,26.3114188 215.181893,25.1605504 C213.991259,24.0080357 213.395942,22.573978 213.395942,20.853438 C213.395942,19.1328981 213.991259,17.6988404 215.181893,16.547972 C216.374189,15.3971037 217.849178,14.8175534 219.596881,14.8175534 C221.349574,14.8175534 222.824562,15.3971037 224.016859,16.547972 C225.209155,17.6988404 225.802809,19.1328981 225.802809,20.853438 C225.802809,22.573978 225.209155,24.0080357 224.016859,25.1605504" mask="url(#b)"/>
    <path fill="url(#c)" d="M18.2301618,0 L23.9854446,0 L23.9854446,12.1326879 L14.7480577,12.1326879 C9.78763914,12.1326879 5.75511652,16.1269749 5.75511652,21.0366879 C5.75511652,25.9480473 9.78763914,29.9390414 14.7480577,29.9390414 L14.7480577,35.6390503 C6.61317081,35.6390503 -0.000166289592,29.0894734 -0.000166289592,21.0366879 C-0.000166289592,12.9855488 6.61317081,6.43432544 14.7480577,6.43432544 L18.2301618,6.43432544 L18.2301618,0 Z M25.1479751,41.9941815 L19.3926923,41.9941815 L19.3926923,29.8582007 L28.633405,29.8582007 C33.5871719,29.8582007 37.6213575,25.8639138 37.6213575,20.9574936 C37.6213575,16.0428413 33.5871719,12.0551401 28.633405,12.0551401 L28.633405,6.35513121 C36.7616403,6.35513121 43.3783032,12.9014152 43.3783032,20.9574936 C43.3783032,29.0086327 36.7616403,35.5598561 28.633405,35.5598561 L25.1479751,35.5598561 L25.1479751,41.9941815 Z M18.0043405,20.9955266 C18.0043405,22.2632929 16.9666934,23.2857382 15.6895894,23.2857382 C14.4141482,23.2857382 13.3814898,22.2632929 13.3814898,20.9955266 C13.3814898,19.7343462 14.4141482,18.708608 15.6895894,18.708608 C16.9666934,18.708608 18.0043405,19.7343462 18.0043405,20.9955266 Z M29.995483,20.9955266 C29.995483,22.2632929 28.9611618,23.2857382 27.6857206,23.2857382 C26.4086165,23.2857382 25.3759581,22.2632929 25.3759581,20.9955266 C25.3759581,19.7343462 26.4086165,18.708608 27.6857206,18.708608 C28.9611618,18.708608 29.995483,19.7343462 29.995483,20.9955266 Z" mask="url(#b)"/>
  </g>
</svg>
