<?xml version="1.0" encoding="UTF-8" standalone="no"?>
<!-- Created with Inkscape (http://www.inkscape.org/) -->

<svg
   xmlns:dc="http://purl.org/dc/elements/1.1/"
   xmlns:cc="http://creativecommons.org/ns#"
   xmlns:rdf="http://www.w3.org/1999/02/22-rdf-syntax-ns#"
   xmlns:svg="http://www.w3.org/2000/svg"
   xmlns="http://www.w3.org/2000/svg"
   xmlns:sodipodi="http://sodipodi.sourceforge.net/DTD/sodipodi-0.dtd"
   xmlns:inkscape="http://www.inkscape.org/namespaces/inkscape"
   width="350"
   height="130"
   id="svg4133"
   version="1.1"
   inkscape:version="0.48.4 r9939"
   sodipodi:docname="New document 4">
  <defs
     id="defs4135">
    <clipPath
       clipPathUnits="userSpaceOnUse"
       id="clipPath3181">
      <path
         inkscape:connector-curvature="0"
         d="m 453.965,435.263 119.582,0 0,44.305 -119.582,0 0,-44.305 z"
         id="path3183" />
    </clipPath>
  </defs>
  <sodipodi:namedview
     id="base"
     pagecolor="#ffffff"
     bordercolor="#ffffff"
     borderopacity="0.0"
     inkscape:pageopacity="0.0"
     inkscape:pageshadow="0"
     inkscape:zoom="0.7"
     inkscape:cx="365.05301"
     inkscape:cy="105.83746"
     inkscape:document-units="px"
     inkscape:current-layer="layer1"
     showgrid="false"
     inkscape:window-width="1366"
     inkscape:window-height="746"
     inkscape:window-x="-8"
     inkscape:window-y="-8"
     inkscape:window-maximized="1" />
  <metadata
     id="metadata4138">
    <rdf:RDF>
      <cc:Work
         rdf:about="">
        <dc:format>image/svg+xml</dc:format>
        <dc:type
           rdf:resource="http://purl.org/dc/dcmitype/StillImage" />
        <dc:title></dc:title>
      </cc:Work>
    </rdf:RDF>
  </metadata>
  <g
     inkscape:label="Layer 1"
     inkscape:groupmode="layer"
     id="layer1"
     transform="translate(0,-922.36218)">
    <g
       transform="matrix(2.926879,0,0,-2.9342061,-1328.7027,2329.5135)"
       id="g3177">
      <g
         id="g3179"
         clip-path="url(#clipPath3181)">
        <g
           id="g3185"
           transform="translate(453.9657,457.3695)">
          <path
             inkscape:connector-curvature="0"
             d="m 0,0 0,-4.512 16.973,0 0,4.6 C 14.095,0.03 11.173,0 8.207,0 L 0,0 z"
             style="fill:#d7d7d7;fill-opacity:1;fill-rule:nonzero;stroke:none"
             id="path3187" />
        </g>
        <path
           inkscape:connector-curvature="0"
           d="m 453.966,452.26 26.901,0 0,-4.512 -26.901,0 0,4.512 z"
           style="fill:#d7d7d7;fill-opacity:1;fill-rule:nonzero;stroke:none"
           id="path3189" />
        <g
           id="g3191"
           transform="translate(572.674,452.8574)">
          <path
             inkscape:connector-curvature="0"
             d="m 0,0 0.694,0 0,26.712 C 0.466,26.555 0.235,26.398 0,26.241 L 0,0 z"
             style="fill:#d7d7d7;fill-opacity:1;fill-rule:nonzero;stroke:none"
             id="path3193" />
        </g>
        <g
           id="g3195"
           transform="translate(567.6084,452.8574)">
          <path
             inkscape:connector-curvature="0"
             d="m 0,0 0.894,0 0,23.707 C 0.6,23.543 0.302,23.381 0,23.219 L 0,0 z"
             style="fill:#d7d7d7;fill-opacity:1;fill-rule:nonzero;stroke:none"
             id="path3197" />
        </g>
        <g
           id="g3199"
           transform="translate(562.5571,452.8574)">
          <path
             inkscape:connector-curvature="0"
             d="m 0,0 1.093,0 0,21.231 C 0.733,21.061 0.369,20.893 0,20.725 L 0,0 z"
             style="fill:#d7d7d7;fill-opacity:1;fill-rule:nonzero;stroke:none"
             id="path3201" />
        </g>
        <g
           id="g3203"
           transform="translate(557.5058,452.8574)">
          <path
             inkscape:connector-curvature="0"
             d="m 0,0 1.292,0 0,19.109 C 0.866,18.936 0.435,18.764 0,18.593 L 0,0 z"
             style="fill:#d7d7d7;fill-opacity:1;fill-rule:nonzero;stroke:none"
             id="path3205" />
        </g>
        <g
           id="g3207"
           transform="translate(552.4539,452.8574)">
          <path
             inkscape:connector-curvature="0"
             d="m 0,0 1.492,0 0,17.257 C 1,17.081 0.503,16.906 0,16.732 L 0,0 z"
             style="fill:#d7d7d7;fill-opacity:1;fill-rule:nonzero;stroke:none"
             id="path3209" />
        </g>
        <g
           id="g3211"
           transform="translate(547.4026,452.8574)">
          <path
             inkscape:connector-curvature="0"
             d="m 0,0 1.692,0 0,15.62 C 1.133,15.443 0.57,15.267 0,15.092 L 0,0 z"
             style="fill:#d7d7d7;fill-opacity:1;fill-rule:nonzero;stroke:none"
             id="path3213" />
        </g>
        <g
           id="g3215"
           transform="translate(542.3506,452.8574)">
          <path
             inkscape:connector-curvature="0"
             d="m 0,0 1.891,0 0,14.161 C 1.268,13.984 0.637,13.81 0,13.636 L 0,0 z"
             style="fill:#d7d7d7;fill-opacity:1;fill-rule:nonzero;stroke:none"
             id="path3217" />
        </g>
        <g
           id="g3219"
           transform="translate(537.2994,452.8574)">
          <path
             inkscape:connector-curvature="0"
             d="m 0,0 2.091,0 0,12.857 C 1.401,12.681 0.704,12.507 0,12.336 L 0,0 z"
             style="fill:#d7d7d7;fill-opacity:1;fill-rule:nonzero;stroke:none"
             id="path3221" />
        </g>
        <g
           id="g3223"
           transform="translate(532.248,452.8574)">
          <path
             inkscape:connector-curvature="0"
             d="m 0,0 1.615,0 0.675,2.517 0,9.169 C 1.534,11.513 0.771,11.343 0,11.175 L 0,0 z"
             style="fill:#d7d7d7;fill-opacity:1;fill-rule:nonzero;stroke:none"
             id="path3225" />
        </g>
        <g
           id="g3227"
           transform="translate(527.1962,452.8574)">
          <path
             inkscape:connector-curvature="0"
             d="m 0,0 2.49,0 0,10.634 C 1.668,10.465 0.838,10.299 0,10.137 L 0,0 z"
             style="fill:#d7d7d7;fill-opacity:1;fill-rule:nonzero;stroke:none"
             id="path3229" />
        </g>
        <g
           id="g3231"
           transform="translate(522.3439,452.8574)">
          <path
             inkscape:connector-curvature="0"
             d="m 0,0 2.69,0 0,9.726 C 1.802,9.562 0.906,9.402 0,9.244 L 0,0 z"
             style="fill:#d7d7d7;fill-opacity:1;fill-rule:nonzero;stroke:none"
             id="path3233" />
        </g>
        <g
           id="g3235"
           transform="translate(517.1927,452.8574)">
          <path
             inkscape:connector-curvature="0"
             d="m 0,0 2.889,0 0,8.861 C 1.935,8.704 0.972,8.55 0,8.4 L 0,0 z"
             style="fill:#d7d7d7;fill-opacity:1;fill-rule:nonzero;stroke:none"
             id="path3237" />
        </g>
        <g
           id="g3239"
           transform="translate(512.0416,452.8574)">
          <path
             inkscape:connector-curvature="0"
             d="m 0,0 3.088,0 0,8.091 C 2.069,7.941 1.039,7.796 0,7.655 L 0,0 z"
             style="fill:#d7d7d7;fill-opacity:1;fill-rule:nonzero;stroke:none"
             id="path3241" />
        </g>
        <g
           id="g3243"
           transform="translate(507.1896,452.8574)">
          <path
             inkscape:connector-curvature="0"
             d="m 0,0 3.287,0 0,7.447 C 2.202,7.306 1.106,7.168 0,7.036 L 0,0 z"
             style="fill:#d7d7d7;fill-opacity:1;fill-rule:nonzero;stroke:none"
             id="path3245" />
        </g>
        <g
           id="g3247"
           transform="translate(502.1383,452.8574)">
          <path
             inkscape:connector-curvature="0"
             d="m 0,0 3.487,0 0,6.854 C 2.336,6.722 1.173,6.596 0,6.474 L 0,0 z"
             style="fill:#d7d7d7;fill-opacity:1;fill-rule:nonzero;stroke:none"
             id="path3249" />
        </g>
        <g
           id="g3251"
           transform="translate(496.9869,452.8574)">
          <path
             inkscape:connector-curvature="0"
             d="m 0,0 3.687,0 0,6.326 C 2.469,6.206 1.24,6.09 0,5.981 L 0,0 z"
             style="fill:#d7d7d7;fill-opacity:1;fill-rule:nonzero;stroke:none"
             id="path3253" />
        </g>
        <g
           id="g3255"
           transform="translate(492.0351,452.8574)">
          <path
             inkscape:connector-curvature="0"
             d="m 0,0 3.886,0 0,5.889 C 2.602,5.78 1.308,5.677 0,5.579 L 0,0 z"
             style="fill:#d7d7d7;fill-opacity:1;fill-rule:nonzero;stroke:none"
             id="path3257" />
        </g>
        <g
           id="g3259"
           transform="translate(486.7839,452.8574)">
          <path
             inkscape:connector-curvature="0"
             d="m 0,0 4.086,0 0,5.495 C 2.736,5.4 1.374,5.311 0,5.229 L 0,0 z"
             style="fill:#d7d7d7;fill-opacity:1;fill-rule:nonzero;stroke:none"
             id="path3261" />
        </g>
        <g
           id="g3263"
           transform="translate(481.6325,452.8574)">
          <path
             inkscape:connector-curvature="0"
             d="m 0,0 4.285,0 0,5.177 C 2.87,5.096 1.441,5.022 0,4.955 L 0,0 z"
             style="fill:#d7d7d7;fill-opacity:1;fill-rule:nonzero;stroke:none"
             id="path3265" />
        </g>
        <g
           id="g3267"
           transform="translate(476.4817,452.8574)">
          <path
             inkscape:connector-curvature="0"
             d="m 0,0 4.484,0 0,4.924 C 3.003,4.858 1.508,4.8 0,4.749 L 0,0 z"
             style="fill:#d7d7d7;fill-opacity:1;fill-rule:nonzero;stroke:none"
             id="path3269" />
        </g>
        <g
           id="g3271"
           transform="translate(471.33,452.8574)">
          <path
             inkscape:connector-curvature="0"
             d="m 0,0 4.684,0 0,4.734 C 3.137,4.683 1.575,4.642 0,4.609 L 0,0 z"
             style="fill:#d7d7d7;fill-opacity:1;fill-rule:nonzero;stroke:none"
             id="path3273" />
        </g>
        <g
           id="g3275"
           transform="translate(515.5073,440.2493)">
          <path
             inkscape:connector-curvature="0"
             d="m 0,0 -0.013,0 -0.656,-1.87 1.324,0 L 0,0 z m -0.5,0.909 1.026,0 1.779,-4.531 -1.006,0 -0.39,1.038 -1.837,0 -0.397,-1.038 -0.941,0 1.766,4.531 z"
             style="fill:#ef2e32;fill-opacity:1;fill-rule:nonzero;stroke:none"
             id="path3277" />
        </g>
        <g
           id="g3279"
           transform="translate(518.3073,439.9703)">
          <path
             inkscape:connector-curvature="0"
             d="m 0,0 0.812,0 0,-0.468 0.013,0 c 0.272,0.409 0.668,0.545 0.993,0.545 0.467,0 0.798,-0.175 0.987,-0.59 0.201,0.403 0.637,0.59 1.046,0.59 0.825,0 1.058,-0.564 1.058,-1.311 l 0,-2.11 -0.87,0 0,1.993 c 0,0.312 0,0.753 -0.5,0.753 -0.578,0 -0.65,-0.688 -0.65,-1.123 l 0,-1.623 -0.87,0 0,1.993 c 0,0.312 0,0.753 -0.499,0.753 -0.578,0 -0.65,-0.688 -0.65,-1.123 l 0,-1.623 -0.87,0 L 0,0 z"
             style="fill:#ef2e32;fill-opacity:1;fill-rule:nonzero;stroke:none"
             id="path3281" />
        </g>
        <g
           id="g3283"
           transform="translate(526.1498,439.2693)">
          <path
             inkscape:connector-curvature="0"
             d="m 0,0 c -0.267,0.09 -0.461,0.142 -0.78,0.142 -0.233,0 -0.512,-0.084 -0.512,-0.37 0,-0.532 1.513,-0.195 1.513,-1.402 0,-0.779 -0.695,-1.091 -1.403,-1.091 -0.331,0 -0.669,0.058 -0.987,0.143 l 0.052,0.714 c 0.272,-0.136 0.559,-0.221 0.857,-0.221 0.221,0 0.571,0.085 0.571,0.41 0,0.655 -1.513,0.207 -1.513,1.415 0,0.721 0.631,1.039 1.312,1.039 0.409,0 0.675,-0.065 0.948,-0.124 L 0,0 z"
             style="fill:#ef2e32;fill-opacity:1;fill-rule:nonzero;stroke:none"
             id="path3285" />
        </g>
        <g
           id="g3287"
           transform="translate(527.462,439.3337)">
          <path
             inkscape:connector-curvature="0"
             d="m 0,0 -0.643,0 0,0.637 0.643,0 0,0.668 0.87,0.279 0,-0.947 0.773,0 0,-0.637 -0.773,0 0,-1.558 c 0,-0.286 0.078,-0.552 0.409,-0.552 0.156,0 0.305,0.032 0.396,0.091 L 1.701,-2.707 C 1.519,-2.76 1.318,-2.786 1.058,-2.786 0.376,-2.786 0,-2.363 0,-1.701 L 0,0 z"
             style="fill:#ef2e32;fill-opacity:1;fill-rule:nonzero;stroke:none"
             id="path3289" />
        </g>
        <g
           id="g3291"
           transform="translate(531.9301,438.6259)">
          <path
             inkscape:connector-curvature="0"
             d="M 0,0 C -0.027,0.422 -0.221,0.785 -0.708,0.785 -1.195,0.785 -1.442,0.448 -1.481,0 L 0,0 z m 0.584,-1.811 c -0.318,-0.175 -0.682,-0.267 -1.149,-0.267 -1.104,0 -1.746,0.637 -1.746,1.734 0,0.967 0.513,1.766 1.551,1.766 1.24,0 1.591,-0.85 1.591,-2.02 l -2.312,0 c 0.04,-0.538 0.416,-0.843 0.955,-0.843 0.422,0 0.785,0.156 1.11,0.337 l 0,-0.707 z"
             style="fill:#ef2e32;fill-opacity:1;fill-rule:nonzero;stroke:none"
             id="path3293" />
        </g>
        <g
           id="g3295"
           transform="translate(533.5306,439.9703)">
          <path
             inkscape:connector-curvature="0"
             d="m 0,0 0.773,0 0,-0.76 0.013,0 c 0.039,0.312 0.396,0.837 0.915,0.837 0.085,0 0.175,0 0.266,-0.026 l 0,-0.876 C 1.889,-0.78 1.734,-0.754 1.578,-0.754 0.87,-0.754 0.87,-1.636 0.87,-2.118 l 0,-1.226 -0.87,0 L 0,0 z"
             style="fill:#ef2e32;fill-opacity:1;fill-rule:nonzero;stroke:none"
             id="path3297" />
        </g>
        <g
           id="g3299"
           transform="translate(537.4332,437.2237)">
          <path
             inkscape:connector-curvature="0"
             d="m 0,0 c 0.578,0 0.766,0.61 0.766,1.084 0,0.468 -0.22,1.065 -0.779,1.065 -0.565,0 -0.721,-0.617 -0.721,-1.065 C -0.734,0.623 -0.572,0 0,0 m 0.799,-0.221 -0.013,0 c -0.26,-0.325 -0.617,-0.455 -1.026,-0.455 -1.026,0 -1.403,0.845 -1.403,1.76 0,0.922 0.377,1.74 1.403,1.74 0.435,0 0.74,-0.149 1,-0.467 l 0.013,0 0,1.915 0.87,0 0,-4.869 -0.844,0 0,0.376 z"
             style="fill:#ef2e32;fill-opacity:1;fill-rule:nonzero;stroke:none"
             id="path3301" />
        </g>
        <g
           id="g3303"
           transform="translate(541.1624,437.1847)">
          <path
             inkscape:connector-curvature="0"
             d="m 0,0 c 0.266,0 0.474,0.116 0.611,0.298 0.142,0.189 0.181,0.429 0.181,0.689 l -0.376,0 C 0.026,0.987 -0.552,0.922 -0.552,0.409 -0.552,0.123 -0.311,0 0,0 m -1.019,2.61 c 0.338,0.156 0.791,0.253 1.162,0.253 1.019,0 1.442,-0.421 1.442,-1.409 l 0,-0.429 c 0,-0.336 0.007,-0.59 0.013,-0.836 0.007,-0.254 0.019,-0.488 0.039,-0.747 l -0.767,0 c -0.032,0.174 -0.032,0.395 -0.039,0.499 l -0.013,0 c -0.201,-0.37 -0.636,-0.578 -1.033,-0.578 -0.59,0 -1.168,0.357 -1.168,0.994 0,0.5 0.24,0.792 0.571,0.955 0.332,0.162 0.76,0.194 1.124,0.194 l 0.48,0 c 0,0.539 -0.24,0.721 -0.753,0.721 -0.371,0 -0.741,-0.143 -1.032,-0.364 L -1.019,2.61 z"
             style="fill:#ef2e32;fill-opacity:1;fill-rule:nonzero;stroke:none"
             id="path3305" />
        </g>
        <g
           id="g3307"
           transform="translate(543.6754,439.9703)">
          <path
             inkscape:connector-curvature="0"
             d="m 0,0 0.812,0 0,-0.468 0.013,0 c 0.272,0.409 0.669,0.545 0.993,0.545 0.467,0 0.799,-0.175 0.987,-0.59 0.201,0.403 0.637,0.59 1.046,0.59 0.824,0 1.058,-0.564 1.058,-1.311 l 0,-2.11 -0.87,0 0,1.993 c 0,0.312 0,0.753 -0.5,0.753 -0.578,0 -0.649,-0.688 -0.649,-1.123 l 0,-1.623 -0.871,0 0,1.993 c 0,0.312 0,0.753 -0.5,0.753 -0.577,0 -0.649,-0.688 -0.649,-1.123 l 0,-1.623 -0.87,0 L 0,0 z"
             style="fill:#ef2e32;fill-opacity:1;fill-rule:nonzero;stroke:none"
             id="path3309" />
        </g>
        <g
           id="g3311"
           transform="translate(553.4048,440.2493)">
          <path
             inkscape:connector-curvature="0"
             d="m 0,0 -0.013,0 -0.656,-1.87 1.324,0 L 0,0 z m -0.5,0.909 1.026,0 1.779,-4.531 -1.006,0 -0.39,1.038 -1.838,0 -0.396,-1.038 -0.941,0 1.766,4.531 z"
             style="fill:#8a8889;fill-opacity:1;fill-rule:nonzero;stroke:none"
             id="path3313" />
        </g>
        <path
           inkscape:connector-curvature="0"
           d="m 556.257,439.97 0.87,0 0,-3.344 -0.87,0 0,3.344 z m 0,1.441 0.87,0 0,-0.831 -0.87,0 0,0.831 z"
           style="fill:#8a8889;fill-opacity:1;fill-rule:nonzero;stroke:none"
           id="path3315" />
        <g
           id="g3317"
           transform="translate(558.1616,439.9703)">
          <path
             inkscape:connector-curvature="0"
             d="m 0,0 0.772,0 0,-0.76 0.014,0 c 0.039,0.312 0.396,0.837 0.915,0.837 0.084,0 0.175,0 0.266,-0.026 l 0,-0.876 C 1.889,-0.78 1.733,-0.754 1.578,-0.754 0.87,-0.754 0.87,-1.636 0.87,-2.118 l 0,-1.226 -0.87,0 L 0,0 z"
             style="fill:#8a8889;fill-opacity:1;fill-rule:nonzero;stroke:none"
             id="path3319" />
        </g>
        <g
           id="g3321"
           transform="translate(561.5659,438.3079)">
          <path
             inkscape:connector-curvature="0"
             d="M 0,0 C 0,-0.474 0.188,-1.084 0.766,-1.084 1.337,-1.084 1.5,-0.461 1.5,0 1.5,0.448 1.343,1.065 0.779,1.065 0.22,1.065 0,0.467 0,0 m -0.877,1.662 0.831,0 0,-0.474 0.013,0 C 0.163,1.513 0.493,1.74 1.006,1.74 2.032,1.74 2.408,0.922 2.408,0 c 0,-0.916 -0.376,-1.76 -1.422,-1.76 -0.37,0 -0.675,0.092 -0.98,0.461 l -0.013,0 0,-1.746 -0.87,0 0,4.707 z"
             style="fill:#8a8889;fill-opacity:1;fill-rule:nonzero;stroke:none"
             id="path3323" />
        </g>
        <g
           id="g3325"
           transform="translate(566.2881,437.2237)">
          <path
             inkscape:connector-curvature="0"
             d="M 0,0 C 0.669,0 0.844,0.597 0.844,1.156 0.844,1.668 0.572,2.149 0,2.149 -0.565,2.149 -0.837,1.655 -0.837,1.156 -0.837,0.604 -0.662,0 0,0 m 0,2.824 c 0.994,0 1.753,-0.669 1.753,-1.772 0,-0.962 -0.642,-1.728 -1.753,-1.728 -1.104,0 -1.746,0.766 -1.746,1.728 0,1.103 0.76,1.772 1.746,1.772"
             style="fill:#8a8889;fill-opacity:1;fill-rule:nonzero;stroke:none"
             id="path3327" />
        </g>
        <g
           id="g3329"
           transform="translate(568.7335,439.9703)">
          <path
             inkscape:connector-curvature="0"
             d="m 0,0 0.772,0 0,-0.76 0.013,0 c 0.04,0.312 0.397,0.837 0.916,0.837 0.084,0 0.175,0 0.266,-0.026 l 0,-0.876 C 1.889,-0.78 1.733,-0.754 1.578,-0.754 0.87,-0.754 0.87,-1.636 0.87,-2.118 l 0,-1.226 -0.87,0 L 0,0 z"
             style="fill:#8a8889;fill-opacity:1;fill-rule:nonzero;stroke:none"
             id="path3331" />
        </g>
        <g
           id="g3333"
           transform="translate(571.7076,439.3337)">
          <path
             inkscape:connector-curvature="0"
             d="m 0,0 -0.643,0 0,0.637 0.643,0 0,0.668 0.87,0.279 0,-0.947 0.773,0 0,-0.637 -0.773,0 0,-1.558 c 0,-0.286 0.078,-0.552 0.409,-0.552 0.156,0 0.305,0.032 0.396,0.091 L 1.701,-2.707 C 1.519,-2.76 1.318,-2.786 1.059,-2.786 0.377,-2.786 0,-2.363 0,-1.701 L 0,0 z"
             style="fill:#8a8889;fill-opacity:1;fill-rule:nonzero;stroke:none"
             id="path3335" />
        </g>
        <g
           id="g3337"
           transform="translate(506.5536,446.4002)">
          <path
             inkscape:connector-curvature="0"
             d="m 0,0 -0.013,0 c -1.872,0 -3.413,0.633 -4.457,1.832 -0.973,1.114 -1.488,2.672 -1.488,4.505 -10e-4,0.012 -10e-4,0.025 0,0.039 0.006,1.746 0.526,3.259 1.505,4.375 1.051,1.205 2.554,1.843 4.344,1.843 1.209,0 2.288,-0.159 3.219,-0.472 L 3.247,12.076 3.231,11.932 2.886,8.935 2.859,8.697 2.638,8.789 C 2.562,8.821 2.489,8.852 2.417,8.883 1.857,9.123 1.374,9.331 0.518,9.331 l -0.038,0 C -0.999,9.32 -1.899,8.205 -1.925,6.348 -1.905,5.2 -1.56,3.264 0.538,3.264 c 0.701,0 1.337,0.239 1.953,0.472 0.172,0.065 0.341,0.129 0.508,0.186 L 3.224,3.999 3.237,3.761 3.403,0.652 3.41,0.524 3.292,0.475 C 2.585,0.182 1.324,0 0,0"
             style="fill:#ffffff;fill-opacity:1;fill-rule:nonzero;stroke:none"
             id="path3339" />
        </g>
        <g
           id="g3341"
           transform="translate(493.6102,446.4002)">
          <path
             inkscape:connector-curvature="0"
             d="m 0,0 0,0 -0.016,0 c -1.636,0 -3.285,0.432 -4.172,0.665 l -0.06,0.015 -0.149,0.039 0.016,0.154 0.362,3.473 0.028,0.267 0.237,-0.127 c 1.428,-0.768 2.5,-1.096 3.584,-1.095 0.444,0 1.003,0.147 1.501,0.395 0.386,0.191 0.635,0.592 0.636,1.021 0,0.455 -0.279,0.855 -0.765,1.098 -0.577,0.288 -1.347,0.604 -2.164,0.939 l -0.024,0.011 c -1.679,0.678 -3.606,1.811 -3.597,4.567 l 0,0 c 0,0 0,0.01 0.001,0.029 -0.007,2.137 0.995,3.32 1.837,3.934 1.262,0.932 2.824,1.129 3.913,1.129 1.364,0 2.861,-0.246 4.005,-0.659 L 5.307,15.806 5.291,15.665 4.927,12.487 4.9,12.255 4.682,12.34 C 3.29,12.884 2.286,13.126 1.426,13.126 0.923,13.122 0.457,12.999 0.149,12.788 c -0.39,-0.273 -0.566,-0.654 -0.571,-1.234 0,-0.378 0.217,-0.642 0.772,-0.953 C 0.731,10.39 1.239,10.195 1.778,9.988 2.024,9.893 2.28,9.794 2.539,9.689 4.926,8.728 6.136,7.17 6.136,5.058 6.136,3.473 5.392,1.931 4.241,1.128 3.181,0.383 1.754,0.003 0,0"
             style="fill:#ffffff;fill-opacity:1;fill-rule:nonzero;stroke:none"
             id="path3343" />
        </g>
        <g
           id="g3345"
           transform="translate(562.1585,455.7312)">
          <path
             inkscape:connector-curvature="0"
             d="m 0,0 c -1.636,-0.001 -2.235,-1.492 -2.251,-2.767 0,-0.675 0.085,-1.629 0.49,-2.33 0.389,-0.664 0.932,-0.964 1.759,-0.973 0.836,0.009 1.385,0.307 1.777,0.967 0.405,0.694 0.493,1.654 0.495,2.337 C 2.251,-1.434 1.645,-0.006 0,0 m 0.002,-9.331 -0.012,0 c -1.883,0 -3.479,0.631 -4.619,1.825 -1.069,1.116 -1.658,2.677 -1.658,4.394 0.003,1.902 0.633,3.511 1.821,4.668 1.134,1.101 2.721,1.707 4.468,1.707 1.757,0 3.349,-0.606 4.482,-1.706 C 5.676,0.399 6.305,-1.213 6.305,-3.105 6.303,-4.831 5.711,-6.393 4.638,-7.508 3.495,-8.701 1.892,-9.331 0.002,-9.331"
             style="fill:#ffffff;fill-opacity:1;fill-rule:nonzero;stroke:none"
             id="path3347" />
        </g>
        <g
           id="g3349"
           transform="translate(536.2778,455.7311)">
          <path
             inkscape:connector-curvature="0"
             d="M 0,0 C -0.659,-0.006 -1.149,-0.302 -1.539,-0.933 -1.866,-1.474 -2.061,-2.248 -2.059,-3 l 0,-0.032 c 0.002,-0.8 0.177,-1.563 0.48,-2.095 0.375,-0.643 0.849,-0.933 1.535,-0.941 0.665,0.009 1.103,0.292 1.46,0.948 0.281,0.527 0.442,1.292 0.443,2.1 0,0.009 -10e-4,0.017 -10e-4,0.024 0.003,0.779 -0.157,1.549 -0.426,2.067 C 1.083,-0.286 0.655,-0.007 0,0 m -3.343,-13.483 -2.401,0 -0.181,0 0,0.179 0,16.134 0,0.18 0.181,0 3.426,0 0.18,0 0,-0.18 0,-0.609 c 0.759,0.63 1.744,0.96 2.873,0.96 l 0.018,0 0.017,0 c 1.701,0 3.057,-0.663 3.923,-1.918 0.732,-1.057 1.12,-2.53 1.121,-4.26 C 5.813,-4.735 5.421,-6.218 4.682,-7.29 3.802,-8.572 2.426,-9.251 0.701,-9.251 l -0.021,0 -0.052,0 c -1.111,0 -2.003,0.296 -2.774,0.925 l 0,-3.961 c 0,-0.66 -0.537,-1.196 -1.197,-1.196"
             style="fill:#ffffff;fill-opacity:1;fill-rule:nonzero;stroke:none"
             id="path3351" />
        </g>
        <g
           id="g3353"
           transform="translate(527.1082,446.6671)">
          <path
             inkscape:connector-curvature="0"
             d="m 0,0 -2.521,0 -0.18,0 0,0.18 0,11.714 0,0.18 0.18,0 3.538,0 0.18,0 0,-0.18 0,-10.697 C 1.197,0.537 0.66,0 0,0"
             style="fill:#ffffff;fill-opacity:1;fill-rule:nonzero;stroke:none"
             id="path3355" />
        </g>
        <g
           id="g3357"
           transform="translate(528.3051,459.5785)">
          <path
             inkscape:connector-curvature="0"
             d="m 0,0 -0.18,0 -3.538,0 -0.18,0 0,0.18 0,1.887 c 0,0.597 0.434,1.043 1.16,1.192 L -0.216,3.778 0,3.822 0,3.602 0,0.18 0,0 z"
             style="fill:#ffffff;fill-opacity:1;fill-rule:nonzero;stroke:none"
             id="path3359" />
        </g>
        <g
           id="g3361"
           transform="translate(572.351,446.6674)">
          <path
             inkscape:connector-curvature="0"
             d="m 0,0 -2.52,0 -0.181,0 0,0.18 0,15.863 c 0,0.597 0.434,1.043 1.16,1.193 l 2.522,0.518 0.216,0.045 0,-0.221 0,-16.382 C 1.197,0.536 0.66,0 0,0"
             style="fill:#ffffff;fill-opacity:1;fill-rule:nonzero;stroke:none"
             id="path3363" />
        </g>
        <g
           id="g3365"
           transform="translate(521.2231,446.6667)">
          <path
             inkscape:connector-curvature="0"
             d="m 0,0 -2.521,0 -0.181,0 0,0.18 0,6.301 C -2.7,7.117 -2.723,7.833 -2.912,8.323 -3.118,8.813 -3.343,9.051 -4.058,9.069 -4.79,9.063 -5.265,8.759 -5.639,8.052 -5.881,7.576 -6.037,6.896 -6.066,6.188 l 0,-5.996 0,-0.18 L -6.255,0 l -3.527,0 -0.18,0 0,0.18 0,15.762 c 0,0.598 0.434,1.044 1.161,1.193 l 2.52,0.519 0.217,0.044 0,-0.221 0,-6.153 c 0.821,0.654 1.868,1.011 2.991,1.011 l 0.024,0 c 1.39,0 2.512,-0.495 3.244,-1.432 0.662,-0.836 1,-1.986 1.001,-3.417 l 0,-6.289 C 1.196,0.537 0.659,0 0,0"
             style="fill:#ffffff;fill-opacity:1;fill-rule:nonzero;stroke:none"
             id="path3367" />
        </g>
        <g
           id="g3369"
           transform="translate(553.551,446.6667)">
          <path
             inkscape:connector-curvature="0"
             d="m 0,0 -2.521,0 -0.18,0 0,0.18 0,6.302 C -2.7,7.118 -2.724,7.833 -2.912,8.323 -3.119,8.813 -3.344,9.051 -4.058,9.07 -4.79,9.063 -5.265,8.759 -5.64,8.052 -5.881,7.576 -6.037,6.896 -6.066,6.187 l 0,-5.995 L -6.067,0.012 -6.254,0 l -3.528,0 -0.181,0 0,0.18 0,15.762 c 0,0.598 0.435,1.044 1.162,1.193 l 2.521,0.519 0.215,0.044 0,-0.221 0,-6.153 c 0.822,0.655 1.869,1.011 2.992,1.011 l 0.023,0 c 1.39,0 2.513,-0.495 3.245,-1.432 0.663,-0.837 1,-1.987 1.001,-3.417 l 0,-6.289 C 1.196,0.537 0.659,0 0,0"
             style="fill:#ffffff;fill-opacity:1;fill-rule:nonzero;stroke:none"
             id="path3371" />
        </g>
        <g
           id="g3373"
           transform="translate(507.092,449.484)">
          <path
             inkscape:connector-curvature="0"
             d="m 0,0 c -1.766,0 -2.61,1.314 -2.643,3.267 0.028,1.968 1.011,3.149 2.584,3.16 C 0.973,6.434 1.496,6.154 2.169,5.871 L 2.514,8.868 C 1.617,9.17 0.545,9.33 -0.637,9.33 -2.447,9.333 -3.89,8.656 -4.856,7.548 -5.823,6.446 -6.312,4.938 -6.317,3.282 c -0.002,-0.017 0.001,-0.018 0,-0.022 -10e-4,-1.738 0.471,-3.28 1.445,-4.394 0.972,-1.117 2.441,-1.77 4.321,-1.77 l 0.013,0 c 1.289,0 2.529,0.174 3.223,0.462 L 2.519,0.668 C 1.749,0.403 0.934,0 0,0"
             style="fill:#1b4a96;fill-opacity:1;fill-rule:nonzero;stroke:none"
             id="path3375" />
        </g>
        <g
           id="g3377"
           transform="translate(496.0813,455.9228)">
          <path
             inkscape:connector-curvature="0"
             d="m 0,0 c -0.836,0.341 -1.641,0.607 -2.21,0.921 -0.576,0.324 -0.862,0.633 -0.864,1.098 0,0 0,0.003 10e-4,0.014 0.006,0.723 0.272,1.116 0.649,1.38 0.381,0.261 0.905,0.367 1.379,0.37 0.997,0 2.084,-0.315 3.322,-0.798 L 2.641,6.163 C 1.494,6.577 0.012,6.812 -1.303,6.812 -2.673,6.811 -4.051,6.5 -5.111,5.717 -6.172,4.942 -6.879,3.674 -6.874,1.919 l 0,-0.001 c -0.001,-0.012 0,-0.016 0,-0.018 l 0,-10e-4 0,0 c -0.009,-2.651 1.832,-3.732 3.485,-4.4 0.833,-0.342 1.612,-0.662 2.2,-0.956 1.239,-0.617 1.023,-1.997 0.13,-2.441 -0.473,-0.235 -1.071,-0.415 -1.582,-0.414 -1.109,-10e-4 -2.226,0.34 -3.67,1.117 l -0.362,-3.473 c 0.835,-0.219 2.535,-0.675 4.185,-0.675 l 0.016,0 c 1.557,0.003 3.029,0.316 4.139,1.096 1.111,0.774 1.818,2.253 1.818,3.782 C 3.485,-1.918 1.657,-0.667 0,0"
             style="fill:#1b4a96;fill-opacity:1;fill-rule:nonzero;stroke:none"
             id="path3379" />
        </g>
        <g
           id="g3381"
           transform="translate(564.0882,450.5366)">
          <path
             inkscape:connector-curvature="0"
             d="m 0,0 c -0.378,-0.638 -0.94,-1.045 -1.934,-1.055 -0.98,0.01 -1.536,0.421 -1.912,1.063 C -4.218,0.652 -4.36,1.547 -4.36,2.429 -4.342,3.98 -3.557,5.373 -1.929,5.374 -0.273,5.369 0.498,4.027 0.52,2.428 0.518,1.535 0.374,0.64 0,0 M 2.429,6.622 C 1.325,7.695 -0.213,8.278 -1.928,8.278 -3.634,8.278 -5.166,7.694 -6.27,6.622 -7.373,5.549 -8.034,3.991 -8.036,2.098 -8.037,2.093 -8.037,2.088 -8.037,2.083 c 0,-1.662 0.558,-3.173 1.608,-4.271 1.052,-1.102 2.596,-1.77 4.495,-1.769 l 0.006,0 c 1.906,0 3.452,0.669 4.507,1.769 1.056,1.097 1.615,2.611 1.616,4.274 l 0,0.004 C 4.196,3.987 3.535,5.548 2.429,6.622 z"
             style="fill:#1b4a96;fill-opacity:1;fill-rule:nonzero;stroke:none"
             id="path3383" />
        </g>
        <g
           id="g3385"
           transform="translate(533.9515,447.8067)">
          <path
             inkscape:connector-curvature="0"
             d="m 0,0 c 0.921,-0.895 1.917,-1.155 3.007,-1.146 1.795,-0.006 3.071,0.743 3.854,1.883 0.784,1.138 1.099,2.64 1.101,4.187 L 7.961,4.927 C 7.96,6.481 7.647,7.966 6.87,9.085 6.098,10.206 4.839,10.93 3.078,10.925 1.733,10.929 0.715,10.461 0.007,9.734 l 0.002,1.02 -3.427,0 0,-16.133 2.401,0 C -0.455,-5.379 0,-4.924 0,-4.363 L 0,0 z M 3.901,2.718 C 3.555,2.083 3.091,1.687 2.28,1.676 1.449,1.686 0.957,2.083 0.591,2.708 0.241,3.323 0.089,4.158 0.086,4.889 l 0.001,0.004 0,0.031 C 0.086,5.642 0.263,6.472 0.635,7.086 1.015,7.701 1.532,8.098 2.327,8.104 3.125,8.096 3.58,7.701 3.918,7.078 4.238,6.463 4.366,5.629 4.365,4.934 l 0,-0.006 c 0,-0.004 0,-0.01 10e-4,-0.017 0,-0.721 -0.132,-1.567 -0.465,-2.193"
             style="fill:#1b4a96;fill-opacity:1;fill-rule:nonzero;stroke:none"
             id="path3387" />
        </g>
        <g
           id="g3389"
           transform="translate(527.1082,446.8471)">
          <path
             inkscape:connector-curvature="0"
             d="m 0,0 c 0.562,0 1.016,0.455 1.016,1.017 l 0,10.697 -3.537,0 L -2.521,0 0,0 z"
             style="fill:#1b4a96;fill-opacity:1;fill-rule:nonzero;stroke:none"
             id="path3391" />
        </g>
        <g
           id="g3393"
           transform="translate(525.6038,462.6617)">
          <path
             inkscape:connector-curvature="0"
             d="m 0,0 c -0.569,-0.117 -1.017,-0.455 -1.017,-1.017 l 0,-1.886 3.538,0 0,3.422 L 0,0 z"
             style="fill:#1b4a96;fill-opacity:1;fill-rule:nonzero;stroke:none"
             id="path3395" />
        </g>
        <g
           id="g3397"
           transform="translate(570.8466,463.7269)">
          <path
             inkscape:connector-curvature="0"
             d="m 0,0 c -0.569,-0.117 -1.017,-0.455 -1.017,-1.017 l 0,-15.863 2.521,0 c 0.562,0 1.017,0.455 1.017,1.017 l 0,16.382 L 0,0 z"
             style="fill:#1b4a96;fill-opacity:1;fill-rule:nonzero;stroke:none"
             id="path3399" />
        </g>
        <g
           id="g3401"
           transform="translate(518.7021,453.1481)">
          <path
             inkscape:connector-curvature="0"
             d="m 0,0 0,-6.301 2.521,0 c 0.561,0 1.016,0.455 1.016,1.017 l 0,6.288 C 3.536,2.3 3.248,3.46 2.575,4.311 1.902,5.172 0.841,5.677 -0.546,5.673 -1.811,5.675 -2.923,5.214 -3.723,4.446 l 0,6.55 -2.522,-0.519 C -6.814,10.36 -7.261,10.022 -7.261,9.461 l 0,-15.762 3.527,0 0,0.012 0.009,0 10e-4,6.003 c 0.024,0.614 0.151,1.359 0.447,1.941 0.35,0.661 0.835,1.105 1.745,1.113 C -0.725,2.747 -0.449,2.444 -0.223,1.906 -0.025,1.393 0.002,0.658 0,0"
             style="fill:#1b4a96;fill-opacity:1;fill-rule:nonzero;stroke:none"
             id="path3403" />
        </g>
        <g
           id="g3405"
           transform="translate(551.03,453.1481)">
          <path
             inkscape:connector-curvature="0"
             d="m 0,0 0,-6.301 2.521,0 c 0.561,0 1.016,0.455 1.016,1.017 l 0,6.288 C 3.536,2.3 3.248,3.46 2.574,4.311 1.902,5.172 0.841,5.677 -0.546,5.673 -1.811,5.675 -2.923,5.214 -3.723,4.446 l 0,6.55 -2.522,-0.519 C -6.814,10.36 -7.261,10.022 -7.261,9.461 l 0,-15.762 3.527,0 0,0.012 0.009,0 0,6.003 c 0.025,0.614 0.151,1.359 0.448,1.941 0.35,0.661 0.835,1.105 1.744,1.113 0.808,-0.021 1.084,-0.324 1.31,-0.862 C -0.025,1.393 0.001,0.658 0,0"
             style="fill:#1b4a96;fill-opacity:1;fill-rule:nonzero;stroke:none"
             id="path3407" />
        </g>
      </g>
    </g>
  </g>
</svg>
