<svg width="108" height="28" viewBox="0 0 108 28" fill="none" xmlns="http://www.w3.org/2000/svg">
<path fill-rule="evenodd" clip-rule="evenodd" d="M8.72932 18.5433C9.87534 18.5433 10.7704 17.9553 10.7704 17.9553L11.6682 21.5314C11.6682 21.5314 10.3913 22.3216 8.24855 22.3216C6.07447 22.3216 2.9081 21.5421 2.9081 15.9281V8.83904H0V5.08984H2.9081V2.52056L6.93258 0V5.08984H10.7704V8.83904H6.93258V15.386C6.93258 17.4132 7.2708 18.5433 8.72932 18.5433ZM17.1646 11.331C17.6907 9.80332 19.1464 8.50524 21.3171 8.50524C23.2944 8.50524 24.5674 9.78372 24.9671 11.331H17.1646ZM21.2278 4.73346C16.5621 4.73346 12.872 8.50506 12.872 13.3552C12.872 18.5251 16.3872 22.3034 21.9171 22.3034C26.1099 22.3034 28.1543 20.5534 28.1543 20.5534L27.1922 16.7639C27.1922 16.7639 24.9398 18.5755 22.1312 18.5755C17.546 18.5755 16.9948 14.7659 16.9948 14.7659H28.8508C29.7095 9.34169 26.8886 4.73346 21.2278 4.73346ZM87.449 8.50524C85.2788 8.50524 83.8231 9.80332 83.297 11.331H91.0989C90.6992 9.78372 89.4268 8.50524 87.449 8.50524ZM79.0044 13.3552C79.0044 8.50506 82.694 4.73346 87.3603 4.73346C93.021 4.73346 95.8419 9.34169 94.9833 14.7659H83.1273C83.1273 14.7659 83.6785 18.5755 88.2637 18.5755C91.0723 18.5755 93.3246 16.7639 93.3246 16.7639L94.2867 20.5534C94.2867 20.5534 92.2423 22.3034 88.0496 22.3034C82.5196 22.3034 79.0044 18.5251 79.0044 13.3552ZM105.595 8.48133H107.852V4.93093C107.275 4.80381 106.679 4.73773 106.075 4.73773C102.31 4.73773 100.137 6.52973 98.0896 8.56253V21.9639H102.129V9.62597C102.129 9.62597 103.55 8.48133 105.595 8.48133ZM60.3603 8.5624C62.4086 6.53016 64.581 4.73816 68.3467 4.73816C72.6596 4.73816 76.5343 8.07743 76.5343 13.4652C76.5343 17.892 73.5278 22.3188 67.8659 22.3188V18.6357C70.3804 18.6357 72.4634 16.805 72.4634 13.6814C72.4634 10.6736 70.5811 8.48119 67.8659 8.48119C65.8204 8.48119 64.3999 9.62639 64.3999 9.62639V28H60.3603V8.5624ZM47.4666 5.31677C49.7033 4.54957 52.6712 4.36925 54.9733 5.88573C56.5247 6.90773 57.3811 8.71149 57.3811 10.5718V21.9751H53.3449V12.0922C53.3449 9.81413 52.9345 8.46285 50.4686 8.46285C47.9116 8.46285 46.5822 9.62653 46.5822 9.62653V21.9751H42.546V12.0922C42.546 9.81413 42.1357 8.46285 39.6698 8.46285C37.1122 8.46285 35.7828 9.62653 35.7828 9.62653V21.9751H31.7471V8.60117C31.7471 8.60117 33.5668 6.38077 36.6678 5.31677C39.1784 4.45549 42.6058 4.34237 44.984 6.52973C45.68 6.08173 46.5118 5.64437 47.4666 5.31677Z" fill="#00FF86"/>
</svg>
