<?xml version="1.0" encoding="utf-8"?>
<!-- Generator: Adobe Illustrator 16.0.0, SVG Export Plug-In . SVG Version: 6.00 Build 0)  -->
<!DOCTYPE svg PUBLIC "-//W3C//DTD SVG 1.1//EN" "http://www.w3.org/Graphics/SVG/1.1/DTD/svg11.dtd">
<svg version="1.1" id="Layer_1" xmlns="http://www.w3.org/2000/svg" xmlns:xlink="http://www.w3.org/1999/xlink" x="0px" y="0px"
	 width="507px" height="100px" viewBox="0 0 213 42" enable-background="new 0 0 213 42" xml:space="preserve">
<g id="Layer_1_1_">
	<g opacity="0.2">
		<path d="M73.933,30.57c0,0-1.125,0.373-2.965,0.373c-2.904,0-4.402-1.903-4.402-4.809v-6.741h-2.341v-3.682h2.341v-5.025h3.84
			v5.025h3.932v3.682h-3.932v5.931c0,1.028,0.28,1.993,1.652,1.993c0.968,0,1.875-0.158,1.875-0.158V30.57z"/>
		<path d="M76.989,10.812c0-1.373,1.061-2.402,2.438-2.402c1.373,0,2.402,1.03,2.402,2.402s-1.029,2.434-2.402,2.434
			C78.049,13.245,76.989,12.184,76.989,10.812z M77.49,30.54V15.712h3.84V30.54H77.49z"/>
		<path d="M97.696,27.292c-1.374,2.187-3.871,3.651-6.708,3.651c-4.372,0-7.867-3.495-7.867-7.772c0-4.308,3.495-7.739,7.867-7.739
			c2.807,0,5.241,1.403,6.646,3.528l-3.277,1.904c-0.749-1.062-1.966-1.747-3.369-1.747c-2.249,0-4.091,1.867-4.091,4.054
			c0,2.218,1.842,4.09,4.091,4.09c1.465,0,2.746-0.754,3.461-1.903L97.696,27.292z"/>
		<path d="M108.964,30.54l-5.868-6.619v6.619h-3.841V7.441h3.841v14.015l5.371-5.744h4.93l-6.49,6.772l7.115,8.056H108.964z"/>
		<path d="M116.607,24.391c0.437,1.809,1.901,3.088,4.119,3.088c1.348,0,2.777-0.5,3.65-1.65L127,27.914
			c-1.346,1.91-3.715,3.031-6.243,3.031c-4.464,0-7.897-3.34-7.897-7.682c0-4.212,2.967-7.832,7.681-7.832
			c4.362,0,7.456,3.559,7.456,7.739c0,0.409-0.028,0.843-0.092,1.22H116.607z M124.131,21.581c-0.221-1.5-1.777-2.654-3.627-2.654
			c-1.773,0-3.212,1.061-3.771,2.654H124.131z"/>
		<path d="M138.329,30.57c0,0-1.123,0.373-2.963,0.373c-2.903,0-4.401-1.903-4.401-4.809v-6.741h-2.34v-3.682h2.34v-5.025h3.837
			v5.025h3.935v3.682h-3.935v5.931c0,1.028,0.284,1.993,1.661,1.993c0.962,0,1.866-0.158,1.866-0.158V30.57z"/>
		<path d="M142.725,25.919c1.375,1.183,3.026,1.529,4.088,1.529c1.375,0,1.81-0.564,1.81-1.095c0-2.217-7.521-0.842-7.521-6.181
			c0-2.713,1.937-4.742,5.239-4.742c1.313,0,3.718,0.311,5.402,1.872l-2.028,2.745c-1.312-0.902-2.527-1.122-3.344-1.122
			c-1.275,0-1.53,0.562-1.53,0.937c0,2.091,7.431,1.091,7.431,6.366c0,2.715-1.967,4.715-5.709,4.715
			c-2.752,0-4.524-1.061-5.869-2.09L142.725,25.919z"/>
		<path d="M168.583,30.54l-3.334-9.461l-3.215,9.461h-3.995l-5.275-14.828h4.305l2.998,9.738l3.496-9.738h3.371l3.434,9.738
			l3.029-9.738h4.336l-5.334,14.828H168.583z"/>
		<path d="M189.669,30.54v-0.97c-1.183,0.97-2.588,1.373-4.114,1.373c-4.373,0-7.865-3.495-7.865-7.772
			c0-4.308,3.492-7.739,7.865-7.739c1.495,0,2.902,0.405,4.114,1.37v-1.089h3.845V30.54H189.669z M185.555,19.117
			c-2.248,0-4.09,1.867-4.09,4.054c0,2.218,1.842,4.09,4.09,4.09c2.278,0,4.114-1.872,4.114-4.09
			C189.669,20.984,187.833,19.117,185.555,19.117z"/>
		<path d="M196.07,38.434V15.712h3.842v1.089c1.188-0.965,2.595-1.37,4.122-1.37c4.37,0,7.864,3.432,7.864,7.739
			c0,4.277-3.494,7.773-7.864,7.773c-1.527,0-2.935-0.404-4.122-1.373v8.861h-3.842V38.434z M199.912,23.359
			c0.095,2.123,1.904,3.9,4.122,3.9c2.249,0,4.085-1.873,4.085-4.09c0-2.188-1.836-4.054-4.085-4.054
			c-2.218,0-4.027,1.807-4.122,3.897V23.359z"/>
		<path d="M29.277,24.061c-1.903,1.898-4.986,1.898-6.888,0l0,0L11.193,12.863c-1.424-1.427-3.737-1.427-5.167,0L0,18.892
			l13.778,13.771c6.658,6.663,17.453,6.663,24.108,0c0.586-0.576,1.12-1.197,1.599-1.843l-8.948-8.95
			C30.321,22.671,29.905,23.428,29.277,24.061z"/>
		<path d="M37.886,8.558c-6.655-6.655-17.455-6.655-24.108,0c-0.583,0.586-1.115,1.207-1.597,1.847l8.948,8.951
			c0.216-0.801,0.633-1.556,1.26-2.188v-0.001c1.902-1.9,4.985-1.9,6.888,0.001l0,0l11.19,11.191c1.43,1.431,3.744,1.431,5.167,0
			l6.029-6.026L37.886,8.558z"/>
	</g>
	<g>
		<g>
			<path fill="#FFFFFF" d="M73.933,29.57c0,0-1.125,0.373-2.965,0.373c-2.904,0-4.402-1.903-4.402-4.809v-6.741h-2.341v-3.682h2.341
				V9.687h3.84v5.025h3.932v3.682h-3.932v5.931c0,1.028,0.28,1.993,1.652,1.993c0.968,0,1.875-0.158,1.875-0.158V29.57z"/>
			<path fill="#FFFFFF" d="M76.989,9.812c0-1.373,1.061-2.402,2.438-2.402c1.373,0,2.402,1.03,2.402,2.402s-1.029,2.434-2.402,2.434
				C78.049,12.245,76.989,11.184,76.989,9.812z M77.49,29.54V14.712h3.84V29.54H77.49z"/>
			<path fill="#FFFFFF" d="M97.696,26.292c-1.374,2.187-3.871,3.651-6.708,3.651c-4.372,0-7.867-3.495-7.867-7.772
				c0-4.308,3.495-7.739,7.867-7.739c2.807,0,5.241,1.403,6.646,3.528l-3.277,1.904c-0.749-1.062-1.966-1.747-3.369-1.747
				c-2.249,0-4.091,1.868-4.091,4.054c0,2.218,1.842,4.09,4.091,4.09c1.465,0,2.746-0.754,3.461-1.903L97.696,26.292z"/>
			<path fill="#FFFFFF" d="M108.964,29.54l-5.868-6.619v6.619h-3.841V6.441h3.841v14.015l5.371-5.744h4.93l-6.49,6.772l7.115,8.056
				H108.964z"/>
			<path fill="#FFFFFF" d="M116.607,23.391c0.437,1.809,1.901,3.088,4.119,3.088c1.348,0,2.777-0.5,3.65-1.65L127,26.914
				c-1.346,1.91-3.715,3.031-6.243,3.031c-4.464,0-7.897-3.34-7.897-7.682c0-4.212,2.967-7.832,7.681-7.832
				c4.362,0,7.456,3.559,7.456,7.739c0,0.409-0.028,0.843-0.092,1.22H116.607z M124.131,20.581c-0.221-1.5-1.777-2.654-3.627-2.654
				c-1.773,0-3.212,1.061-3.771,2.654H124.131z"/>
			<path fill="#FFFFFF" d="M138.329,29.57c0,0-1.123,0.373-2.963,0.373c-2.903,0-4.401-1.903-4.401-4.809v-6.741h-2.34v-3.682h2.34
				V9.687h3.837v5.025h3.935v3.682h-3.935v5.931c0,1.028,0.284,1.993,1.661,1.993c0.962,0,1.866-0.158,1.866-0.158V29.57z"/>
			<path fill="#FFFFFF" d="M142.725,24.919c1.375,1.183,3.026,1.529,4.088,1.529c1.375,0,1.81-0.564,1.81-1.095
				c0-2.217-7.521-0.842-7.521-6.181c0-2.713,1.937-4.742,5.239-4.742c1.313,0,3.718,0.311,5.402,1.872l-2.028,2.745
				c-1.312-0.902-2.527-1.122-3.344-1.122c-1.275,0-1.53,0.562-1.53,0.937c0,2.091,7.431,1.091,7.431,6.366
				c0,2.715-1.967,4.715-5.709,4.715c-2.752,0-4.524-1.061-5.869-2.09L142.725,24.919z"/>
			<path fill="#FFFFFF" d="M168.583,29.54l-3.334-9.461l-3.215,9.461h-3.995l-5.275-14.828h4.305l2.998,9.738l3.496-9.738h3.371
				l3.434,9.738l3.029-9.738h4.336l-5.334,14.828H168.583z"/>
			<path fill="#FFFFFF" d="M189.669,29.54v-0.97c-1.183,0.97-2.588,1.373-4.114,1.373c-4.373,0-7.865-3.495-7.865-7.772
				c0-4.308,3.492-7.739,7.865-7.739c1.495,0,2.902,0.405,4.114,1.37v-1.089h3.845V29.54H189.669z M185.555,18.117
				c-2.248,0-4.09,1.868-4.09,4.054c0,2.218,1.842,4.09,4.09,4.09c2.278,0,4.114-1.872,4.114-4.09
				C189.669,19.984,187.833,18.117,185.555,18.117z"/>
			<path fill="#FFFFFF" d="M196.07,37.434V14.712h3.842v1.089c1.188-0.965,2.595-1.37,4.122-1.37c4.37,0,7.864,3.432,7.864,7.739
				c0,4.277-3.494,7.773-7.864,7.773c-1.527,0-2.935-0.404-4.122-1.373v8.861h-3.842V37.434z M199.912,22.359
				c0.095,2.123,1.904,3.9,4.122,3.9c2.249,0,4.085-1.873,4.085-4.09c0-2.187-1.836-4.054-4.085-4.054
				c-2.218,0-4.027,1.807-4.122,3.897V22.359z"/>
		</g>
		<g>
			<path fill="#FFFFFF" d="M29.277,23.061c-1.903,1.898-4.986,1.898-6.888,0l0,0L11.193,11.863c-1.424-1.427-3.737-1.427-5.167,0
				L0,17.892l13.778,13.771c6.658,6.663,17.453,6.663,24.108,0c0.586-0.576,1.12-1.197,1.599-1.843l-8.948-8.951
				C30.321,21.671,29.905,22.428,29.277,23.061z"/>
			<path fill="#FFFFFF" d="M37.886,7.558c-6.655-6.655-17.455-6.655-24.108,0c-0.583,0.586-1.115,1.207-1.597,1.847l8.948,8.951
				c0.216-0.801,0.633-1.556,1.26-2.188v-0.001c1.902-1.9,4.985-1.9,6.888,0.001l0,0l11.19,11.191c1.43,1.431,3.744,1.431,5.167,0
				l6.029-6.026L37.886,7.558z"/>
		</g>
	</g>
</g>
</svg>
