<?xml version="1.0" encoding="UTF-8" standalone="no"?>
<svg width="89px" height="91px" viewBox="0 0 89 91" version="1.1" xmlns="http://www.w3.org/2000/svg" xmlns:xlink="http://www.w3.org/1999/xlink" xmlns:sketch="http://www.bohemiancoding.com/sketch/ns">
    <!-- Generator: Sketch 3.4.1 (15681) - http://www.bohemiancoding.com/sketch -->
    <title>TMG 24/7 logo</title>
    <desc>Created with Sketch.</desc>
    <defs></defs>
    <g id="Page-1" stroke="none" stroke-width="1" fill="none" fill-rule="evenodd" sketch:type="MSPage">
        <g id="TMG-24/7-logo" sketch:type="MSLayerGroup">
            <path d="M39.5790417,79.3857149 C17.7213833,79.3857149 0,61.6552627 0,39.7806173 C0,17.9011479 17.7213833,0.173293175 39.5790417,0.173293175 C61.4418917,0.173293175 79.1580833,17.9011479 79.1580833,39.7806173 C79.1580833,61.6552627 61.4418917,79.3857149 39.5790417,79.3857149 Z" id="Fill-1" fill="#007FC5" sketch:type="MSShapeGroup"></path>
            <path d="M69.7300167,31.851063 C66.8037708,31.851063 66.0609917,34.3328291 66.0609917,34.3328291 L65.9923875,34.3328291 C65.9923875,34.3328291 64.651825,31.851063 60.5912,31.851063 C55.5352583,31.851063 52.8200167,35.7774336 52.8200167,40.593648 C52.8200167,42.4501486 53.2487,44.1934705 54.0548917,45.6403015 C53.7830708,46.5405354 52.8715625,47.1806441 51.8884833,47.1806441 C50.4058917,47.1806441 49.5555708,46.5182708 49.5555708,44.4658413 L49.5555708,38.5311995 C49.5555708,33.9183355 47.4577667,31.851063 43.8135875,31.851063 C41.02455,31.851063 38.7576458,33.5724913 37.8264833,35.4635021 L37.7578792,35.4635021 C36.9980417,33.091946 35.2825667,31.851063 32.6333333,31.851063 C29.8813792,31.851063 27.783575,33.7810369 26.9599542,35.5024652 L26.89135,35.5024652 C26.89135,35.5024652 26.89135,31.8436414 22.7250375,31.8436414 L13.748275,31.8436414 L13.748275,27.2727092 L9.4840625,27.2727092 L9.4840625,31.8436414 L7.10924583,31.8436414 L7.10924583,35.5614665 L9.37874583,35.5614665 L9.37874583,43.3819241 C9.37874583,49.2698102 14.2285042,49.9934112 16.6697,49.9934112 C17.4584625,49.9934112 18.0150833,49.8902517 18.0150833,49.8902517 L18.0150833,46.0670406 C18.0150833,46.0670406 17.7035833,46.1382875 17.2185333,46.1382875 C16.0151792,46.1382875 13.748275,45.7237939 13.748275,42.8301319 L13.748275,35.5614665 L22.7250375,35.5614665 L22.7250375,49.8193759 L27.0630458,49.8193759 L27.0630458,42.1069019 C27.0630458,41.3194755 27.1635417,40.593648 27.3374625,39.9071547 C27.8862958,37.6680733 29.3640667,35.8408879 31.5697833,35.8408879 C33.6675875,35.8408879 33.9420042,37.4595278 33.9420042,39.3553625 L33.9420042,49.8193759 L38.3115333,49.8193759 L38.3115333,42.1069019 C38.3115333,41.2875629 38.3779125,40.5617354 38.583725,39.8726445 C39.06655,37.6680733 40.6155208,35.8408879 42.7841542,35.8408879 C44.8133542,35.8408879 45.1882667,37.3563682 45.1882667,39.3553625 L45.1882667,45.3905664 C45.2865375,48.7573522 47.9480083,50.7415034 51.0578167,50.7415034 C53.3517917,50.7415034 55.2486042,49.3826177 56.1404583,48.2252271 L56.2339083,48.0975765 C57.4346667,48.9633002 58.9269,49.4761293 60.6939208,49.4761293 C63.0346208,49.4761293 64.5465083,48.6838789 65.5807625,47.2025376 L65.6467708,47.2025376 C65.6467708,47.2025376 65.6126542,48.2204031 65.6126542,48.6322991 L65.6126542,49.4564621 C65.6126542,52.622124 63.3090375,53.7602186 60.664625,53.7602186 C57.9786792,53.7602186 55.809675,52.5879849 55.809675,52.5879849 L54.4717083,56.0312126 C56.1552917,56.9236539 58.4982167,57.546693 60.6939208,57.546693 C65.2696333,57.546693 69.9480667,55.2731014 69.9480667,49.2501431 L69.9480667,35.5662905 L72.0480958,35.5662905 L72.0480958,31.851063 L69.7300167,31.851063 L69.7300167,31.851063 Z M61.6228583,45.7950408 C58.8019292,45.7950408 57.25815,43.5166252 57.25815,40.4563494 C57.25815,37.498862 58.6992083,35.5688881 61.3484417,35.5688881 C63.7232583,35.5688881 65.7179708,36.6357358 65.7179708,40.6255607 C65.7179708,44.5908944 63.7232583,45.7950408 61.6228583,45.7950408 L61.6228583,45.7950408 Z" id="Fill-2" fill="#FFFFFF" sketch:type="MSShapeGroup"></path>
            <path d="M50.6706667,87.3649936 C57.362725,87.3649936 62.7887583,81.9350171 62.7887583,75.2392954 C62.7887583,68.5428315 57.362725,63.1124839 50.6706667,63.1124839 C43.9789792,63.1124839 38.552575,68.5428315 38.552575,75.2392954 C38.552575,81.9350171 43.9789792,87.3649936 50.6706667,87.3649936" id="Fill-3" fill="#FFFFFF" sketch:type="MSShapeGroup"></path>
            <path d="M74.6836083,87.3649936 C80.7100208,87.3649936 85.5961208,82.4749348 85.5961208,76.444926 C85.5961208,70.4145462 80.7100208,65.5244874 74.6836083,65.5244874 C68.656825,65.5244874 63.770725,70.4145462 63.770725,76.444926 C63.770725,82.4749348 68.656825,87.3649936 74.6836083,87.3649936" id="Fill-4" fill="#FFFFFF" sketch:type="MSShapeGroup"></path>
            <path d="M46.6282125,77.8969522 C47.5248875,76.7885438 49.0419667,75.5843974 49.0419667,74.0737411 C49.0419667,72.6907354 47.9661792,71.7908725 46.6597333,71.7908725 C45.1723208,71.7908725 44.1087708,72.9211745 44.1087708,74.2114108 C44.1087708,74.6010421 44.37095,75.0352028 44.9197833,75.0352028 C45.9959417,75.0352028 45.4248583,73.4388275 46.5544167,73.4388275 C46.9664125,73.4388275 47.2089375,73.6399515 47.2089375,74.1475855 C47.2089375,74.9075521 45.7311667,76.4501211 45.2998875,76.9455095 C44.9616875,77.3258639 44.0034542,78.0980761 44.0034542,78.7307632 C44.0034542,79.1749429 44.4028417,79.4814529 44.9713292,79.4814529 L48.4197083,79.4814529 C48.9488875,79.4814529 49.2110667,79.079205 49.2110667,78.6892025 C49.2110667,78.2992001 48.9488875,77.8969522 48.4197083,77.8969522 L46.6282125,77.8969522 L46.6282125,77.8969522 Z M52.850425,78.6157292 C52.850425,79.2165036 53.166375,79.5449072 53.67145,79.5449072 C54.17875,79.5449072 54.4947,79.2165036 54.4947,78.5934646 L54.4947,77.8969522 L54.8525542,77.8969522 C55.3795083,77.8969522 55.7177083,77.6642866 55.7177083,77.1369855 C55.7177083,76.6096844 55.3795083,76.3766478 54.8525542,76.3766478 L54.4947,76.3766478 L54.4947,73.1861238 C54.4947,72.4261571 54.00965,71.898856 53.2301583,71.898856 C52.6909667,71.898856 52.3234708,72.0239092 52.0171625,72.4996305 L49.5077333,76.3862958 C49.3801667,76.5777718 49.179175,76.8939298 49.179175,77.2201069 C49.179175,77.5073208 49.3901792,77.8969522 50.0346875,77.8969522 L52.850425,77.8969522 L52.850425,78.6157292 L52.850425,78.6157292 Z M52.850425,76.3766478 L51.2673375,76.3766478 L52.828175,73.6815122 L52.850425,73.6815122 L52.850425,76.3766478 L52.850425,76.3766478 Z" id="Fill-5" fill="#007FC5" sketch:type="MSShapeGroup"></path>
            <path d="M73.0842042,77.9604064 C72.9566375,78.2253557 72.8097875,78.499953 72.8097875,78.7745504 C72.8097875,79.1107465 73.1160958,79.5445361 73.6526917,79.5445361 C74.2434292,79.5445361 74.4221708,79.1545337 74.6135208,78.7303921 L77.0076208,73.556088 C77.1448292,73.249578 77.2505167,73.0287869 77.2505167,72.7738567 C77.2505167,72.3935023 76.9219583,71.9619392 76.3631125,71.9619392 L72.9054625,71.9619392 C72.3785083,71.9619392 72.1137333,72.3619607 72.1137333,72.7541896 C72.1137333,73.144192 72.3785083,73.54644 72.9054625,73.54644 L75.1820083,73.54644 L73.0842042,77.9604064" id="Fill-6" fill="#007FC5" sketch:type="MSShapeGroup"></path>
            <path d="M88.4144542,76.4452971 C88.4144542,68.602946 82.0672708,62.2437915 74.237125,62.2437915 C73.9234,62.2437915 73.6122708,62.2560371 73.3033667,62.2757042 L73.1880375,62.2831257 C73.1071958,62.2879497 73.0263542,62.2979688 72.9455125,62.3053904 C68.7402625,62.6976193 65.056775,64.9266816 62.7064333,68.1836285 L62.6330083,68.2864169 L62.5569875,68.396998 C62.3070458,68.7595407 62.0719375,69.1350711 61.8561125,69.5198784 L61.8535167,69.5150544 C60.7017083,71.5504143 60.0353208,73.8948817 60.0108458,76.3914909 L60.0108458,76.4452971 C60.0108458,82.2719555 55.2957,86.9976269 49.4776958,86.9976269 C43.6596917,86.9976269 38.94195,82.2719555 38.94195,76.4452971 C38.94195,70.6186388 43.6596917,65.8929673 49.4776958,65.8929673 C54.3178125,65.8929673 58.390675,69.1643862 59.6259208,73.6176869 C59.9641208,71.9111016 60.5941667,70.3047073 61.4615458,68.8578762 C58.9472958,64.8851209 54.5210292,62.2437915 49.4776958,62.2437915 C41.64755,62.2437915 35.3003667,68.602946 35.3003667,76.4452971 C35.3003667,84.2876482 41.64755,90.6468027 49.4776958,90.6468027 C54.7954458,90.6468027 59.4397625,87.7234545 61.8657542,83.3829614 L61.8657542,83.3855589 C63.0201583,81.3375824 63.6843208,78.9760454 63.6991542,76.4623667 L63.7013792,76.4623667 L63.7013792,76.4452971 C63.7013792,70.6186388 68.4191208,65.8929673 74.237125,65.8929673 C80.0551292,65.8929673 84.770275,70.6186388 84.770275,76.4452971 C84.770275,82.2719555 80.0551292,86.9976269 74.237125,86.9976269 C69.3970083,86.9976269 65.32155,83.726208 64.0889,79.2729074 C63.752925,80.9846877 63.125475,82.5933085 62.2603208,84.0427371 C64.7749417,88.0102973 69.1960167,90.6468027 74.237125,90.6468027 C82.0672708,90.6468027 88.4144542,84.2876482 88.4144542,76.4452971" id="Fill-7" fill="#007FC5" sketch:type="MSShapeGroup"></path>
        </g>
    </g>
</svg>