<svg xmlns="http://www.w3.org/2000/svg" viewBox="0 0 400 400"><defs><style>.cls-2,.cls-3{fill:#fff}.cls-2{fill-rule:evenodd}</style></defs><g id="Layer_2" data-name="Layer 2"><g id="Layer_1-2" data-name="Layer 1"><circle cx="200" cy="200" r="200" fill="#00a5c9"/><path class="cls-2" d="M67.39 190.66H78v21q0 5.9.81 8.17a7.08 7.08 0 002.61 3.56 7.42 7.42 0 004.42 1.27 7.68 7.68 0 004.46-1.25 7.29 7.29 0 002.72-3.67q.66-1.82.66-7.74v-21.34h10.52v18.55q0 11-1.74 15a16.37 16.37 0 01-6.24 7.56 19.1 19.1 0 01-10.48 2.64q-6.88 0-11.15-3.08a16.2 16.2 0 01-6-8.58q-1.25-3.81-1.24-13.85v-18.24m69.27 6.88l-6.45 6.46c-2.62-2.61-5-3.9-7.14-3.9a4.47 4.47 0 00-2.75.74 2.26 2.26 0 00-1 1.86 2.3 2.3 0 00.63 1.55 11.8 11.8 0 003.11 1.93l3.82 1.91c4 2 6.78 4 8.28 6.08a12.71 12.71 0 01-1.81 16.53q-4.06 3.71-10.9 3.71a17.3 17.3 0 01-14.51-7.12l6.42-7a14.77 14.77 0 004.29 3.46 9.49 9.49 0 004.37 1.32 5.23 5.23 0 003.32-1 2.88 2.88 0 001.26-2.3q0-2.4-4.54-4.7l-3.51-1.76q-10.08-5.09-10.08-12.74a11 11 0 013.8-8.43 13.74 13.74 0 019.71-3.5 16.79 16.79 0 0113.67 6.88m37.94-3.34h10.72v39.17h-10.72V229a21.15 21.15 0 01-6.29 4.19 18.15 18.15 0 01-6.85 1.28 19.25 19.25 0 01-14.31-6.26 21.53 21.53 0 01-6-15.55q0-9.63 5.85-15.8a18.83 18.83 0 0114.19-6.15 18.47 18.47 0 017.21 1.41 19.79 19.79 0 016.24 4.25v-2.14zm-11.27 6.12a11 11 0 00-8.25 3.42 12.16 12.16 0 00-3.29 8.78 12.32 12.32 0 003.34 8.87 11 11 0 008.24 3.48 11.16 11.16 0 008.37-3.42 12.31 12.31 0 003.33-9 12 12 0 00-3.33-8.8 11.33 11.33 0 00-8.41-3.36zm36.31-24.23v19.43a20.16 20.16 0 016.28-4.34 18.22 18.22 0 017.22-1.44A18.65 18.65 0 01227.3 196q5.85 6.28 5.85 16.13a22.23 22.23 0 01-6 15.89 19.08 19.08 0 01-14.33 6.39 17.92 17.92 0 01-6.87-1.31 20.86 20.86 0 01-6.32-4.28v4.49H189v-57.24zm11.26 23.49a11.24 11.24 0 00-8.4 3.44 12.38 12.38 0 00-3.33 9 12.72 12.72 0 003.33 9.16 11.14 11.14 0 008.4 3.5 10.93 10.93 0 008.27-3.56 13.9 13.9 0 00.06-18 11 11 0 00-8.33-3.5z"/><path class="cls-3" d="M255.25 176.07h11.05v58.35h-11.05zm18.42 0h11.05v58.35h-11.05z"/><path class="cls-2" d="M321.89 194.18h10.72v39.17h-10.72V229a21.15 21.15 0 01-6.29 4.19 18.14 18.14 0 01-6.84 1.28 19.25 19.25 0 01-14.32-6.26 21.53 21.53 0 01-6-15.55q0-9.63 5.85-15.8a18.83 18.83 0 0114.19-6.15 18.47 18.47 0 017.21 1.41 19.79 19.79 0 016.24 4.25v-2.14zm-11.27 6.12a11 11 0 00-8.25 3.42 12.16 12.16 0 00-3.29 8.78 12.29 12.29 0 003.35 8.87 11 11 0 008.23 3.48 11.16 11.16 0 008.37-3.42 12.31 12.31 0 003.33-9 12 12 0 00-3.33-8.8 11.33 11.33 0 00-8.41-3.36zm-68.26-2.3a5.47 5.47 0 00-5.52 5.43v31h11v-31a5.48 5.48 0 00-5.53-5.43"/><path class="cls-3" d="M208.86 144.82a9.36 9.36 0 109.29 9.36 9.32 9.32 0 00-9.29-9.36m11.58 21.57a4.84 4.84 0 104.8 4.84 4.82 4.82 0 00-4.8-4.84m-2.3-46.1a9.84 9.84 0 109.77 9.84 9.8 9.8 0 00-9.77-9.84M236.75 140a13.05 13.05 0 1012.94 13 13 13 0 00-12.94-13m2.14 33.36a9.19 9.19 0 016.78 2.89 9.63 9.63 0 012.83 7 9.52 9.52 0 01-2.8 6.91A9 9 0 01239 193a9.17 9.17 0 01-6.84-2.92 9.78 9.78 0 01-2.83-7.07 9.37 9.37 0 012.81-6.83 9.17 9.17 0 016.75-2.83M71.52 258.64a5 5 0 015-3.25c4.52 0 6.94 3.69 6.94 8.72 0 5.3-2.82 8.95-7.21 8.95a4.89 4.89 0 01-5-3.41l-.47 3h-3.39v-24.21h4.13zm0 6.78c0 3.22 1.81 4.53 3.62 4.53 2.42 0 4.06-1.95 4.06-5.78s-1.51-5.56-4-5.56c-1.88 0-3.69 1.47-3.69 4.69zm26.1-9.63h4l-6.21 17.55c-1.71 4.76-3.69 6.37-6.78 6.37a5.94 5.94 0 01-3-.81l.71-3.15a3.15 3.15 0 002 .7c1.41 0 2.08-.66 3-3.18l-6.17-17.48h4.33l4 12.81h.07zM110.94 267l3.72-1.41a5 5 0 005.2 4.19c2.28 0 4.13-1 4.13-3.15 0-4.9-12.12-1.61-12.12-10 0-4.16 3.63-6.74 8.06-6.74s7.44 1.84 8.12 5.84l-3.83 1a4 4 0 00-4.26-3.52c-2.38 0-3.89 1.27-3.89 3.12 0 4.93 12.14 1.47 12.14 10.09 0 4.37-3.86 6.71-8.38 6.71-4.7-.07-8.06-2.34-8.89-6.13zm31.43 2.51c-.77 2.38-2.69 3.55-5.27 3.55-2.78 0-5.23-1.74-5.23-5.43v-11.84H136v10.9c0 1.95 1 3.09 2.72 3.09 1.91 0 3.46-1.34 3.46-4.46v-9.53h4.16v16.87h-3.46zm18.92-9.76a6 6 0 00-1.71-.24c-2.35 0-4.16 1.71-4.16 5v8.15h-4.13v-16.87h3.49l.47 4.09c.7-2.95 3.09-5 6.27-4.36zm10.13 8.45l4.12-12.41h4l-6.18 16.87h-4.12L163 255.79h4.36l4 12.41zm21.13-.91l3.45 1.11c-.91 3.29-3.73 4.66-6.85 4.66-4.86 0-7.95-3.15-7.95-8.72s3.09-8.95 8-8.95c4.6 0 7 3.22 7 7.31a7.55 7.55 0 01-.33 2.25h-10.73c.1 3.12 1.57 5 4 5a3.16 3.16 0 003.41-2.66zm-.37-4.63a6 6 0 000-.83c0-1.88-1.08-3.46-3.12-3.46-2.22 0-3.63 1.61-3.89 4.29zm18.12-6.87h4l-6.2 17.55c-1.71 4.76-3.69 6.37-6.78 6.37a5.94 5.94 0 01-3-.81l.71-3.15a3.15 3.15 0 002 .7c1.4 0 2.07-.66 3-3.18l-6.17-17.48h4.36l4 12.81h.07zm19.52 11.77h-2.71l-5.34-11h-.07v16.14h-4.1v-22.45h4.77l6.1 12.55h.07l6.11-12.55h4.59v22.41h-4.09v-16.14h-.06zm21.51 5.5c-4.77 0-8-3.18-8-8.85s3.25-8.82 8-8.82 8 3.18 8 8.82-3.21 8.85-8 8.85zm0-14.59c-2.59 0-3.86 2-3.86 5.74s1.27 5.77 3.86 5.77 3.89-2 3.89-5.77-1.31-5.74-3.89-5.74zm15.79.53a5.56 5.56 0 015.51-3.65c3.08 0 5.26 1.94 5.26 5.46v11.81h-4.16V262c0-1.88-.83-3.12-2.75-3.12s-3.62 1.2-3.62 4.32v9.46h-4.13v-16.87h3.39zm31.24 13.66h-4.83l-5.53-7.44h-1.24v7.44h-4.12v-24.22h4.12v13.72h1.31l5-6.37h4.66l-6.14 7.75zm12.47-5.37l3.43 1.11c-.91 3.29-3.73 4.66-6.85 4.66-4.86 0-8-3.15-8-8.72s3.09-8.95 8-8.95c4.59 0 7 3.22 7 7.31a7.55 7.55 0 01-.33 2.25h-10.66c.1 3.12 1.58 5 4 5a3.15 3.15 0 003.41-2.66zm-.36-4.63a8 8 0 000-.83c0-1.88-1.07-3.46-3.12-3.46-2.21 0-3.62 1.61-3.89 4.29zm18.11-6.87h4l-6.21 17.55c-1.71 4.76-3.69 6.37-6.78 6.37a6 6 0 01-3-.81l.71-3.15a3.17 3.17 0 002 .7c1.41 0 2.08-.66 3-3.18l-6.17-17.48h4.36l4 12.81h.07z"/></g></g></svg>