<?xml version="1.0" encoding="UTF-8" standalone="no"?>
<svg version="1.1" class="svgLogo" width="340" height="96" viewBox="0 0 340 96" xmlns="http://www.w3.org/2000/svg" xml:space="preserve">
    <g transform="matrix(0.5,0,0,0.5,-127.75951,-163.14701)">
        <g class="text" style="fill: #FFFFFF;">
            <path d="M 494.829,457.937 H 511.5 c 0.517,-0.028 1.134,-0.192 1.435,-1.259 l 18.145,-71.565 h -0.003 c 0.347,-1.366 -0.58,-1.366 -1.146,-1.366 h -15.565 l -10e-4,0.008 c -0.54,0 -1.354,-0.039 -1.684,1.18 l -10.573,49.885 -13.499,-49.698 h -0.006 c -0.295,-1.414 -1.164,-1.367 -1.729,-1.367 l -0.003,-0.008 h -13.762 l -0.002,0.008 c -0.518,0 -1.282,-0.035 -1.637,1.021 l -13.18,50.044 -10.66,-49.816 c -0.317,-1.288 -1.15,-1.249 -1.699,-1.249 l -0.004,-0.008 h -15.675 c -0.565,0 -1.491,0 -1.146,1.366 l 0,0 18.116,71.46 h 0.01 c 0.288,1.161 0.931,1.335 1.466,1.363 h 16.658 c 0.557,0 1.326,-0.005 1.715,-1.317 l 13.077,-46.179 13.015,46.336 c 0.402,1.156 1.13,1.161 1.666,1.161 z" />
            <path d="m 582.666,445.4 c 0.671,-1.032 0.136,-1.391 -0.407,-1.586 l -11.234,-3.158 c -0.503,-0.11 -1.12,-0.075 -1.728,0.721 -0.055,0.082 -0.109,0.154 -0.166,0.238 -0.006,0.003 -0.006,0.006 -0.008,0.008 l 0,0 c -1.385,1.905 -3.428,3.957 -6.338,4.961 -2.209,0.84 -4.312,0.946 -5.255,0.946 -6.516,0 -11.032,-3.99 -12.298,-10.399 -0.314,-1.472 -0.209,-2.732 -0.209,-3.259 h 37.872 c 0.517,-0.001 1.32,0 1.288,-1.487 -0.127,-4.111 -0.684,-13.621 -6.058,-21 -6.831,-9.564 -17.757,-9.98 -21.435,-9.98 -11.981,0 -17.758,4.936 -21.124,8.716 -6.829,7.885 -7.042,18.078 -7.042,21.44 0,12.398 5.675,23.116 17.866,26.897 4.311,1.366 8.197,1.474 9.874,1.474 4.104,0 14.608,-0.735 22.699,-9.67 1.071,-1.253 2.073,-2.505 3.708,-4.86 l -0.005,-0.002 z m -36.275,-25.817 c 0.843,-1.89 3.78,-6.622 10.192,-6.622 0.946,0 2.732,0 4.939,1.051 5.463,2.418 5.779,7.987 5.988,9.771 h -22.38 c 0.419,-2.1 0.839,-3.26 1.261,-4.2 z" />
            <path d="m 622.578,415.806 v -12.475 c 0,-0.464 -0.355,-0.776 -0.9,-0.783 -1.975,0.206 -4.76,0.574 -8.559,2.112 -3.57,1.473 -5.041,2.94 -6.406,4.098 v -4.639 c -0.07,-0.521 -0.6,-1.027 -1.141,-1.037 h -13.144 c -0.69,0 -1.374,0.693 -1.374,1.357 v 52.139 c 0,0.666 0.684,1.358 1.374,1.358 h 13.33 c 0.689,0 1.375,-0.692 1.375,-1.358 v -29.537 c 0,-4.098 0.734,-6.827 5.043,-8.303 1.996,-0.732 4.516,-1.045 5.047,-1.154 l 4.285,-0.676 c 0.668,-0.083 1.07,-0.49 1.07,-1.102 z" />
            <path d="m 770.494,401.82 c -6.725,0 -11.031,2.527 -13.027,4.207 -1.15,0.839 -1.473,1.363 -2.312,2.413 l -0.082,-4.271 c -0.059,-0.585 -0.588,-1.077 -1.145,-1.086 h -11.9 c -0.684,0 -1.361,0.681 -1.375,1.338 v 67.729 c 0.041,0.624 0.668,1.25 1.312,1.286 h 13.723 c 0.68,-0.02 1.348,-0.697 1.348,-1.356 h 0.014 v -17.717 c 4.727,2.938 7.67,4.617 13.445,4.617 5.15,0 8.406,-1.154 10.195,-1.991 1.785,-0.842 5.568,-3.255 8.613,-7.879 2,-3.156 4.939,-9.354 5.041,-18.706 0,-7.674 -1.783,-15.763 -7.35,-21.646 -5.99,-6.413 -13.348,-6.938 -16.5,-6.938 z m 8.303,28.374 c 0,5.883 -1.365,9.14 -2.625,11.454 -0.943,1.679 -3.154,5.672 -8.723,5.672 -2.523,0 -4.414,-0.947 -5.15,-1.469 -1.262,-0.738 -2.309,-1.789 -3.154,-2.939 -3.045,-4.523 -2.828,-11.141 -2.828,-12.296 0,-11.878 5.564,-17.339 11.553,-17.339 0.42,0 1.264,0 2.312,0.316 1.893,0.526 3.572,1.68 4.83,3.149 3.994,4.731 3.785,11.875 3.785,13.452 z" />
            <path d="m 849.172,407.39 c -5.154,-4.096 -10.82,-5.57 -17.238,-5.88 -13.871,-0.844 -21.434,4.831 -25.219,9.349 -6.203,7.462 -6.41,16.392 -6.41,19.545 0,11.453 4.625,18.18 7.883,21.334 7.566,7.352 18.703,7.874 21.541,7.874 10.297,0 16.709,-3.779 19.861,-6.402 3.779,-3.155 9.664,-10.298 9.664,-22.702 0,-8.825 -3.254,-17.547 -10.082,-23.118 z m -19.229,39.305 c -6.1,0 -9.254,-3.478 -10.512,-5.359 -1.053,-1.686 -2.836,-5.677 -2.836,-11.037 0,-8.088 3.467,-12.823 6.408,-14.499 2.311,-1.371 5.355,-1.578 6.092,-1.578 4.311,0 6.52,1.052 7.988,2.104 3.154,2.206 5.781,6.405 5.781,14.714 10e-4,8.189 -3.997,15.655 -12.921,15.655 z" />
            <path d="m 682.342,456.578 h 0.002 l -19.322,-33.465 18.129,-18.719 c 0.529,-0.583 0.178,-1.272 -0.348,-1.312 H 664.27 c -0.562,0.001 -1.367,0.059 -2.572,1.366 h -0.006 l -16.951,17.443 v -36.954 c -0.088,-0.579 -0.646,-1.126 -1.238,-1.191 h -13.361 c -0.648,0.07 -1.262,0.717 -1.262,1.346 h -0.006 v 71.542 c 0.037,0.646 0.701,1.303 1.367,1.303 h 13.018 c 0.689,0 1.373,-0.692 1.373,-1.358 v -15.665 l 6.941,-6.625 13.096,22.364 c 0.447,0.641 1.262,1.284 2.203,1.284 h 14.924 c 0.573,0 1.059,-0.497 0.546,-1.359 z" />
            <path d="m 894.816,456.573 v -10.794 c -0.01,-0.557 -0.326,-0.734 -0.844,-0.762 -1.615,0.021 -3.227,0.096 -4.836,0.096 -0.314,0 -2.838,0 -3.787,-1.786 -0.518,-0.943 -0.412,-2.206 -0.412,-4.411 v -24.588 h 9.359 c 0.66,-0.01 1.307,-0.651 1.354,-1.289 v -7.304 c -0.047,-0.642 -0.705,-1.289 -1.369,-1.289 h -9.344 v -15.891 c -0.004,-0.624 -0.607,-1.26 -1.25,-1.335 h -13.482 c -0.631,0.074 -1.217,0.685 -1.246,1.297 v 15.831 h -6.715 c -0.652,0.063 -1.27,0.714 -1.27,1.346 v 7.163 c 0,0.665 0.686,1.359 1.375,1.359 v 0.006 h 6.609 v 26.372 c 0,5.048 -0.209,10.617 3.994,14.294 3.678,3.364 8.514,3.255 9.988,3.364 1.045,0.1 2.203,0.1 3.357,0.1 2.863,0 5.783,-0.38 7.436,-0.649 0.621,-0.1 1.083,-0.514 1.083,-1.13 z" />
            <path d="m 718.143,423.68 -7.248,-1.577 c -1.791,-0.419 -5.781,-0.945 -7.357,-1.993 -0.838,-0.632 -1.467,-1.578 -1.467,-2.633 0,-0.941 0.525,-2.311 2.518,-3.254 0.732,-0.315 2.838,-0.944 5.145,-0.944 3.471,0 7.883,1.577 10.83,3.362 0.67,0.398 1.293,0.846 1.902,1.307 l 0.004,-10e-4 c 0.537,0.416 1.523,0.292 2.043,-0.144 l 7.906,-7.322 c 0.486,-0.457 0.549,-1.283 0.061,-1.69 -1.143,-0.779 -2.295,-1.511 -3.51,-2.237 -8.303,-4.732 -16.396,-5.256 -19.865,-5.256 -12.189,0 -18.385,5.672 -20.906,10.197 -1.998,3.467 -2.312,6.722 -2.312,8.194 0,1.263 0.209,3.887 1.68,6.827 2.836,5.466 8.09,8.09 19.541,9.982 5.889,0.947 10.719,1.366 10.83,5.152 0,3.045 -3.262,4.412 -5.674,4.936 -1.795,0.42 -3.262,0.528 -3.996,0.528 -4.521,0 -9.459,-2.102 -13.033,-4.941 -0.709,-0.496 -1.367,-1.087 -2.008,-1.709 l -0.004,0.002 c -0.549,-0.47 -1.508,-0.426 -2.006,0.051 l -8.266,7.427 c -0.488,0.457 -0.482,1.305 -0.002,1.727 1.215,1.117 3.084,2.754 5.562,4.272 7.986,4.938 17.127,5.466 20.072,5.466 8.299,0 18.389,-2.836 23.221,-10.088 0.945,-1.367 2.627,-4.625 2.627,-9.144 -0.001,-10.192 -7.568,-14.609 -16.288,-16.497 z" />
        </g>
        <circle cx="352.21201" cy="421.60101" r="57" style="fill: #FFFFFF;" />
        <g class="house" style="stroke-width: 0.07; stroke-miterlimit: 10;">
            <path style="fill: #0099cc; stroke: #0099cc;" d="m 352.16,420.639 37.077,10.688 c 0.261,-1.197 0.311,-2.438 0.087,-3.439 l -5.896,-26.363 c -0.455,-2.037 -2.359,-4.458 -4.23,-5.382 l -23.637,-11.669 c -0.936,-0.462 -2.168,-0.693 -3.401,-0.693 l 0,36.858 z" />
            <path style="fill: #0083a9; stroke: #0083a9;" d="M 352.16,420.639 V 383.78 c -1.233,0.001 -2.466,0.232 -3.401,0.695 l -23.604,11.666 c -1.871,0.924 -3.771,3.348 -4.222,5.385 l -5.836,26.359 c -0.222,1.002 -0.169,2.242 0.094,3.439 l 36.969,-10.685 z" />
            <path style="fill: #005b82; stroke: #005b82;" d="m 352.16,420.64 -36.97,10.686 c 0.271,1.233 0.767,2.422 1.417,3.258 l 16.423,21.092 c 1.282,1.646 4.038,2.993 6.125,2.993 h 7.657 l -3.955,-19.072 h 18.713 l -3.94,19.072 h 7.704 c 2.086,0 4.84,-1.349 6.12,-2.996 l 16.371,-21.086 c 0.65,-0.837 1.143,-2.025 1.412,-3.259 L 352.16,420.64 z" />
        </g>
    </g>
</svg>