<svg xmlns="http://www.w3.org/2000/svg" xmlns:xlink="http://www.w3.org/1999/xlink" viewBox="0 0 570 620"><defs><style>.cls-1{fill:url(#Unbenannter_Verlauf_15);}.cls-2{fill:#fff;}.cls-3{fill:#0061a2;}.cls-4{fill:#ea526f;}</style><linearGradient id="Unbenannter_Verlauf_15" x1="283.5" y1="334.13" x2="283.5" y2="48.3" gradientUnits="userSpaceOnUse"><stop offset="0" stop-color="#ea526f"/><stop offset="1" stop-color="#ffab83"/></linearGradient></defs><g id="Ebene_4" data-name="Ebene 4"><path class="cls-1" d="M256.36,323.41a1260.7,1260.7,0,0,1-105-105,44.61,44.61,0,0,1,0-58A1211.69,1211.69,0,0,1,252.61,59a44.61,44.61,0,0,1,58,0,1260.7,1260.7,0,0,1,105.05,105,44.61,44.61,0,0,1,0,58A1211.69,1211.69,0,0,1,314.39,323.39,44.6,44.6,0,0,1,256.36,323.41Z"/><path class="cls-2" d="M330.32,264.35h0c-5.85.37-11.65.87-17.46,1.14s-11.59.57-17.36.81c-1.45.05-2.9.05-4.35,0l-4.34-.11c-1.44,0-2.88,0-4.32.09s-2.86.25-4.29.47a87.15,87.15,0,0,0-8.56,1.74,54.3,54.3,0,0,0-8.62,2.9h0a.45.45,0,0,0-.25.24.5.5,0,0,0,.25.67,38.52,38.52,0,0,0,8.84,2.65,60.8,60.8,0,0,0,8.88.93,40.65,40.65,0,0,0,8.81-.66l4.36-.85c1.45-.3,2.9-.59,4.35-.83,5.8-1,11.58-2.14,17.29-3.57s11.37-3,17-4.77a.49.49,0,0,0,.32-.47A.46.46,0,0,0,330.32,264.35Z"/><path class="cls-2" d="M371,202.59a87.54,87.54,0,1,0-169.51,30.8s31.1,5,82.56,3.69l-3.44.3c-3,.27-6.1.57-9.15.8l-9.16.81-9.16.73c-12.23,1-24.48,1.8-36.74,2.53h0a.52.52,0,0,0,0,1c5,.37,10.06.65,15.09.88q-2.62.22-5.25.51c-1.09.14-2.18.26-3.27.42s-2.18.3-3.27.48a92.22,92.22,0,0,0-13.15,2.94h0a.54.54,0,0,0,0,1,76.08,76.08,0,0,0,13.13,3.31c2.19.38,4.39.68,6.59.93,1.1.13,2.21.22,3.31.33l3.3.24a81.82,81.82,0,0,0,11.82-.11q6.8.66,13.6,1.1l2.25.14c-1.72.17-3.45.34-5.18.53-4.51.45-9,1-13.57,1.51s-9.09,1.14-13.69,2h0a.53.53,0,0,0,0,1,121.93,121.93,0,0,0,13.66,2.76c4.59.69,9.19,1.15,13.8,1.48s9.23.47,13.85.45,9.23-.19,13.82-.58,9.17-1,13.74-1.68,9.11-1.4,13.63-2.32c9.06-1.86,17.85-4.87,26.79-7.12l.09,0a1.69,1.69,0,0,0-.51-3.33q-3.9.21-7.82.33c-1.31,0-2.61,0-3.92,0s-2.61,0-3.92,0c-2.61,0-5.23-.14-7.84-.31s-5.22-.34-7.83-.6l-7.83-.79-4.18-.45c6-1.07,12-2.3,17.94-3.88a.44.44,0,0,0,.19-.1c2.12-.09,4.23-.22,6.35-.4,3.07-.25,6.14-.59,9.2-1.06l4.58-.73c1.52-.26,3-.51,4.56-.8,3-.59,6.08-1.25,9.09-2,1.51-.36,3-.74,4.52-1.13s3-.85,4.5-1.3,3-.93,4.46-1.44l2.22-.77c.74-.29,1.47-.54,2.21-.85a.52.52,0,0,0,.32-.42.54.54,0,0,0-.46-.6h0c-.79-.09-1.57-.15-2.36-.22l-2.34-.16c-1.56-.11-3.11-.16-4.66-.21s-3.09-.07-4.63-.08-3.09-.05-4.63-.06c-3.08,0-6.14.07-9.2.15l-1.23,0,33-4.14A87.61,87.61,0,0,0,371,202.59Zm-99.49-39.9c-.38.57-.69,1.22-1.05,1.8s-.71,1.18-1,1.8l-1,1.81c-.3.62-.62,1.23-.94,1.84-1.21,2.45-2.38,4.92-3.45,7.43-.53,1.26-1.08,2.5-1.56,3.77l-.72,1.88c-.22.62-.47,1.29-.65,1.82l-2.11,6.38-4.41-5.3c-2.34-2.8-4.7-5.55-7.17-8.13a59.6,59.6,0,0,0-7.81-7,20.86,20.86,0,0,0-8.94-4.08l-.61-.08-.6,0c-.42,0-.82,0-1.24,0a13,13,0,0,0-2.51.4,13.67,13.67,0,0,0-2.5,1,11.89,11.89,0,0,0-2.37,1.52,11.09,11.09,0,0,1,3.82-4.62,13,13,0,0,1,2.81-1.49,13.45,13.45,0,0,1,3.15-.78,17.52,17.52,0,0,1,6.46.43,28.26,28.26,0,0,1,5.89,2.26,45.3,45.3,0,0,1,9.75,7.19c1.39,1.32,2.7,2.7,4,4.12.4-.77.81-1.53,1.25-2.28a61.41,61.41,0,0,1,4.95-7.32,48,48,0,0,1,6.08-6.43,33.09,33.09,0,0,1,7.28-4.9C274.59,158,273,160.3,271.55,162.69Z"/><path class="cls-3" d="M99.58,465.26H74.07l-5,19H49.32l28.95-92.63H95.38l29.14,92.63h-20ZM78.14,449.67h17.3l-8.65-33Z"/><path class="cls-3" d="M232,484.22h-18.7V391.59H232Z"/><path class="cls-3" d="M269,468.7h32.83v15.52H250.28V391.59H269Z"/><path class="cls-3" d="M363.06,444.14H333.93V468.7h34.48v15.52H315.22V391.59h53.06v15.59H333.93v21.88h29.13Z"/><path class="cls-3" d="M457.5,484.22V391.59H482q16.22,0,25.86,10.31t9.83,28.24v15q0,18.25-9.64,28.66t-26.56,10.4Zm18.7-77V468.7h5.6q9.34,0,13.17-4.93t4-17v-16.1q0-13-3.62-18.1T483,407.18Z"/><path class="cls-3" d="M144,473.3a8.89,8.89,0,0,1,1.36-.1c6.62,0,12.83,7.44,13.85,11.81a43.5,43.5,0,0,0,6.6.48,48.33,48.33,0,0,0,17.21-3,34.05,34.05,0,0,0,13.26-8.81V435.49H164.39v14.12h13.1v17l-1.65,1.14a16.2,16.2,0,0,1-9,2.23q-8.66,0-12.44-5.76t-3.78-18.42V429q.12-12.09,3.56-17.62t11-5.54q6.22,0,9.16,3.22t3.69,12.05h18.19q-1.2-15.9-8.87-23.35t-22.75-7.44q-16,0-24.39,10.34t-8.37,29.48v16.67q.24,17.55,7.89,27.33A39.15,39.15,0,0,1,144,473.3Z"/><path class="cls-3" d="M379.92,391.59v15.59h22.52v68.21c3.82-1.93,5.5-1.93,6.53-1.93,4.91,0,8.2,4.68,8.2,9a8.47,8.47,0,0,1-.19,1.72h4.22v-77h22.91V391.59Z"/><path class="cls-4" d="M157.86,501.47c-.11-3.77-1.16-6.6-3.25-8.28s-5.24-2.09-9.43-.94l-.11-.1a32,32,0,0,1,4.61-2.31c1.57-.52,5.14-1.47,5.14-3.67,0-1.68-5.24-9.12-10.17-8.38-20.23,2.83-55.13,28.5-53.87,51.14.94,16.25,10.38,21.28,18.66,21.38C133.44,550.52,158.38,522.33,157.86,501.47Zm-9.23.63c-.31,7.65-8.28,20.44-22.32,32.39-4.4,3.77-13.52,8.17-19.39,8.17-4,0-5.55-3.14-5.55-6.81,0-8.59,5.76-17,11.63-22.85.1,1,.1,2.94,1.47,2.94s2.62-2,3.25-2.83c4.92-7.44,17.6-16.14,26.83-16.14C147.27,497,148.74,499.59,148.63,502.1Z"/><path class="cls-4" d="M285.4,534.28c-1.88,1.57-6.5,5.24-9,5.24a2,2,0,0,1-1.89-1.89c0-7.23,12.89-15.19,12.89-19.28a24.11,24.11,0,0,0-1.57-5.66c-.63-1.47-1.26-2-1.67-2-3,0-22.33,12.89-30.71,23.58-.42.52-1.37,1.47-2.1,1.47a1.17,1.17,0,0,1-1.15-1.16c0-2.51,13.2-13.1,13.2-17.19,0-.62.53-2.09-5.76-2.3-1.78,0-2.73.1-4.09,1.26a41.87,41.87,0,0,0-10.31,14.12l-.06-.29c-5.56,4.4-14.36,12-21.8,12-3.36,0-6.82-1.36-6.5-5.34l.21-2.31c20.12-6.6,25.26-14.36,25.26-19.49,0-4.19-4.2-5-7.55-5-11.33-.09-23.74,9.61-27.36,20.77l-.1-.65C194.12,539.83,192,541.51,183,540.88c11.74-10.37,17-17.61,17-23.37,0-2.73-1.57-4.93-4.4-4.93-5.66,0-16.25,6.92-20.76,10.17l-.21-.21c2.1-4.72,5.35-8.59,8.91-12.37,1.68-1.78,7.13-6.81,7.13-9.12,0-2-3.35-2.51-4.82-2.51-4,0-5.87,3-8.39,5.76l-27.77,29.87.42,4.93,16.56-15.83.21.21C160.06,535,154.82,543.61,150,550.42c-4.29,6.08-6.6,11.32-6.49,16.56,0,1.89.62,4.72,3,4.72,2,0,3.87-2.83,4.71-4.41L161.1,548a18.76,18.76,0,0,0,4.2.63,24.75,24.75,0,0,0,4.82-.63,15.56,15.56,0,0,0,7.44,2.09c10.52,0,19.4-6.51,26.83-13.49,0,.38,0,.75,0,1.13.21,6.91,3.77,13.73,11.42,13.73,9,0,18.81-7.37,25.44-14.18a13.92,13.92,0,0,0-.08,2c.11,3.56,1.26,10.17,5.87,10.17,2.83,0,6.71-5.14,8.28-7.13a83.67,83.67,0,0,1,16.14-16l.21.21c-3.35,4.82-9,11.74-9,18,0,3.56,1.89,6.92,5.87,6.92,7.65,0,18.45-12.89,24-17.82l-.84-4.61Zm-55.54-18.13c.73-.21,1.25.42,1.25,1.15.11,1.78-6.18,9-15.4,12.16C218.54,522.54,224.62,517.51,229.86,516.15ZM177,539a22.65,22.65,0,0,0-8.8-1,46.74,46.74,0,0,1,9.64-10.17c1.37-.94,6.4-4.19,8.07-4.19.84,0,1.16.73,1.16,1.47,0,1.88-1.47,3.66-2.62,5.13Z"/><path class="cls-4" d="M396.39,512.9l13-22.75c1.05-1.88,3.25-5.45,3.25-7.65,0-1.88-1.47-4.5-3.67-4.5-4.72,0-17.29,9.53-27.57,18l-23.47,19.5c-.42,0-4.72.21-6.4.31-.52,0-1.46-.21-1.46-.94,0-1.89,7.65-.94,7.65-2.83,0-1.47-5.66-.63-9.75.73-5.55,1.78-13.21,10.59-13.21,12.58,0,2.72,3.46,2.31,10.17,2.1l-8.17,9c-9.86,3.46-17.93,13.52-17.93,17,0,2,2.1,2.3,3.67,2.3,3.77,0,7.76-4.4,10.27-6.91l21.49-21.38,22.85-.74c-9.23,17-7.65,16.88-7.65,17.72,0,3.35,1.57,6.28,5.34,6.28,7.44,0,16.35-8.49,21.38-13.52l-1.88-2.72c-6.19,4.61-7.34,5.76-9.23,5.76a1.7,1.7,0,0,1-1.88-1.67l6.6-12.9,8.38-.41A71.14,71.14,0,0,1,406,513.32C399.43,511.85,404.15,512.9,396.39,512.9Zm-11.53.42-16,1.15-.21-.21,30.29-25.05.21.21Z"/><path class="cls-4" d="M431.81,511.54c4.51,0,8.39-5.14,8.39-9.33a3.31,3.31,0,0,0-3.46-3.25c-4.09,0-9.12,3.77-9.12,8.07A4.23,4.23,0,0,0,431.81,511.54Z"/><path class="cls-4" d="M475.52,530.61C472.06,533.23,465.46,540,461,540a3.21,3.21,0,0,1-3.25-2.93c0-4.19,5.14-9.33,8.18-12,2.41-2,4.4-3.56,4.4-6.81a10.46,10.46,0,0,0-2.52-5.56c-1-1.25-6.81,0-16.66,1.37a7.17,7.17,0,0,0,.73-2.94,1.86,1.86,0,0,0-1.88-1.78c-2.52,0-13.21,7.55-13.21,15.09,0,2.2.63,3,2.83,3.25a38.63,38.63,0,0,1-6,6.85c-3.62,2.89-7.81,6.15-12.06,6.15-4.82,0-6.39-2.31-5.55-6.61,4.4-3,14.78-12.36,14.78-17.6,0-2.31-2.83-2.94-4.62-2.94-6.28,0-19.39,12.47-19.39,25.26,0,5.35,2.83,12.47,9,12.47,8,0,17.19-9.43,21.9-15.19l-.07-.3a40.1,40.1,0,0,0,8-8.82l10.9-2.41.21.21c-4.19,5-9.64,10.58-9.64,17.71,0,4,2.72,8.07,7.12,8.07,6,0,18-11.64,22-16.14Z"/></g></svg>