<svg xmlns="http://www.w3.org/2000/svg" version="1.1" baseProfile="tiny" id="cdr_x5F_object" x="0px" y="0px" width="181.946px" height="60px" viewBox="0 0 181.946 60" xml:space="preserve"><g><g><path fill-rule="evenodd" fill="#AADAF5" d="M60 30c0 3.51-0.6 6.88-1.71 10C54.17 51.65 43.06 60 30 60S5.82 51.65 1.71 40C0.6 36.88 0 33.51 0 30c0-3.51 0.6-6.88 1.71-10C5.82 8.35 16.94 0 30 0s24.17 8.35 28.29 20C59.4 23.12 60 26.49 60 30z"></path></g><g><g><g><path fill="#FFFFFF" d="M68.417 12.942h3.971c0.854 0 1.602 0.061 2.245 0.181 0.644 0.121 1.182 0.315 1.614 0.585 0.433 0.269 0.759 0.621 0.979 1.058 0.22 0.436 0.33 0.973 0.33 1.609 0 0.384-0.047 0.742-0.14 1.076s-0.229 0.628-0.408 0.881c-0.18 0.254-0.397 0.466-0.654 0.636 -0.257 0.171-0.552 0.283-0.886 0.339v0.093c0.34 0.074 0.657 0.181 0.951 0.32 0.293 0.139 0.55 0.331 0.77 0.575s0.393 0.552 0.52 0.923 0.19 0.822 0.19 1.354c0 0.618-0.108 1.171-0.325 1.656 -0.216 0.485-0.527 0.896-0.932 1.233 -0.405 0.338-0.897 0.596-1.476 0.774 -0.578 0.18-1.232 0.27-1.962 0.27h-4.787V12.942zM71.293 18.314h1.493c0.359 0 0.659-0.033 0.9-0.098 0.241-0.065 0.436-0.162 0.584-0.293 0.148-0.129 0.256-0.292 0.32-0.486 0.065-0.195 0.098-0.422 0.098-0.682 0-0.52-0.162-0.893-0.487-1.118 -0.324-0.226-0.839-0.339-1.544-0.339h-1.364V18.314zM71.293 20.596v3.535h1.688c0.377 0 0.694-0.043 0.951-0.13 0.256-0.087 0.464-0.21 0.621-0.371 0.158-0.161 0.271-0.355 0.339-0.585 0.068-0.229 0.103-0.482 0.103-0.76 0-0.254-0.034-0.484-0.103-0.691s-0.185-0.385-0.348-0.533c-0.164-0.148-0.379-0.264-0.646-0.344 -0.266-0.08-0.597-0.121-0.992-0.121H71.293z"></path><path fill="#FFFFFF" d="M87.157 26.506l-0.38-1.326h-0.148c-0.154 0.266-0.339 0.493-0.552 0.682 -0.214 0.188-0.447 0.345-0.701 0.469 -0.253 0.123-0.522 0.214-0.807 0.273 -0.284 0.059-0.575 0.088-0.872 0.088 -0.507 0-0.968-0.073-1.382-0.218 -0.415-0.146-0.771-0.373-1.067-0.683 -0.297-0.309-0.525-0.701-0.687-1.178s-0.241-1.049-0.241-1.717v-6.763h2.829v6.058c0 0.749 0.113 1.311 0.339 1.685s0.586 0.562 1.081 0.562c0.371 0 0.681-0.074 0.928-0.223s0.443-0.368 0.589-0.659 0.249-0.649 0.312-1.076c0.062-0.427 0.092-0.915 0.092-1.466v-4.88h2.83v10.372H87.157z"></path><path fill="#FFFFFF" d="M94.985 26.506h-2.83V12.07h2.83V26.506z"></path><path fill="#FFFFFF" d="M106.468 16.152v1.54l-1.513 0.474c0.124 0.21 0.21 0.428 0.26 0.653 0.05 0.227 0.074 0.469 0.074 0.729 0 0.525-0.083 1.007-0.251 1.442 -0.166 0.437-0.414 0.809-0.742 1.118 -0.327 0.31-0.738 0.549-1.233 0.719 -0.495 0.171-1.07 0.255-1.726 0.255 -0.143 0-0.297-0.007-0.464-0.022s-0.291-0.032-0.371-0.052c-0.124 0.105-0.222 0.216-0.292 0.33 -0.071 0.114-0.107 0.252-0.107 0.412 0 0.131 0.041 0.234 0.121 0.312s0.186 0.139 0.315 0.186c0.13 0.046 0.281 0.077 0.454 0.093 0.174 0.016 0.354 0.023 0.539 0.023h1.613c0.502 0 0.95 0.057 1.346 0.171 0.396 0.115 0.731 0.289 1.007 0.524 0.274 0.235 0.487 0.533 0.636 0.896 0.148 0.361 0.223 0.793 0.223 1.294 0 0.588-0.118 1.118-0.354 1.591 -0.234 0.474-0.586 0.875-1.053 1.206s-1.047 0.585-1.739 0.761c-0.692 0.177-1.493 0.265-2.403 0.265 -0.705 0-1.32-0.066-1.846-0.199 -0.525-0.134-0.965-0.325-1.317-0.575 -0.353-0.251-0.617-0.552-0.793-0.905 -0.177-0.352-0.265-0.751-0.265-1.196 0-0.377 0.064-0.705 0.195-0.983 0.129-0.278 0.303-0.517 0.52-0.715 0.216-0.197 0.462-0.358 0.737-0.482 0.274-0.123 0.558-0.219 0.849-0.287 -0.13-0.056-0.259-0.133-0.385-0.232 -0.127-0.099-0.241-0.213-0.344-0.343 -0.102-0.13-0.186-0.273-0.25-0.432 -0.065-0.157-0.098-0.323-0.098-0.496 0-0.198 0.029-0.377 0.088-0.538s0.145-0.311 0.256-0.45c0.111-0.139 0.25-0.271 0.417-0.394 0.167-0.124 0.355-0.251 0.565-0.381 -0.544-0.235-0.976-0.612-1.294-1.132s-0.478-1.132-0.478-1.837c0-0.557 0.087-1.055 0.26-1.494 0.173-0.438 0.427-0.812 0.761-1.117 0.334-0.307 0.748-0.54 1.243-0.701 0.495-0.16 1.063-0.24 1.707-0.24 0.124 0 0.263 0.008 0.418 0.022 0.154 0.016 0.307 0.034 0.459 0.056 0.151 0.022 0.292 0.045 0.422 0.07 0.13 0.024 0.232 0.046 0.307 0.064H106.468zM99.046 27.972c0 0.154 0.032 0.305 0.097 0.45 0.065 0.145 0.172 0.273 0.32 0.385s0.343 0.199 0.585 0.265c0.24 0.064 0.537 0.097 0.891 0.097 0.965 0 1.691-0.136 2.18-0.408 0.488-0.271 0.732-0.637 0.732-1.094 0-0.391-0.151-0.65-0.454-0.779 -0.303-0.131-0.773-0.195-1.41-0.195h-1.308c-0.168 0-0.347 0.02-0.539 0.061 -0.191 0.04-0.367 0.109-0.528 0.209 -0.161 0.099-0.296 0.229-0.403 0.394C99.1 27.519 99.046 27.725 99.046 27.972zM100.065 19.529c0 0.563 0.105 0.999 0.316 1.309 0.21 0.309 0.528 0.463 0.955 0.463 0.445 0 0.767-0.154 0.965-0.463 0.198-0.31 0.297-0.746 0.297-1.309 0-0.557-0.098-0.999-0.292-1.326 -0.195-0.328-0.519-0.492-0.97-0.492C100.489 17.711 100.065 18.317 100.065 19.529z"></path><path fill="#FFFFFF" d="M114.252 26.506l-0.548-1.41h-0.083c-0.205 0.278-0.408 0.519-0.613 0.719 -0.203 0.201-0.426 0.367-0.668 0.496 -0.24 0.131-0.512 0.227-0.812 0.288s-0.647 0.093-1.044 0.093c-0.42 0-0.81-0.066-1.168-0.199 -0.359-0.133-0.67-0.334-0.933-0.604 -0.264-0.269-0.469-0.608-0.617-1.021 -0.148-0.411-0.223-0.898-0.223-1.461 0-1.101 0.353-1.912 1.058-2.436 0.705-0.522 1.76-0.812 3.164-0.867l1.65-0.056V19.27c0-0.427-0.123-0.742-0.371-0.946 -0.247-0.204-0.594-0.306-1.039-0.306s-0.88 0.064-1.303 0.194c-0.424 0.13-0.85 0.303-1.275 0.52l-0.919-1.874c0.52-0.291 1.095-0.52 1.726-0.687s1.293-0.251 1.985-0.251c1.293 0 2.283 0.304 2.974 0.91 0.689 0.605 1.034 1.527 1.034 2.764v6.912H114.252zM113.416 21.7l-0.937 0.037c-0.377 0.013-0.696 0.062-0.956 0.148s-0.468 0.203-0.626 0.348c-0.157 0.146-0.272 0.319-0.343 0.52 -0.071 0.201-0.107 0.426-0.107 0.673 0 0.433 0.105 0.741 0.316 0.923 0.21 0.183 0.485 0.274 0.825 0.274 0.26 0 0.501-0.045 0.724-0.135s0.416-0.223 0.58-0.399c0.163-0.176 0.292-0.393 0.385-0.649 0.093-0.256 0.139-0.552 0.139-0.886V21.7z"></path><path fill="#FFFFFF" d="M124.442 15.939c0.074 0 0.156 0.001 0.246 0.004 0.09 0.004 0.177 0.01 0.26 0.019 0.084 0.01 0.161 0.019 0.232 0.028 0.07 0.009 0.125 0.02 0.162 0.032v2.653c-0.05-0.013-0.117-0.024-0.204-0.037s-0.178-0.023-0.273-0.032c-0.097-0.01-0.19-0.016-0.283-0.019s-0.17-0.005-0.231-0.005c-0.365 0-0.701 0.046-1.007 0.14 -0.307 0.092-0.569 0.242-0.789 0.449 -0.22 0.208-0.39 0.479-0.51 0.816 -0.121 0.338-0.181 0.75-0.181 1.238v5.279h-2.83V16.134h2.143l0.418 1.559h0.139c0.148-0.266 0.31-0.507 0.482-0.724 0.174-0.217 0.367-0.4 0.58-0.552 0.214-0.151 0.455-0.27 0.724-0.353C123.789 15.98 124.097 15.939 124.442 15.939z"></path><path fill="#FFFFFF" d="M127.098 13.453c0-0.267 0.041-0.487 0.121-0.664 0.08-0.176 0.19-0.318 0.329-0.427 0.14-0.107 0.303-0.184 0.492-0.228 0.188-0.043 0.388-0.064 0.599-0.064 0.21 0 0.408 0.021 0.594 0.064 0.186 0.044 0.348 0.12 0.486 0.228 0.14 0.108 0.251 0.251 0.334 0.427 0.084 0.177 0.125 0.397 0.125 0.664 0 0.26-0.041 0.479-0.125 0.658 -0.083 0.18-0.194 0.323-0.334 0.432 -0.139 0.108-0.301 0.186-0.486 0.231 -0.186 0.047-0.384 0.069-0.594 0.069 -0.211 0-0.41-0.022-0.599-0.069 -0.189-0.046-0.353-0.123-0.492-0.231 -0.139-0.108-0.249-0.252-0.329-0.432S127.098 13.713 127.098 13.453zM130.049 26.506h-2.83V16.134h2.83V26.506z"></path><path fill="#FFFFFF" d="M138.909 26.506l-0.548-1.41h-0.083c-0.205 0.278-0.408 0.519-0.613 0.719 -0.203 0.201-0.426 0.367-0.668 0.496 -0.24 0.131-0.512 0.227-0.812 0.288s-0.647 0.093-1.044 0.093c-0.42 0-0.81-0.066-1.168-0.199 -0.359-0.133-0.67-0.334-0.933-0.604 -0.264-0.269-0.469-0.608-0.617-1.021 -0.148-0.411-0.223-0.898-0.223-1.461 0-1.101 0.353-1.912 1.058-2.436 0.705-0.522 1.76-0.812 3.164-0.867l1.65-0.056V19.27c0-0.427-0.123-0.742-0.371-0.946 -0.247-0.204-0.594-0.306-1.039-0.306s-0.88 0.064-1.303 0.194c-0.424 0.13-0.85 0.303-1.275 0.52l-0.919-1.874c0.52-0.291 1.095-0.52 1.726-0.687s1.293-0.251 1.985-0.251c1.293 0 2.283 0.304 2.974 0.91 0.689 0.605 1.034 1.527 1.034 2.764v6.912H138.909zM138.073 21.7l-0.937 0.037c-0.377 0.013-0.696 0.062-0.956 0.148s-0.468 0.203-0.626 0.348c-0.157 0.146-0.272 0.319-0.343 0.52 -0.071 0.201-0.107 0.426-0.107 0.673 0 0.433 0.105 0.741 0.316 0.923 0.21 0.183 0.485 0.274 0.825 0.274 0.26 0 0.501-0.045 0.724-0.135s0.416-0.223 0.58-0.399c0.163-0.176 0.292-0.393 0.385-0.649 0.093-0.256 0.139-0.552 0.139-0.886V21.7z"></path></g><path fill="#FFFFFF" d="M157.139 17.175c0 0.594-0.09 1.163-0.27 1.707s-0.475 1.023-0.886 1.438c-0.412 0.414-0.953 0.745-1.624 0.992s-1.501 0.371-2.49 0.371h-0.659v4.824h-2.876V12.944h3.767c0.872 0 1.625 0.098 2.259 0.292 0.634 0.195 1.156 0.474 1.568 0.835 0.411 0.362 0.716 0.805 0.914 1.327C157.04 15.921 157.139 16.513 157.139 17.175zM151.21 19.327h0.565c0.811 0 1.421-0.161 1.833-0.482 0.411-0.321 0.616-0.845 0.616-1.567 0-0.675-0.184-1.173-0.552-1.494s-0.944-0.482-1.729-0.482h-0.733V19.327z"></path><path fill="#FFFFFF" d="M169.829 26.508h-2.867v-5.854h-4.61v5.854h-2.876V12.944h2.876v5.315h4.61v-5.315h2.867V26.508z"></path><path fill="#FFFFFF" d="M181.946 17.175c0 0.594-0.09 1.163-0.27 1.707s-0.475 1.023-0.886 1.438c-0.412 0.414-0.953 0.745-1.624 0.992s-1.501 0.371-2.49 0.371h-0.659v4.824h-2.876V12.944h3.767c0.872 0 1.625 0.098 2.259 0.292 0.634 0.195 1.156 0.474 1.568 0.835 0.411 0.362 0.716 0.805 0.914 1.327C181.846 15.921 181.946 16.513 181.946 17.175zM176.017 19.327h0.565c0.811 0 1.421-0.161 1.833-0.482 0.411-0.321 0.616-0.845 0.616-1.567 0-0.675-0.184-1.173-0.552-1.494s-0.944-0.482-1.729-0.482h-0.733V19.327z"></path></g></g><g><path fill="#FFFFFF" d="M73.633 35.042c-0.627 0-1.195 0.118-1.705 0.356 -0.51 0.236-0.944 0.578-1.306 1.023 -0.359 0.445-0.639 0.987-0.834 1.626 -0.197 0.639-0.295 1.359-0.295 2.162 0 0.826 0.086 1.56 0.26 2.202 0.172 0.641 0.432 1.182 0.777 1.621s0.776 0.773 1.292 1.002 1.119 0.343 1.811 0.343c0.521 0 1.017-0.051 1.485-0.153s0.932-0.222 1.389-0.356v1.424c-0.229 0.088-0.457 0.166-0.686 0.233s-0.468 0.121-0.717 0.162 -0.516 0.071-0.799 0.092c-0.285 0.021-0.6 0.031-0.945 0.031 -0.961 0-1.793-0.158-2.496-0.475s-1.285-0.765-1.744-1.345c-0.461-0.58-0.802-1.277-1.024-2.092s-0.334-1.717-0.334-2.707c0-0.973 0.128-1.863 0.382-2.672 0.256-0.809 0.63-1.503 1.125-2.083s1.109-1.031 1.842-1.354 1.573-0.483 2.522-0.483c0.633 0 1.236 0.064 1.811 0.193S76.537 34.11 77 34.356l-0.686 1.371c-0.369-0.188-0.771-0.349-1.204-0.483S74.184 35.042 73.633 35.042z"></path><path fill="#FFFFFF" d="M90.13 40.192c0 0.99-0.118 1.893-0.356 2.707 -0.236 0.814-0.59 1.512-1.059 2.092s-1.051 1.028-1.744 1.345c-0.695 0.316-1.496 0.475-2.404 0.475 -0.955 0-1.783-0.158-2.482-0.475 -0.701-0.316-1.281-0.765-1.74-1.345 -0.461-0.58-0.802-1.278-1.024-2.097 -0.223-0.816-0.334-1.724-0.334-2.72s0.111-1.899 0.334-2.712c0.223-0.811 0.565-1.504 1.028-2.078s1.046-1.018 1.749-1.332c0.703-0.313 1.532-0.47 2.487-0.47 0.908 0 1.706 0.157 2.395 0.47 0.688 0.314 1.268 0.76 1.736 1.336 0.469 0.578 0.822 1.272 1.059 2.084C90.012 38.284 90.13 39.19 90.13 40.192zM80.717 40.192c0 0.803 0.076 1.524 0.229 2.167 0.152 0.641 0.385 1.186 0.699 1.635 0.313 0.447 0.711 0.791 1.195 1.027 0.482 0.238 1.059 0.356 1.727 0.356s1.244-0.118 1.727-0.356c0.484-0.236 0.882-0.58 1.195-1.027 0.313-0.449 0.544-0.994 0.69-1.635 0.146-0.643 0.22-1.364 0.22-2.167 0-0.809-0.073-1.532-0.22-2.171s-0.375-1.179-0.686-1.621 -0.706-0.783-1.187-1.02c-0.48-0.238-1.055-0.356-1.723-0.356s-1.245 0.118-1.731 0.356c-0.486 0.236-0.888 0.577-1.204 1.02s-0.551 0.982-0.703 1.621S80.717 39.383 80.717 40.192z"></path><path fill="#FFFFFF" d="M103.412 46.634h-1.89L95.203 36h-0.07c0.035 0.451 0.064 0.899 0.088 1.345 0.023 0.381 0.042 0.779 0.057 1.195s0.022 0.791 0.022 1.125v6.97h-1.512v-12.85h1.872l6.293 10.582h0.062c-0.018-0.445-0.038-0.885-0.062-1.318 -0.006-0.188-0.014-0.379-0.021-0.576 -0.01-0.195-0.018-0.392-0.027-0.588 -0.008-0.196-0.015-0.386-0.018-0.567s-0.004-0.349-0.004-0.501v-7.031h1.529V46.634z"></path><path fill="#FFFFFF" d="M109.272 46.634h-1.635v-12.85h6.671v1.441h-5.036v4.535h4.702v1.441h-4.702V46.634z"></path><path fill="#FFFFFF" d="M124.024 46.634h-6.671v-12.85h6.671v1.441h-5.036v3.973h4.702v1.424h-4.702v4.57h5.036V46.634z"></path><path fill="#FFFFFF" d="M129.114 41.326v5.309h-1.635v-12.85h3.129c1.559 0 2.71 0.302 3.454 0.905s1.116 1.518 1.116 2.742c0 0.51-0.072 0.955-0.216 1.336s-0.334 0.708-0.57 0.979c-0.238 0.273-0.509 0.5-0.813 0.682s-0.618 0.331-0.94 0.448l3.498 5.757h-1.925l-3.085-5.309H129.114zM129.114 39.937h1.441c0.527 0 0.976-0.051 1.345-0.154 0.369-0.102 0.672-0.254 0.91-0.457 0.236-0.201 0.409-0.453 0.518-0.756 0.108-0.301 0.163-0.654 0.163-1.059 0-0.422-0.061-0.779-0.181-1.072s-0.302-0.533-0.545-0.721 -0.551-0.323-0.922-0.408c-0.373-0.085-0.813-0.128-1.323-0.128h-1.406V39.937z"></path><path fill="#FFFFFF" d="M145.755 46.634h-6.671v-12.85h6.671v1.441h-5.036v3.973h4.702v1.424h-4.702v4.57h5.036V46.634z"></path><path fill="#FFFFFF" d="M158.833 46.634h-1.89L150.625 36h-0.07c0.035 0.451 0.064 0.899 0.088 1.345 0.023 0.381 0.042 0.779 0.057 1.195s0.022 0.791 0.022 1.125v6.97h-1.512v-12.85h1.872l6.293 10.582h0.062c-0.018-0.445-0.038-0.885-0.062-1.318 -0.006-0.188-0.014-0.379-0.021-0.576 -0.01-0.195-0.018-0.392-0.027-0.588 -0.008-0.196-0.015-0.386-0.018-0.567s-0.004-0.349-0.004-0.501v-7.031h1.529V46.634z"></path><path fill="#FFFFFF" d="M168.344 35.042c-0.627 0-1.195 0.118-1.705 0.356 -0.51 0.236-0.944 0.578-1.306 1.023 -0.359 0.445-0.639 0.987-0.834 1.626 -0.197 0.639-0.295 1.359-0.295 2.162 0 0.826 0.086 1.56 0.26 2.202 0.172 0.641 0.432 1.182 0.777 1.621s0.776 0.773 1.292 1.002 1.119 0.343 1.811 0.343c0.521 0 1.017-0.051 1.485-0.153s0.932-0.222 1.389-0.356v1.424c-0.229 0.088-0.457 0.166-0.686 0.233s-0.468 0.121-0.717 0.162 -0.516 0.071-0.799 0.092c-0.285 0.021-0.6 0.031-0.945 0.031 -0.961 0-1.793-0.158-2.496-0.475s-1.285-0.765-1.744-1.345c-0.461-0.58-0.802-1.277-1.024-2.092s-0.334-1.717-0.334-2.707c0-0.973 0.128-1.863 0.382-2.672 0.256-0.809 0.63-1.503 1.125-2.083s1.109-1.031 1.842-1.354 1.573-0.483 2.522-0.483c0.633 0 1.236 0.064 1.811 0.193s1.093 0.316 1.556 0.563l-0.686 1.371c-0.369-0.188-0.771-0.349-1.204-0.483S168.895 35.042 168.344 35.042z"></path><path fill="#FFFFFF" d="M181.481 46.634h-6.671v-12.85h6.671v1.441h-5.036v3.973h4.702v1.424h-4.702v4.57h5.036V46.634z"></path></g><g><path fill-rule="evenodd" fill="#FFFFFF" d="M58.29 20H1.71C5.82 8.35 16.94 0 30 0S54.17 8.35 58.29 20z"></path></g><g><path fill-rule="evenodd" fill="#50B6B0" d="M60 30c0 3.51-0.6 6.88-1.71 10H1.71C0.6 36.88 0 33.51 0 30c0-3.51 0.6-6.88 1.71-10h56.58C59.4 23.12 60 26.49 60 30z"></path></g><g><path fill-rule="evenodd" fill="#DA6868" d="M58.29 40C54.17 51.65 43.06 60 30 60S5.82 51.65 1.71 40H58.29z"></path></g><g><g><g><path fill-rule="evenodd" fill="#364252" d="M38.904 40.318c0.021 0.31 0.042 0.627 0.063 1.018 -0.109 0.005-0.213 0.01-0.315 0.01 -0.249 0-0.432-0.03-0.604-0.1 0.034-0.49 0.018-0.943 0.003-1.383 -0.011-0.325-0.022-0.663-0.014-1.015 0.006-0.308 0.115-0.498 0.282-0.498 0.197 0 0.486 0.252 0.51 0.724C38.854 39.571 38.879 39.951 38.904 40.318z"></path></g><g><path fill-rule="evenodd" fill="#364252" d="M37.61 40.971c-0.155-0.18-0.314-0.396-0.451-0.583 -0.064-0.088-0.125-0.169-0.177-0.238 -0.003-0.015-0.004-0.029-0.004-0.044v-0.001c0.01-0.151 0.016-0.287 0.023-0.416 0.02-0.375 0.036-0.67 0.108-1.113 0.059-0.35 0.129-0.471 0.16-0.508 0.134 0.104 0.349 0.688 0.311 1.217l-0.002 0.011 0.002 0.01c0.014 0.324 0.018 0.688 0.021 1.041C37.604 40.554 37.606 40.765 37.61 40.971z"></path></g><g><path fill-rule="evenodd" fill="#364252" d="M38.972 38.405c-0.17-0.255-0.421-0.397-0.653-0.397 -0.186 0-0.395 0.093-0.519 0.332 -0.067-0.207-0.159-0.385-0.262-0.494 -0.086-0.088-0.177-0.133-0.276-0.133 -0.112 0-0.201 0.056-0.27 0.145 0.022-0.278 0.052-0.553 0.087-0.825 0.553-0.058 1.104-0.149 1.657-0.32C38.867 37.244 38.936 37.814 38.972 38.405z"></path></g></g><g><g><path fill-rule="evenodd" fill="#364252" d="M23.613 42.636c-0.004-0.387-0.008-0.775-0.011-1.245 -0.222-1.036-0.393-1.251-0.444-1.293 -0.041 0.035-0.171 0.193-0.34 0.848 -0.003 0.479-0.007 0.88-0.011 1.279 -0.003 0.4-0.007 0.799-0.01 1.271 0.269 0.13 0.541 0.175 0.824 0.209C23.619 43.313 23.615 42.974 23.613 42.636zM22.099 39.534c-0.018 0.001-0.135 0.034-0.437 0.557l-0.018 2.36c0.031 0.063 0.07 0.123 0.12 0.183 0.206 0.247 0.429 0.456 0.663 0.631l0.019-2.376C22.305 39.623 22.108 39.538 22.099 39.534zM54.548 19.149c-0.675 0.204-1.039 0.627-1.768 0.894 -2.675 0.003-5.634-0.108-8.309-0.106 -4.149-3.232-9.584-4.495-15.702-2.653 1.835 3.67 1.617 7.341 0.458 11.012 -0.154 0.488-2.454 1.924-0.57 0.357 1.908-1.587 0.715-12.636-1.632-12.653 -2.484-0.018-4.709 0.753-7.414 2.91 -0.369-0.381-0.335-0.227-0.175-0.771 -1.977-0.215-3.954 0.043-5.932 0.514 -1.104 0.114-1.86 0.6-2.267 1.626 -1.483 6.03-2.668 12.045-2.095 19.001 0.158 0.741 0.216 1.483 0.611 2.225 1.048 1.131 1.614 0.802 1.963 0.215 -0.393-2.525-0.793-6.985 1.039-9.102 0.163-0.189 0.301-0.394 0.474-0.555 1.044-0.967 2.038-1.285 2.918-1.16h0.001c1.933-0.762 2.836-2.391 2.459-4.333 -0.276-0.032-0.561-0.032-0.895-0.235 -0.015-0.114-0.028-0.229-0.043-0.342 0.718 0.34 1.74 0.447 1.613-0.643 0.102-0.028 0.248-0.036 0.35-0.064 -0.036 0.759-0.181 0.83-0.654 1.155 0.238 1.578-0.123 3.037-1.571 4.558 -0.043 0.119-0.027 0.276 0.003 0.426 0.935 0.671 1.627 1.884 1.939 3.233 0.061 0.782 0.1 1.563 0.119 2.347 0.424 0.158 0.707 0.466 0.858 0.931 0.165-0.354 0.333-0.515 0.534-0.515 0.132 0 0.247 0.065 0.353 0.21 -0.018-0.827-0.063-1.624-0.112-2.37 -0.385-0.638-1.061-1.109-1.607-1.447l-0.008-0.005 0.001-0.009c0.021-0.1-0.007-0.203-0.034-0.304 -0.011-0.038-0.022-0.078-0.029-0.118l-0.006-0.02 0.244 0.048c0.376 0.299 0.752 0.597 1.128 0.894 0.166-0.083 0.278-0.194 0.334-0.331l0.004-0.009h0.009c0.13 0 0.304 0.056 0.382 0.177l0.003 0.004v0.004c0.007 0.356-0.003 0.72-0.012 1.07 -0.009 0.349-0.019 0.71-0.011 1.064 0.126 0.125 0.199 0.251 0.216 0.377h0.021c0.348 0 0.698 0.045 1.039 0.089 0.108 0.014 0.217 0.026 0.326 0.04l0.01 0.001 0.003 0.009c0.013 0.057 0.028 0.104 0.043 0.149 0.014 0.046 0.028 0.094 0.043 0.15l0.005 0.017 -0.019-0.001c-0.284-0.021-0.617-0.044-0.923-0.044 -0.244 0-0.451 0.014-0.633 0.043v0.294c0.064-0.009 0.135-0.013 0.215-0.013 0.258 0 0.587 0.045 0.967 0.096l0.038 0.007 0.001 0.009c0.008 0.05 0.015 0.084 0.022 0.117 0.007 0.034 0.015 0.067 0.022 0.119l0.002 0.016 -0.018-0.002c-0.221-0.021-0.421-0.032-0.611-0.032 -0.243 0-0.466 0.017-0.682 0.052 0.01 0.31 0.017 0.608 0.023 0.897 0.029 0.123 0.061 0.257 0.09 0.401l0.005 0.023 -0.001 0.021c-0.006 0.109-0.016 0.219-0.026 0.328 0.138-0.159 0.273-0.252 0.422-0.252 0.283 0 0.468 0.296 0.598 0.993 0.136-0.305 0.281-0.438 0.459-0.438 0.288 0 0.501 0.369 0.715 1.259 0.214-0.36 0.424-0.531 0.651-0.531 0.38 0 0.659 0.457 0.907 1.48l0.004 0.021 0.02 0.186c0.07 0.646 0.122 1.115 0.09 1.839 0.323-0.036 0.637-0.099 0.938-0.18 0.607-0.163 0.987-0.535 1.591-0.774 0.407-2.567 0.349-4.821-0.174-6.933 0-0.313-0.109-0.521-0.109-0.834 0.175 0.057 0.371 0.064 0.546 0.235 -0.353 1.257 4.465 2.12 10.073 0.599 0.061-0.22-0.047-0.492 0.092-0.569 0.195-0.109 0.39-0.134 0.585-0.073 0.029 0.399 0.036 0.8 0.065 1.199 0.138 0.051 1.239 0.033 1.309 0.021 -0.399 0.356-0.763 0.35-1.048 0.364 0.096 0-0.053 0.184 0.034 0.201 0.261 0.059 0.752-0.03 0.948 0.056 -0.38 0.223-0.813 0.098-1.068 0.343 0.01 0.218 0.019 0.438 0.025 0.66 0.124-0.271 0.291-0.421 0.489-0.421 0.33 0 0.565 0.405 0.676 1.153 0.143-0.348 0.343-0.443 0.52-0.443 0.153 0 0.311 0.08 0.453 0.23 0.2 0.211 0.354 0.53 0.439 0.878 0.141-0.282 0.353-0.396 0.551-0.396 0.421 0 0.863 0.499 0.893 1.454 0.012 0.41 0.047 0.781 0.084 1.175 0.016 0.183 0.033 0.367 0.048 0.56 0.602-0.174 1.188-0.498 1.754-0.999 0.306-3.119-0.041-5.474-0.175-8.045 -0.204-0.028-0.406-0.057-0.61-0.086 3.188-4.213 3.802-8.52 1.134-12.41 -0.029-0.171-0.146-0.343-0.174-0.514 2.325-0.086 4.717 0.149 7.043 0.064 0.647 0.232 1.294 0.418 1.94 0.535C55.101 20.809 55.224 18.946 54.548 19.149zM13.731 20.901c-0.03-0.087-0.013-0.183 0.034-0.264 0.083-0.145 0.139-0.151 0.271-0.164 0.638-0.062 1.22 0.013 1.855 0.253 0.062 0.15 0.049 0.229-0.152 0.236 -0.433-0.131-0.864-0.185-1.297 0.064 -0.172 0.036-0.347 0.071-0.516 0.04C13.794 21.043 13.783 21.05 13.731 20.901zM15.585 24.467c-0.376 0.217-0.931 0.368-1.313 0.053 -0.188-0.156-0.326-0.354-0.35-0.6 -0.031-0.321-0.036-0.742 0.136-1.031 0.219-0.367 0.57-0.624 1.005-0.875 0.288-0.009 0.317 0.121 0.284 0.344 -0.492 0.032-0.742 0.26-0.883 0.536 -0.025 0.046-0.022 0.081-0.002 0.069 0.388-0.241 0.931-0.387 1.275-0.265C16.83 23.09 16.207 24.106 15.585 24.467zM41.752 42.414c-0.082-0.656-0.158-1.276-0.108-1.983 0.041-0.562-0.182-1.122-0.411-1.363 -0.073-0.077-0.145-0.12-0.197-0.12 -0.108 0-0.321 0.257-0.355 1.233 -0.012 0.33-0.016 0.633-0.008 0.923 0.008 0.38 0.031 0.737 0.073 1.106 0.001 0.02 0.004 0.04 0.006 0.06 0.318 0.094 0.685 0.165 1.011 0.223C41.758 42.465 41.756 42.439 41.752 42.414zM40.576 42.294c0.002 0.001 0.003 0.001 0.003 0.001 -0.003-0.024-0.007-0.05-0.008-0.074L40.576 42.294zM40.223 39.629c-0.07-1.15-0.334-1.394-0.383-1.394 -0.065 0-0.324 0.315-0.364 1.261 -0.015 0.354-0.011 0.642-0.007 0.918 0.004 0.294 0.007 0.574-0.01 0.909 0.003 0.088 0.007 0.177 0.011 0.266 0.003 0.057 0.005 0.115 0.008 0.172 0.186 0.108 0.371 0.208 0.558 0.298 0.118 0.059 0.237 0.112 0.357 0.162 0 0 0 0 0.001 0l-0.071-1.082L40.223 39.629zM43.105 41.974c-0.037-0.398-0.071-0.774-0.084-1.195 -0.022-0.73-0.329-1.119-0.542-1.119 -0.158 0-0.339 0.25-0.362 0.801 -0.021 0.515-0.014 1.02-0.006 1.508 0.003 0.178 0.005 0.355 0.006 0.532v0.038h0.004c0.166 0.011 0.323 0.021 0.482 0.021 0.203 0 0.381-0.019 0.549-0.055C43.137 42.323 43.122 42.148 43.105 41.974zM20.861 37.764c0 0.001-0.114 0.041-0.289 0.495l-0.041 2.969c0.169 0.054 0.354 0.087 0.554 0.099 0.098-0.929 0.138-1.854 0.14-2.752C21.019 37.82 20.87 37.766 20.861 37.764zM19.479 37.384c0.018 0.974 0.004 1.947-0.042 2.922 0.143 0.259 0.319 0.469 0.527 0.629 0.006-0.441 0.011-0.854 0.018-1.267 0.007-0.516 0.015-1.033 0.021-1.609C19.901 37.737 19.733 37.519 19.479 37.384z"></path></g></g><g><g><path fill-rule="evenodd" fill="#364252" d="M14.959 24.073c0.001 0.06 0.016 0.119 0.034 0.185 0.012 0.045 0.038 0.073 0.034 0.076 -0.104 0.061-0.231 0.087-0.344 0.036 -0.38-0.17-0.36-0.7-0.157-0.988 0.214-0.302 0.611-0.515 0.918-0.499 0.202 0.107 0.263 0.201 0.163 0.225 -0.085 0.021-0.125 0.031-0.181 0.059 -0.057 0.028-0.129 0.074-0.168 0.188 0.087 0.028 0.131 0.004 0.218 0.032 0 0.079 0 0.189 0 0.269 -0.083-0.036-0.177-0.063-0.278-0.031C15.031 23.677 14.955 23.918 14.959 24.073z"></path></g></g><g><g><path fill-rule="evenodd" fill="#364252" d="M43.152 42.505c-0.168 0.036-0.346 0.055-0.549 0.055 -0.159 0-0.316-0.011-0.482-0.021h-0.004V42.5c-0.001-0.177-0.003-0.354-0.006-0.532 -0.008-0.488-0.015-0.993 0.006-1.508 0.023-0.551 0.204-0.801 0.362-0.801 0.213 0 0.52 0.389 0.542 1.119 0.013 0.421 0.047 0.797 0.084 1.195C43.122 42.148 43.137 42.323 43.152 42.505z"></path></g></g><g><g><path fill-rule="evenodd" fill="#364252" d="M40.399 42.295c-0.12-0.055-0.241-0.14-0.363-0.236 -0.187-0.09-0.372-0.189-0.558-0.298 -0.003-0.057-0.005-0.115-0.008-0.172 -0.009-0.008-0.019-0.014-0.027-0.021 0.008-0.085 0.013-0.167 0.017-0.245 0.017-0.335 0.014-0.615 0.01-0.909 -0.004-0.276-0.008-0.564 0.007-0.918 0.04-0.945 0.299-1.261 0.364-1.261 0.049 0 0.313 0.243 0.383 1.394l0.1 1.51 0.071 1.082 0.001 0.021L40.399 42.295z"></path></g></g><g><g><path fill-rule="evenodd" fill="#364252" d="M25.2 43.873c-0.119 0.011-0.244 0.017-0.379 0.017 -0.258 0-0.522-0.021-0.781-0.042v-2.415c0.282-0.585 0.452-0.616 0.484-0.616 0.027 0 0.278 0.034 0.563 1.206l0.019 0.174C25.171 42.793 25.219 43.235 25.2 43.873z"></path></g></g><g><g><path fill-rule="evenodd" fill="#364252" d="M23.622 43.704c-0.283-0.034-0.556-0.079-0.824-0.209 0.003-0.472 0.007-0.87 0.01-1.271 0.004-0.399 0.008-0.801 0.011-1.279 0.169-0.654 0.299-0.813 0.34-0.848 0.052 0.042 0.223 0.257 0.444 1.293 0.003 0.47 0.007 0.858 0.011 1.245C23.615 42.974 23.619 43.313 23.622 43.704z"></path></g></g><g><g><path fill-rule="evenodd" fill="#364252" d="M38.904 40.318c0.021 0.31 0.042 0.627 0.063 1.018 -0.109 0.005-0.213 0.01-0.315 0.01 -0.249 0-0.432-0.03-0.604-0.1 0.034-0.49 0.018-0.943 0.003-1.383 -0.011-0.325-0.022-0.663-0.014-1.015 0.006-0.308 0.115-0.498 0.282-0.498 0.197 0 0.486 0.252 0.51 0.724C38.854 39.571 38.879 39.951 38.904 40.318z"></path></g></g><g><g><path fill-rule="evenodd" fill="#364252" d="M37.601 40.346c0.003 0.208 0.005 0.419 0.009 0.625 -0.155-0.18-0.314-0.396-0.451-0.583 -0.064-0.088-0.125-0.169-0.177-0.238 -0.003-0.002-0.005-0.005-0.007-0.007 0.002-0.013 0.002-0.024 0.003-0.037v-0.001c0.01-0.151 0.016-0.287 0.023-0.416 0.02-0.375 0.036-0.67 0.108-1.113 0.059-0.35 0.129-0.471 0.16-0.508 0.134 0.104 0.349 0.688 0.311 1.217l-0.002 0.011 0.002 0.01C37.594 39.629 37.598 39.993 37.601 40.346z"></path></g></g></g></g></svg>