<svg width="340" height="152" viewBox="0 0 340 152" fill="none" xmlns="http://www.w3.org/2000/svg">
<g clip-path="url(#clip0_17_2857)">
<path d="M54.5918 91.5526H42.168L52.0447 45.1515H64.4685L54.5918 91.5526Z" fill="#1A1A18"/>
<path d="M61.0205 91.5526L70.8972 45.1515H94.3164C105.87 45.1515 109.225 50.0391 106.616 62.1656C103.821 75.2201 99.9694 79.6745 86.9869 79.6745H75.9915L73.4451 91.5533H61.0212L61.0205 91.5526ZM86.8 68.9084C91.7074 68.723 92.5155 68.1659 93.8196 62.1649C94.8139 57.4012 94.379 55.9162 89.5334 55.9162H81.0234L78.29 68.9084H86.8Z" fill="#1A1A18"/>
<path d="M147.476 73.9822L147.228 75.3433C146.109 80.4163 145.116 84.9953 140.084 88.5217C135.177 91.9865 130.02 91.9243 124.616 91.9243C111.944 91.9243 102.812 91.3056 106.415 74.3538L108.962 62.3518C112.255 47.0081 121.014 44.7813 134.68 44.7813C147.477 44.7813 153.13 46.0809 150.396 60.0011L150.024 61.7954H137.227L137.599 60.0011C138.096 55.856 135.239 55.5467 131.015 55.5467C123.933 55.5467 122.753 57.712 121.387 64.3323L119.834 71.5706C118.343 78.5002 118.094 81.1603 125.549 81.1603C130.705 81.1603 133.252 80.7894 134.432 75.3447L134.68 73.9836H147.477L147.476 73.9822Z" fill="#1A1A18"/>
<path d="M126.387 8.46382C140.335 13.2488 147.392 16.8304 150.185 19.3297C152.039 20.9853 151.97 21.6075 149.261 22.4385C143.026 24.3525 129.262 23.1237 126.143 20.6675C100.765 0.686174 69.2405 -4.31465 47.5299 11.3957C19.5216 31.663 19.3581 77.9098 45.9947 114.423C57.9765 130.847 77.9751 142.745 98.0121 149.897C102.552 151.519 98.8721 152.851 92.4053 151.335C88.6841 150.461 84.9088 149.369 81.0347 148.042C25.5384 129.011 -10.4525 82.241 2.72474 44.125C15.9204 5.95952 70.9619 -10.5421 126.387 8.46382Z" fill="#990027"/>
<path d="M54.5909 91.5526H42.167L52.0437 45.1515H64.4676L54.5909 91.5526Z" fill="black"/>
<path d="M61.0195 91.5526L70.8962 45.1515H94.3154C105.869 45.1515 109.224 50.0391 106.615 62.1656C103.82 75.2201 99.9684 79.6745 86.9859 79.6745H75.9906L73.4441 91.5533H61.0202L61.0195 91.5526ZM86.799 68.9084C91.7064 68.723 92.5145 68.1659 93.8187 62.1649C94.8129 57.4012 94.378 55.9162 89.5324 55.9162H81.0224L78.289 68.9084H86.799Z" fill="black"/>
<path d="M147.475 73.9822L147.227 75.3433C146.108 80.4163 145.115 84.9953 140.083 88.5217C135.176 91.9865 130.019 91.9243 124.615 91.9243C111.943 91.9243 102.811 91.3056 106.414 74.3538L108.961 62.3518C112.254 47.0081 121.013 44.7813 134.679 44.7813C147.476 44.7813 153.129 46.0809 150.395 60.0011L150.023 61.7954H137.226L137.598 60.0011C138.095 55.856 135.238 55.5467 131.014 55.5467C123.932 55.5467 122.752 57.712 121.386 64.3323L119.833 71.5706C118.342 78.5002 118.093 81.1603 125.548 81.1603C130.704 81.1603 133.251 80.7894 134.431 75.3447L134.679 73.9836H147.476L147.475 73.9822Z" fill="black"/>
<path d="M126.387 8.46388C140.335 13.2488 147.392 16.8304 150.185 19.3298C152.039 20.9854 151.97 21.6076 149.261 22.4386C143.026 24.3526 129.262 23.1238 126.143 20.6676C100.765 0.686235 69.2405 -4.31459 47.5299 11.3957C19.5216 31.663 19.3581 77.9099 45.9947 114.423C57.9765 130.847 77.9751 142.745 98.0121 149.897C102.552 151.519 98.8721 152.851 92.4053 151.335C88.6841 150.461 84.9088 149.369 81.0347 148.042C25.5384 129.011 -10.4525 82.2411 2.72474 44.1251C15.9204 5.95958 70.9619 -10.5421 126.387 8.46388Z" fill="#990027"/>
</g>
<path d="M161.407 65.1671H159.204L163.325 46.9091H165.527L161.407 65.1671Z" fill="black"/>
<path d="M169.314 53.9445C170.298 52.4107 172.345 52.2404 173.9 52.2404C177.398 52.2404 178.875 53.116 178.02 56.671L176.102 65.1671H174.055L175.998 56.5249C176.542 54.1884 175.661 53.7984 173.355 53.7984C170.013 53.7984 169.08 54.772 168.406 57.7178L166.721 65.1671H164.674L167.576 52.3865H169.624L169.261 53.9445H169.314Z" fill="black"/>
<path d="M184.074 53.9445L182.233 62.051C181.948 63.4389 182.259 63.7551 183.762 63.7551C185.68 63.7551 185.912 62.8056 186.172 61.5885L186.405 60.6391H188.349L188.116 61.5885C187.546 64.1205 186.172 65.3131 183.374 65.3131C180.187 65.3131 179.643 64.4607 180.317 61.4668L182.027 53.9445H180.213L180.576 52.3865H182.389L183.09 49.2948H185.137L184.437 52.3865H189.696L189.334 53.9445H184.074Z" fill="black"/>
<path d="M201.194 61.2964L201.091 61.7589C200.313 65.1432 197.515 65.3131 194.483 65.3131C189.171 65.3131 188.73 63.6581 189.844 58.7889C191.037 53.4819 192.565 52.2404 197.436 52.2404C201.841 52.2404 203.034 53.19 201.945 57.9126L201.66 59.2028H191.866C190.959 63.2438 191.141 63.7551 194.82 63.7551C197.618 63.7551 198.577 63.5848 198.992 61.7833L199.096 61.2964H201.194ZM199.899 57.6448C200.599 54.0175 200.184 53.7984 197.075 53.7984C193.369 53.7984 193.032 54.699 192.229 57.6448H199.899Z" fill="black"/>
<path d="M208.102 52.3865L207.636 53.9688L207.661 54.0175C208.698 52.6049 210.408 52.2404 211.938 52.2404C214.555 52.2404 215.435 53.4573 214.891 55.8433L214.683 56.7684H212.74L212.947 55.9177C213.31 54.335 212.843 53.7984 211.133 53.7984C208.593 53.7984 207.505 54.9437 207.065 57.2079L205.251 65.1684H203.204L206.106 52.3865H208.101H208.102Z" fill="black"/>
<path d="M219.425 53.9445C220.409 52.4107 222.456 52.2404 224.011 52.2404C227.509 52.2404 228.986 53.116 228.131 56.671L226.213 65.1671H224.166L226.109 56.5249C226.653 54.1884 225.772 53.7984 223.466 53.7984C220.124 53.7984 219.191 54.772 218.517 57.7178L216.832 65.1671H214.785L217.687 52.3865H219.735L219.372 53.9445H219.425Z" fill="black"/>
<path d="M238.714 65.1671L238.999 63.8525L238.973 63.8052C237.859 65.266 235.864 65.3145 234.153 65.3145C231.096 65.3145 229.074 64.7792 229.852 61.4438C230.63 57.9142 232.702 57.4257 236.071 57.4257C237.419 57.4257 240.036 57.5483 240.036 58.7173H240.165L240.709 56.3545C241.227 54.018 239.958 53.7984 237.652 53.7984C236.045 53.7984 234.076 53.7985 233.713 55.5512L233.61 55.9907H231.485L231.536 55.7229C232.288 52.4364 234.75 52.2163 237.782 52.2404C241.202 52.2163 243.637 52.5575 242.731 56.4533L240.762 65.1684H238.715L238.714 65.1671ZM239.517 61.3694C240.062 58.9592 238.532 58.9837 235.941 58.9837C233.505 58.9837 232.494 59.1296 232.027 61.199C231.457 63.6333 232.494 63.7551 234.852 63.7551C236.899 63.7551 238.999 63.7072 239.517 61.3694Z" fill="black"/>
<path d="M248.664 53.9445L246.824 62.051C246.539 63.4389 246.85 63.7551 248.353 63.7551C250.27 63.7551 250.504 62.8056 250.763 61.5885L250.997 60.6391H252.94L252.707 61.5885C252.137 64.1205 250.763 65.3131 247.964 65.3131C244.778 65.3131 244.233 64.4607 244.907 61.4668L246.617 53.9445H244.803L245.166 52.3865H246.98L247.68 49.2948H249.727L249.028 52.3865H254.287L253.924 53.9445H248.664Z" fill="black"/>
<path d="M255.514 65.1671H253.466L256.368 52.3865H258.416L255.514 65.1671ZM259.168 49.027H257.12L257.586 46.9091H259.633L259.168 49.027Z" fill="black"/>
<path d="M267.351 52.2404C272.404 52.2404 273.13 53.3842 271.912 58.7889C270.694 64.169 269.45 65.3131 264.397 65.3131C259.344 65.3131 258.619 64.1696 259.837 58.7889C261.054 53.3842 262.299 52.2404 267.351 52.2404ZM264.734 63.7551C268.387 63.7551 268.776 63.2196 269.787 58.7889C270.798 54.3335 270.642 53.7971 266.988 53.7971C263.335 53.7971 262.972 54.3335 261.962 58.7889C260.951 63.2203 261.08 63.7551 264.734 63.7551Z" fill="black"/>
<path d="M278.086 53.9445C279.071 52.4107 281.117 52.2404 282.672 52.2404C286.17 52.2404 287.647 53.116 286.792 56.671L284.875 65.1671H282.827L284.771 56.5249C285.315 54.1884 284.434 53.7984 282.128 53.7984C278.785 53.7984 277.852 54.772 277.178 57.7178L275.493 65.1671H273.447L276.348 52.3865H278.396L278.033 53.9445H278.086Z" fill="black"/>
<path d="M297.375 65.1671L297.66 63.8525L297.635 63.8052C296.52 65.266 294.525 65.3145 292.815 65.3145C289.757 65.3145 287.735 64.7792 288.513 61.4438C289.291 57.9142 291.364 57.4257 294.732 57.4257C296.08 57.4257 298.697 57.5483 298.697 58.7173H298.826L299.37 56.3545C299.888 54.018 298.619 53.7984 296.313 53.7984C294.706 53.7984 292.737 53.7985 292.374 55.5512L292.271 55.9907H290.146L290.198 55.7229C290.949 52.4364 293.411 52.2163 296.443 52.2404C299.863 52.2163 302.298 52.5575 301.392 56.4533L299.423 65.1684H297.376L297.375 65.1671ZM298.178 61.3694C298.723 58.9592 297.193 58.9837 294.603 58.9837C292.166 58.9837 291.155 59.1296 290.689 61.199C290.119 63.6333 291.156 63.7551 293.513 63.7551C295.561 63.7551 297.66 63.7072 298.178 61.3694Z" fill="black"/>
<path d="M304.737 65.1671H302.69L306.809 46.9091H308.857L304.737 65.1671Z" fill="black"/>
<path d="M153.31 90.6661L157.127 73.7443H166.18C170.646 73.7443 171.943 75.5271 170.934 79.9493C169.854 84.7097 168.365 86.3342 163.346 86.3342H159.096L158.111 90.6661H153.31ZM163.275 82.408C165.171 82.3403 165.484 82.1379 165.988 79.9493C166.373 78.2122 166.205 77.6704 164.332 77.6704H161.042L159.985 82.408H163.275Z" fill="black"/>
<path d="M186.029 90.6661H181.226L182.715 84.0323H176.448L174.958 90.6661H170.156L173.974 73.7443H178.776L177.336 80.1075H183.602L185.043 73.7443H189.845L186.027 90.6661H186.029Z" fill="black"/>
<path d="M188.727 90.6661L192.545 73.7443H201.597C206.064 73.7443 207.36 75.5271 206.352 79.9493C205.271 84.7097 203.782 86.3342 198.764 86.3342H194.513L193.529 90.6661H188.727ZM198.692 82.408C200.589 82.3403 200.902 82.1379 201.406 79.9493C201.79 78.2122 201.622 77.6704 199.748 77.6704H196.458L195.402 82.408H198.692Z" fill="black"/>
<path d="M218.931 90.8C215.653 90.8 214.146 88.8669 214.912 85.4957L216.395 78.9769C217.472 74.2113 220.726 73.6726 225.08 73.6726H226.754C230.51 73.6726 231.299 75.2016 230.558 78.5279L230.438 79.0675H228.405L228.5 78.5941C229.026 76.2342 228.716 75.3577 226.084 75.3577H224.935C220.725 75.3577 219.122 75.8299 218.428 78.9093L217.375 83.54C216.514 87.3837 216.299 89.1135 219.696 89.1135H222.113C225.366 89.1135 226.466 88.6864 226.993 86.2814L227.304 84.9331H229.338L228.979 86.506C228.118 90.3717 225.391 90.8 221.802 90.8H218.931Z" fill="black"/>
<path d="M237.93 78.7294C242.596 78.7294 243.264 79.7864 242.14 84.7762C241.016 89.7438 239.868 90.8 235.202 90.8C230.537 90.8 229.867 89.7438 230.991 84.7762C232.116 79.7864 233.265 78.7294 237.93 78.7294ZM235.513 89.3623C238.886 89.3623 239.245 88.8674 240.178 84.7762C241.112 80.6628 240.968 80.1684 237.595 80.1684C234.222 80.1684 233.887 80.6628 232.954 84.7762C232.021 88.8667 232.141 89.3623 235.513 89.3623Z" fill="black"/>
<path d="M247.805 80.3023H247.853C248.762 78.8864 250.652 78.7294 252.088 78.7294C255.317 78.7294 256.68 79.5392 255.891 82.8205L254.121 90.6647H252.231L254.025 82.6853C254.528 80.5273 253.713 80.1684 251.585 80.1684C248.499 80.1684 247.637 81.0672 247.016 83.7875L245.461 90.6661H243.571L246.25 78.8646H248.14L247.805 80.3023Z" fill="black"/>
<path d="M265.503 78.8646L265.168 80.3036H261.843L259.498 90.6661H257.608L259.952 80.3036H258.038L258.373 78.8646H260.287L260.599 77.4486C261.244 74.5713 262.416 73.6726 265.503 73.6726C265.885 73.6726 266.268 73.6964 266.652 73.7186L266.34 75.1562C265.957 75.1334 265.55 75.1116 265.168 75.1116C263.278 75.1116 262.895 75.6952 262.536 77.2688L262.178 78.8646H265.503Z" fill="black"/>
<path d="M275.047 87.0916L274.952 87.5189C274.234 90.6432 271.65 90.8 268.851 90.8C263.947 90.8 263.539 89.2714 264.568 84.7762C265.669 79.8764 267.081 78.7294 271.578 78.7294C275.645 78.7294 276.745 79.6071 275.74 83.9674L275.477 85.1589H266.434C265.597 88.8898 265.764 89.3623 269.16 89.3623C271.744 89.3623 272.63 89.204 273.013 87.5406L273.109 87.0916H275.047ZM273.851 83.7199C274.497 80.3708 274.114 80.1684 271.243 80.1684C267.822 80.1684 267.511 81.0003 266.77 83.7199H273.851Z" fill="black"/>
<path d="M281.437 78.8646L281.006 80.3253L281.03 80.3713C281.987 79.0675 283.567 78.7294 284.979 78.7294C287.395 78.7294 288.208 79.8541 287.705 82.0564L287.514 82.9112H285.72L285.911 82.1254C286.246 80.6646 285.816 80.1684 284.237 80.1684C281.893 80.1684 280.887 81.2253 280.481 83.3155L278.806 90.6661H276.916L279.595 78.866L281.437 78.8646Z" fill="black"/>
<path d="M298.982 87.0916L298.887 87.5189C298.169 90.6432 295.585 90.8 292.786 90.8C287.882 90.8 287.475 89.2714 288.503 84.7762C289.604 79.8764 291.015 78.7294 295.513 78.7294C299.579 78.7294 300.68 79.6071 299.675 83.9674L299.412 85.1589H290.368C289.531 88.8898 289.7 89.3623 293.096 89.3623C295.68 89.3623 296.564 89.204 296.948 87.5406L297.043 87.0916H298.982ZM297.786 83.7199C298.432 80.3708 298.049 80.1684 295.178 80.1684C291.757 80.1684 291.446 81.0003 290.704 83.7199H297.786Z" fill="black"/>
<path d="M305.208 80.3023H305.256C306.165 78.8864 308.055 78.7294 309.49 78.7294C312.72 78.7294 314.084 79.5392 313.295 82.8205L311.524 90.6647H309.634L311.428 82.6853C311.931 80.5273 311.117 80.1684 308.989 80.1684C305.903 80.1684 305.041 81.0672 304.419 83.7875L302.864 90.6661H300.974L303.653 78.8646H305.543L305.208 80.3023Z" fill="black"/>
<path d="M326.011 86.3951L325.868 87.0469C325.126 90.3732 322.686 90.8 319.696 90.8C314.48 90.8 314.552 88.9118 315.533 84.5287C316.394 80.6851 317.567 78.7294 322.112 78.7294C325.151 78.7294 327.472 79.0448 326.705 82.3945L326.633 82.7096H324.743L324.839 82.3499C325.317 80.214 324.074 80.1684 321.896 80.1684C318.547 80.1684 318.236 81.2478 317.375 85.0237C316.634 88.3506 316.538 89.3623 320.221 89.3623C322.59 89.3623 323.523 89.1152 324.002 86.9807L324.122 86.3964H326.012L326.011 86.3951Z" fill="black"/>
<path d="M338.958 87.0916L338.863 87.5189C338.146 90.6432 335.561 90.8 332.762 90.8C327.858 90.8 327.451 89.2714 328.479 84.7762C329.58 79.8764 330.992 78.7294 335.489 78.7294C339.556 78.7294 340.657 79.6071 339.652 83.9674L339.388 85.1589H330.345C329.508 88.8898 329.675 89.3623 333.072 89.3623C335.656 89.3623 336.54 89.204 336.924 87.5406L337.02 87.0916H338.958ZM337.761 83.7199C338.408 80.3708 338.025 80.1684 335.154 80.1684C331.733 80.1684 331.422 81.0003 330.68 83.7199H337.761Z" fill="black"/>
<defs>
<clipPath id="clip0_17_2857">
<rect width="151.455" height="151.455" fill="white" transform="translate(0 0.54541)"/>
</clipPath>
</defs>
</svg>
