<?xml version="1.0" encoding="utf-8"?>
<!-- Generator: Adobe Illustrator 18.1.1, SVG Export Plug-In . SVG Version: 6.00 Build 0)  -->
<svg version="1.1" id="Layer_1" xmlns="http://www.w3.org/2000/svg" xmlns:xlink="http://www.w3.org/1999/xlink" x="0px" y="0px"
	 viewBox="0 0 80 17.46" enable-background="new 0 0 80 17.46" xml:space="preserve">
<path d="M7.8,17.46c-4.81,0-7.8-3.49-7.8-9.1C0,3.44,3.24,0,7.87,0c4.71,0,7.63,3.35,7.63,8.75C15.5,14.04,12.48,17.46,7.8,17.46
	 M7.87,0.93c-4.07,0-6.8,2.99-6.8,7.43c0,5.21,2.41,8.2,6.63,8.2c4.22,0,6.74-2.87,6.74-7.67C14.43,3.83,12.04,0.93,7.87,0.93"/>
<path d="M23.61,17.46c-2.75,0-4.43-0.86-5.6-2.86L18,16.38c0,0.37-0.18,0.59-0.48,0.59c-0.33,0-0.52-0.21-0.52-0.59v-4.61
	c0-0.37,0.19-0.59,0.52-0.59c0.47,0,0.49,0.26,0.55,1.11c0.2,2.49,2.46,4.24,5.47,4.24c3.2,0,5.26-1.53,5.26-3.91
	c0-0.83-0.31-1.57-0.88-2.07c-0.67-0.63-1.39-0.9-3.07-1.14l-2.28-0.35c-3.59-0.53-5.27-1.91-5.27-4.35c0-2.77,2.46-4.7,5.98-4.7
	c2.32,0,4.07,0.8,5.18,2.39l0.01-1.31c0-0.37,0.18-0.59,0.48-0.59c0.33,0,0.52,0.21,0.52,0.59v4.29c0,0.37-0.19,0.59-0.52,0.59
	c-0.15,0-0.48-0.06-0.48-0.62c0.01-1.2-0.37-2.23-1.11-2.98c-0.91-0.93-2.33-1.42-4.08-1.42c-2.92,0-4.88,1.49-4.88,3.7
	c0,1.77,1.36,2.93,3.84,3.28l2.07,0.28c2.79,0.43,3.79,0.82,4.68,1.86c0.6,0.79,0.9,1.65,0.9,2.56
	C29.91,15.51,27.38,17.46,23.61,17.46"/>
<path fill="#B9002D" d="M38.51,17.46c-4.73,0-7.56-3.2-7.56-8.57C30.95,3.4,33.81,0,38.41,0c2.61,0,4.64,1.16,5.74,3.26l0.01-2.11
	c0-0.37,0.18-0.59,0.48-0.59c0.33,0,0.52,0.21,0.52,0.59v5.13c0,0.37-0.19,0.59-0.52,0.59c-0.41,0-0.52-0.31-0.59-0.93
	c-0.24-3.09-2.38-5.01-5.58-5.01c-3.86,0-6.45,3.14-6.45,7.82c0,2.18,0.59,4.18,1.66,5.64c1.11,1.46,2.66,2.18,4.72,2.18
	c2.97,0,5.13-1.64,5.51-4.17c0.14-0.75,0.22-1,0.66-1c0.36,0,0.59,0.25,0.59,0.66c0,0.93-0.63,2.32-1.53,3.37
	C42.41,16.79,40.73,17.46,38.51,17.46"/>
<path fill="#B9002D" d="M54.47,17.46c-4.81,0-7.8-3.49-7.8-9.1C46.67,3.44,49.9,0,54.54,0c4.71,0,7.63,3.35,7.63,8.75
	C62.17,14.04,59.14,17.46,54.47,17.46 M54.54,0.93c-4.07,0-6.8,2.99-6.8,7.43c0,5.21,2.42,8.2,6.63,8.2c4.22,0,6.73-2.87,6.73-7.67
	C61.1,3.83,58.71,0.93,54.54,0.93"/>
<path fill="#B9002D" d="M73.28,16.97c-0.3,0-0.48-0.16-0.48-0.41s0.18-0.41,0.48-0.41h2.28c0.3,0,0.39-0.09,0.39-0.4V5.72
	c0-3.11-1.79-4.83-5.05-4.83c-3.4,0-5.51,2.31-5.51,6.02v8.82c0,0.3,0.1,0.4,0.39,0.4h2.24c0.45,0,0.52,0.26,0.52,0.41
	s-0.07,0.41-0.52,0.41h-6.27c-0.3,0-0.48-0.16-0.48-0.41s0.18-0.41,0.48-0.41h2.21c0.3,0,0.39-0.09,0.39-0.4V1.71
	c0-0.3-0.1-0.4-0.39-0.4h-2.21c-0.3,0-0.48-0.16-0.48-0.41s0.18-0.41,0.48-0.41h3.05c0.4,0,0.59,0.19,0.59,0.59v2.19
	C66.56,1.1,68.47,0,71.08,0c1.76,0,3.41,0.53,4.41,1.43c1.04,0.94,1.51,2.25,1.51,4.26v10.06c0,0.3,0.09,0.4,0.39,0.4h2.14
	c0.3,0,0.48,0.15,0.48,0.41c0,0.26-0.18,0.41-0.48,0.41L73.28,16.97L73.28,16.97z"/>
</svg>
