<?xml version="1.0" encoding="utf-8"?>
<svg viewBox="0 0 276 80" fill="none" xmlns="http://www.w3.org/2000/svg" class="fill-current h-10 lg:h-12 w-auto"><path d="M39.7575 79.6858L5.69022 19.885L74.5523 20.4292L39.7575 79.6858Z" fill="#FC8181"></path><path d="M40.1973 70.471L11.0798 20.0356L69.9282 20.5006L40.1973 70.471Z" fill="#F56565"></path><path d="M24.8062 72.8265L31.9936 53.9965L40.1467 62.0084L24.8062 72.8265Z" fill="#CBD5E0"></path><path d="M54.6598 72.8265L47.4724 53.9965L39.3193 62.0084L54.6598 72.8265Z" fill="#CBD5E0"></path><path d="M20.8169 19.5918L31.8235 14.1497H48.5727L59.34 19.8825L39.8419 79.4558L20.8169 19.5918Z" fill="#E53E3E"></path><path d="M89 27.96C90.76 27.96 92.3067 28.32 93.64 29.04C94.9733 29.76 96 30.7867 96.72 32.12C97.4667 33.4267 97.84 34.9333 97.84 36.64C97.84 38.32 97.4533 39.8 96.68 41.08C95.9333 42.36 94.8667 43.36 93.48 44.08C92.12 44.7733 90.5467 45.12 88.76 45.12H83.08C82.9467 45.12 82.88 45.1867 82.88 45.32V55.52C82.88 55.6533 82.8267 55.7733 82.72 55.88C82.64 55.96 82.5333 56 82.4 56H77.72C77.5867 56 77.4667 55.96 77.36 55.88C77.28 55.7733 77.24 55.6533 77.24 55.52V28.44C77.24 28.3067 77.28 28.2 77.36 28.12C77.4667 28.0133 77.5867 27.96 77.72 27.96H89ZM88.16 40.6C89.3867 40.6 90.3733 40.2533 91.12 39.56C91.8667 38.84 92.24 37.9067 92.24 36.76C92.24 35.5867 91.8667 34.64 91.12 33.92C90.3733 33.2 89.3867 32.84 88.16 32.84H83.08C82.9467 32.84 82.88 32.9067 82.88 33.04V40.4C82.88 40.5333 82.9467 40.6 83.08 40.6H88.16ZM116.187 28.48C116.187 28.3467 116.227 28.24 116.307 28.16C116.414 28.0533 116.534 28 116.667 28H121.347C121.481 28 121.587 28.0533 121.667 28.16C121.774 28.24 121.827 28.3467 121.827 28.48V55.52C121.827 55.6533 121.774 55.7733 121.667 55.88C121.587 55.96 121.481 56 121.347 56H116.667C116.534 56 116.414 55.96 116.307 55.88C116.227 55.7733 116.187 55.6533 116.187 55.52V44.48C116.187 44.3467 116.121 44.28 115.987 44.28H107.147C107.014 44.28 106.947 44.3467 106.947 44.48V55.52C106.947 55.6533 106.894 55.7733 106.787 55.88C106.707 55.96 106.601 56 106.467 56H101.787C101.654 56 101.534 55.96 101.427 55.88C101.347 55.7733 101.307 55.6533 101.307 55.52V28.48C101.307 28.3467 101.347 28.24 101.427 28.16C101.534 28.0533 101.654 28 101.787 28H106.467C106.601 28 106.707 28.0533 106.787 28.16C106.894 28.24 106.947 28.3467 106.947 28.48V39.24C106.947 39.3733 107.014 39.44 107.147 39.44H115.987C116.121 39.44 116.187 39.3733 116.187 39.24V28.48ZM137.984 27.96C139.744 27.96 141.291 28.32 142.624 29.04C143.958 29.76 144.984 30.7867 145.704 32.12C146.451 33.4267 146.824 34.9333 146.824 36.64C146.824 38.32 146.438 39.8 145.664 41.08C144.918 42.36 143.851 43.36 142.464 44.08C141.104 44.7733 139.531 45.12 137.744 45.12H132.064C131.931 45.12 131.864 45.1867 131.864 45.32V55.52C131.864 55.6533 131.811 55.7733 131.704 55.88C131.624 55.96 131.518 56 131.384 56H126.704C126.571 56 126.451 55.96 126.344 55.88C126.264 55.7733 126.224 55.6533 126.224 55.52V28.44C126.224 28.3067 126.264 28.2 126.344 28.12C126.451 28.0133 126.571 27.96 126.704 27.96H137.984ZM137.144 40.6C138.371 40.6 139.358 40.2533 140.104 39.56C140.851 38.84 141.224 37.9067 141.224 36.76C141.224 35.5867 140.851 34.64 140.104 33.92C139.358 33.2 138.371 32.84 137.144 32.84H132.064C131.931 32.84 131.864 32.9067 131.864 33.04V40.4C131.864 40.5333 131.931 40.6 132.064 40.6H137.144Z" fill="black"></path><path d="M156.492 56C156.198 56 156.012 55.8667 155.932 55.6L148.852 28.52L148.812 28.36C148.812 28.12 148.958 28 149.252 28H154.212C154.478 28 154.652 28.1333 154.732 28.4L158.532 44.68C158.558 44.7867 158.598 44.84 158.652 44.84C158.705 44.84 158.745 44.7867 158.772 44.68L162.452 28.44C162.532 28.1467 162.705 28 162.972 28H167.812C168.105 28 168.292 28.1333 168.372 28.4L172.372 44.68C172.398 44.76 172.438 44.8133 172.492 44.84C172.545 44.84 172.585 44.7867 172.612 44.68L176.292 28.44C176.372 28.1467 176.545 28 176.812 28H181.532C181.905 28 182.052 28.1733 181.972 28.52L175.412 55.6C175.332 55.8667 175.145 56 174.852 56H170.092C169.825 56 169.652 55.8667 169.572 55.6L165.492 38.28C165.465 38.1733 165.425 38.12 165.372 38.12C165.318 38.12 165.278 38.1733 165.252 38.28L161.452 55.56C161.398 55.8533 161.225 56 160.932 56H156.492ZM199.146 56C198.88 56 198.706 55.8667 198.626 55.6L197.426 51.68C197.373 51.5733 197.306 51.52 197.226 51.52H187.386C187.306 51.52 187.24 51.5733 187.186 51.68L186.026 55.6C185.946 55.8667 185.773 56 185.506 56H180.426C180.266 56 180.146 55.96 180.066 55.88C179.986 55.7733 179.973 55.6267 180.026 55.44L188.666 28.4C188.746 28.1333 188.92 28 189.186 28H195.466C195.733 28 195.906 28.1333 195.986 28.4L204.626 55.44C204.653 55.4933 204.666 55.56 204.666 55.64C204.666 55.88 204.52 56 204.226 56H199.146ZM188.626 46.92C188.6 47.08 188.653 47.16 188.786 47.16H195.826C195.986 47.16 196.04 47.08 195.986 46.92L192.386 35.04C192.36 34.9333 192.32 34.8933 192.266 34.92C192.213 34.92 192.173 34.96 192.146 35.04L188.626 46.92ZM208.662 56C208.529 56 208.409 55.96 208.302 55.88C208.222 55.7733 208.182 55.6533 208.182 55.52V28.48C208.182 28.3467 208.222 28.24 208.302 28.16C208.409 28.0533 208.529 28 208.662 28H213.342C213.476 28 213.582 28.0533 213.662 28.16C213.769 28.24 213.822 28.3467 213.822 28.48V50.96C213.822 51.0933 213.889 51.16 214.022 51.16H227.102C227.236 51.16 227.342 51.2133 227.422 51.32C227.529 51.4 227.582 51.5067 227.582 51.64V55.52C227.582 55.6533 227.529 55.7733 227.422 55.88C227.342 55.96 227.236 56 227.102 56H208.662ZM250.513 32.36C250.513 32.4933 250.459 32.6133 250.353 32.72C250.273 32.8 250.166 32.84 250.033 32.84H236.913C236.779 32.84 236.713 32.9067 236.713 33.04V39.24C236.713 39.3733 236.779 39.44 236.913 39.44H245.513C245.646 39.44 245.753 39.4933 245.833 39.6C245.939 39.68 245.993 39.7867 245.993 39.92V43.8C245.993 43.9333 245.939 44.0533 245.833 44.16C245.753 44.24 245.646 44.28 245.513 44.28H236.913C236.779 44.28 236.713 44.3467 236.713 44.48V50.96C236.713 51.0933 236.779 51.16 236.913 51.16H250.033C250.166 51.16 250.273 51.2133 250.353 51.32C250.459 51.4 250.513 51.5067 250.513 51.64V55.52C250.513 55.6533 250.459 55.7733 250.353 55.88C250.273 55.96 250.166 56 250.033 56H231.553C231.419 56 231.299 55.96 231.193 55.88C231.113 55.7733 231.073 55.6533 231.073 55.52V28.48C231.073 28.3467 231.113 28.24 231.193 28.16C231.299 28.0533 231.419 28 231.553 28H250.033C250.166 28 250.273 28.0533 250.353 28.16C250.459 28.24 250.513 28.3467 250.513 28.48V32.36ZM264.032 56.32C261.899 56.32 260.032 55.9867 258.432 55.32C256.832 54.6267 255.592 53.6533 254.712 52.4C253.859 51.12 253.432 49.64 253.432 47.96V47.08C253.432 46.9467 253.472 46.84 253.552 46.76C253.659 46.6533 253.779 46.6 253.912 46.6H258.472C258.606 46.6 258.712 46.6533 258.792 46.76C258.899 46.84 258.952 46.9467 258.952 47.08V47.68C258.952 48.7467 259.446 49.6533 260.432 50.4C261.419 51.12 262.752 51.48 264.432 51.48C265.846 51.48 266.899 51.1867 267.592 50.6C268.286 49.9867 268.632 49.24 268.632 48.36C268.632 47.72 268.419 47.1867 267.992 46.76C267.566 46.3067 266.979 45.92 266.232 45.6C265.512 45.2533 264.352 44.7867 262.752 44.2C260.966 43.5867 259.446 42.96 258.192 42.32C256.966 41.68 255.926 40.8133 255.072 39.72C254.246 38.6 253.832 37.2267 253.832 35.6C253.832 34 254.246 32.6 255.072 31.4C255.899 30.2 257.046 29.28 258.512 28.64C259.979 28 261.672 27.68 263.592 27.68C265.619 27.68 267.419 28.04 268.992 28.76C270.592 29.48 271.832 30.4933 272.712 31.8C273.619 33.08 274.072 34.5733 274.072 36.28V36.88C274.072 37.0133 274.019 37.1333 273.912 37.24C273.832 37.32 273.726 37.36 273.592 37.36H268.992C268.859 37.36 268.739 37.32 268.632 37.24C268.552 37.1333 268.512 37.0133 268.512 36.88V36.56C268.512 35.44 268.046 34.4933 267.112 33.72C266.206 32.92 264.952 32.52 263.352 32.52C262.099 32.52 261.112 32.7867 260.392 33.32C259.699 33.8533 259.352 34.5867 259.352 35.52C259.352 36.1867 259.552 36.7467 259.952 37.2C260.379 37.6533 260.992 38.0667 261.792 38.44C262.619 38.7867 263.886 39.2667 265.592 39.88C267.486 40.5733 268.966 41.1867 270.032 41.72C271.126 42.2533 272.099 43.0533 272.952 44.12C273.832 45.16 274.272 46.52 274.272 48.2C274.272 50.7067 273.352 52.6933 271.512 54.16C269.672 55.6 267.179 56.32 264.032 56.32Z" fill="#CBD5E0"></path></svg>