<svg xmlns="http://www.w3.org/2000/svg" width="1024" height="1024" viewBox="0 0 1024 1024" preserveAspectRatio="xMidYMin meet" style="max-height:100%;"><path d="M548.401 822.462h-8.925v-9.697h8.925v9.697zm25.286 55.311h12.737v-5.697h-12.737v5.697zm0-26.42h12.737v-5.897h-12.737v5.897zm-44.669 46.764h12.929v-25.663h-12.929v25.663zm-77.376-75.655h9.128v-9.697h-9.128v9.697zm6.468 75.655h12.925v-25.663H458.11v25.663zm41.437-172.428v8.94h9.888v-8.94h-9.888zm-22.812 172.428h12.926v-25.663h-12.926v25.663zm13.312-85.352h-9.125v9.697h9.125v-9.697zm96.377 11.979v-5.886h-12.737v5.886h12.737zm189.154-361.191c-14.968 0-27.191 4.06-36.036 12.496v.009l-.005.002c-8.845 8.404-14.319 21.104-16.881 37.705-1.327 8.607-1.313 16.134.135 22.561l.004.014v.014c1.498 6.373 4.452 11.674 8.818 15.723 3.316 3.12 7.088 5.372 11.276 6.73l.009.01h.014c4.25 1.322 9.912 1.917 17.131 1.917h34.779l3.321-21.547h-33.859c-7.268 0-11.661-1.662-13.815-4.371-1.832-2.359-2.627-6.507-2.104-12.46h52.362l3.334-21.549-52.081-.058c1.439-5.111 3.58-8.813 6.329-11.211h.014c3.307-2.852 7.91-4.439 14.306-4.439h33.859l3.321-21.544H775.578zm57.904 81.444l-3.263-9.618-3.008 9.689H816.94l8.42 6.253-3.316 9.81 8.3-6.311 8.229 6.311-3.316-9.877 8.479-6.257h-10.254zm-192.524-68.948v.011c-8.845 8.404-14.312 21.104-16.881 37.705-1.323 8.607-1.314 16.134.125 22.561v.014l.014.014c1.497 6.373 4.451 11.674 8.813 15.723 3.329 3.12 7.093 5.372 11.275 6.73l.019.01h.009c4.25 1.322 9.913 1.917 17.136 1.917h34.767l3.325-21.547h-33.855c-7.669 0-12.121-1.899-14.226-5.14-2.105-3.244-2.838-9.734-1.327-19.468 1.738-11.303 4.732-19.143 8.264-23.391 3.558-4.255 8.415-6.399 15.678-6.399h33.855l3.28-21.236h-34.226c-14.964 0-27.196 4.06-36.045 12.496zm286.184 35.955c0 201.457-143.506 369.393-333.871 407.174.1-48.673.181-91.599.188-104.902v-8.544l-15.771-69.767v-8.561c1.713-.557 2.849-1.896 2.849-3.809 0-2.086-1.716-3.797-3.799-3.797-2.295 0-4.006 1.711-4.006 3.797 0 1.913 1.335 3.252 2.859 3.809v8.561l-9.308 41.632-3.63-19.398v-12.537c1.336-.577 2.478-1.714 2.478-3.229a3.408 3.408 0 0 0-3.415-3.426 3.412 3.412 0 0 0-3.427 3.426c0 1.515 1.146 2.651 2.475 3.229v12.537l-6.851 38.403h-15.009l-20.153-95.422v-23.576c1.516-.378 2.853-1.907 2.853-3.618 0-2.273-1.902-3.986-3.986-3.986-2.093 0-3.804 1.713-3.804 3.986 0 1.711 1.132 3.24 2.848 3.618v13.682h-33.084v-13.682c1.526-.378 2.856-1.907 2.856-3.618 0-2.273-1.708-3.986-3.991-3.986-2.09 0-3.802 1.713-3.802 3.986 0 1.711 1.137 3.24 2.849 3.618v18.814l-20.152 100.184h-15.011l-6.849-38.403v-12.537c1.331-.577 2.287-1.714 2.287-3.229 0-1.904-1.524-3.426-3.231-3.426a3.409 3.409 0 0 0-3.425 3.426c0 1.515.954 2.651 2.277 3.229v12.537l-6.842 38.403v34.222l3.996 6.848v33.068h5.702v36.695h-8.554v9.692h8.554v3.822C245.171 886.954 96.868 716.799 96.868 512.004c0-229.274 185.865-415.135 415.137-415.135 229.275 0 415.137 185.861 415.137 415.135zm-637.28 26.91c3.794-7.495 6.525-15.674 8.206-24.487 4.054-21.343 1.716-38.865-7.804-51.636-9.524-12.767-25.055-18.988-45.135-18.988h-66.191v-.011l-1.35.755-.192.995-.326 1.738-34.074 179.24h41.788l8.804-46.307h25.033c12.89 0 23.714-1.52 32.532-4.755l.054-.018c8.818-3.316 16.84-8.75 23.987-16.179 5.864-6.024 10.668-12.701 14.422-19.96l.094-.089.152-.298zm98.378-40.932l-15.634 82.232h42.034l16.063-84.502c3.245-17.119 1.439-30.699-6.767-39.432-8.107-8.807-21.993-12.469-40.997-12.469h-24.317l8.795-46.326h-41.56l-.331 1.743-.331 1.748-34.078 179.24h41.56l18.963-99.731h22.937c7.911 0 12.228 1.966 13.153 3.135l.022.036.014.009v.005c.943 1.15 2.039 6.088.474 14.312zm172.525-35.195c-9.52-12.775-25.055-18.995-45.127-18.995h-66.374l-1.216.932-.156.813-.326 1.743-34.07 179.24h41.784l8.813-46.307h25.028c12.898 0 23.732-1.52 32.554-4.755l.099-.036-.063.019c8.8-3.316 16.822-8.75 23.969-16.165l.009-.014h.005c5.868-6.024 10.673-12.71 14.427-19.973l.47-.479v-.465c3.66-7.348 6.333-15.321 7.973-23.934 4.053-21.332 1.725-38.858-7.799-51.624zm319.882 15.776c2.561-16.662-8.546-30.074-24.931-30.074H620.01v.007c-16.375 0-31.62 13.41-34.199 30.067l-10.359 67.166c-2.57 16.661 8.536 30.069 24.921 30.069h235.716c16.38 0 31.62-13.408 34.19-30.069l10.368-67.166zm-626.817 7.942l-.049-.073v-.01l-.022-.026-.031-.038.022.029c-2.789-3.638-9.743-6.384-21.783-6.384H212.65v-.004l-12.219 64.239h15.124c12.832 0 21.824-2.78 27.437-7.629 5.641-4.867 9.994-13.467 12.438-26.313 2.342-12.357 1.13-20.246-1.636-23.835l.036.044zm270.505 0l-.054-.073v-.01l-.026-.026-.031-.038.022.029c-2.789-3.638-9.739-6.384-21.779-6.384h-19.321v-.004l-12.214 64.239h15.124c12.836 0 21.819-2.78 27.433-7.629 5.649-4.867 9.993-13.467 12.438-26.313 2.346-12.357 1.14-20.246-1.632-23.835l.04.044zm-13.947 411.612h12.922v-25.663h-12.922v25.663zm-.189-75.655h9.125v-9.697h-9.125v9.697zm63.488 81.934h12.737v-5.901h-12.737v5.901zM286.369 935.971l20.954-42.08 10.909 5.432c10.515 5.236 13.738 11.941 9.667 20.115-2.117 4.252-5.198 6.797-9.245 7.637-4.046.842-8.775-.086-14.187-2.781l-4.951-2.465-8.255 16.58-4.892-2.438zm15.227-18.317l4.404 2.193c4.336 2.16 7.823 3.021 10.458 2.586 2.635-.436 4.723-2.199 6.261-5.287 1.385-2.783 1.505-5.309.361-7.58-1.145-2.27-3.646-4.365-7.502-6.285l-5.469-2.725-8.513 17.098zm26.059 37.877l16.788-43.908 12.044 4.604c5.386 2.059 8.972 4.609 10.759 7.65 1.786 3.041 1.89 6.627.309 10.762-2.222 5.813-6.667 8.615-13.336 8.41l4.372 24.309-6.037-2.307-3.639-22.355-9.16-3.502-6.993 18.289-5.107-1.952zm13.763-20.693l6.998 2.676c3.604 1.379 6.522 1.67 8.753.877 2.231-.795 3.896-2.627 4.995-5.502 1.114-2.912 1.061-5.34-.159-7.281-1.221-1.939-3.723-3.633-7.507-5.08l-6.638-2.539-6.442 16.849zm24.046 34.85l30.335-40.66 4.437 1.209 5.436 50.4-5.46-1.486-1.709-15.996-18.18-4.951-9.521 12.938-5.338-1.454zm18.003-15.694l14.675 3.996-1.447-15.488c-.198-1.965-.308-4.338-.327-7.121-.996 1.861-2.242 3.867-3.737 6.014l-9.164 12.599zm36.08 5.572c.773-4.826 2.418-8.896 4.936-12.217 2.518-3.32 5.75-5.646 9.698-6.98 3.947-1.332 8.366-1.607 13.255-.824 4.953.793 9.421 2.441 13.406 4.947l-2.858 4.426c-3.906-2.449-7.796-3.982-11.67-4.604-5.651-.904-10.334.072-14.048 2.93s-6.048 7.27-7.004 13.238c-1.006 6.287-.241 11.299 2.298 15.037 2.539 3.74 6.771 6.082 12.698 7.031 3.217.516 6.42.646 9.608.395l2.297-14.348-10.382-1.662.772-4.824 15.78 2.525-3.619 22.605c-2.579.381-5.17.564-7.773.555s-5.578-.281-8.922-.816c-7.028-1.125-12.165-4.092-15.411-8.898-3.248-4.809-4.267-10.978-3.061-18.516zm52.899 14.383l1.387-30.256 5.46.25-1.407 30.688c-.18 3.926.752 6.986 2.798 9.188 2.044 2.199 5.145 3.395 9.299 3.584 3.961.182 7.062-.734 9.3-2.748 2.238-2.014 3.448-4.994 3.628-8.941l1.404-30.623 5.46.25-1.393 30.385c-.246 5.354-2.056 9.488-5.429 12.402-3.374 2.914-7.887 4.24-13.541 3.982-5.653-.26-9.957-2.002-12.909-5.227-2.952-3.227-4.304-7.537-4.057-12.934zm53.648 17.979l-2.498-46.941 26.168-1.393.26 4.881-20.711 1.102.801 15.025 19.457-1.035.26 4.881-19.457 1.035.918 17.275 20.711-1.102.26 4.879-26.169 1.393zm60.607-5.461l-.848-4.459 9.834-14.582c2.992-4.467 4.926-7.615 5.801-9.447.873-1.83 1.461-3.563 1.762-5.197.301-1.633.285-3.328-.049-5.084-.469-2.473-1.588-4.293-3.359-5.457-1.77-1.166-3.982-1.496-6.635-.994-1.918.365-3.674 1.027-5.27 1.986-1.596.961-3.289 2.477-5.078 4.547l-3.459-3.059c3.594-4.283 7.896-6.902 12.91-7.854 4.338-.822 7.949-.363 10.832 1.381 2.885 1.742 4.68 4.479 5.387 8.209.559 2.939.289 6.002-.807 9.191-1.098 3.188-3.482 7.408-7.154 12.662l-8.225 11.848.049.254 23.756-4.508.91 4.803-30.357 5.76zm36.246-31.363c-2.254-7.865-2.695-14.057-1.326-18.57s4.576-7.494 9.621-8.938c4.898-1.402 9.189-.48 12.869 2.766 3.682 3.248 6.6 8.639 8.758 16.176 2.238 7.816 2.68 14.004 1.324 18.564-1.357 4.561-4.566 7.566-9.631 9.016-4.879 1.396-9.156.484-12.828-2.736-3.673-3.222-6.603-8.648-8.787-16.278zm5.254-1.504c1.879 6.559 4.018 11.111 6.416 13.66 2.4 2.551 5.287 3.342 8.662 2.375 3.414-.979 5.455-3.201 6.119-6.672.664-3.473.07-8.445-1.783-14.92-1.854-6.477-3.979-11-6.375-13.572-2.395-2.572-5.301-3.371-8.715-2.393-3.375.965-5.408 3.154-6.102 6.566-.691 3.415-.099 8.399 1.778 14.956zm31.996-24.217l8.133-13.471 4.299-1.668 17.012 43.822-4.977 1.932-12.123-31.234a111.304 111.304 0 0 1-2.617-7.469 34.73 34.73 0 0 1-.896 1.865c-.342.662-1.963 3.533-4.865 8.615l-3.966-2.392zm46.049 8.81c-2.395-4.818-1.307-10.039 3.266-15.664-3.422-.166-6.148-.828-8.176-1.986s-3.576-2.811-4.646-4.961c-1.518-3.053-1.592-6.049-.227-8.99 1.367-2.941 3.951-5.359 7.754-7.25 3.852-1.916 7.35-2.541 10.49-1.877s5.494 2.57 7.061 5.719c1.029 2.072 1.322 4.285.879 6.637-.445 2.352-1.738 4.936-3.881 7.748 4.246-.076 7.539.422 9.879 1.496 2.34 1.076 4.098 2.793 5.271 5.154 1.736 3.494 1.9 6.889.49 10.188s-4.242 6.006-8.498 8.123c-4.504 2.24-8.459 2.98-11.863 2.219s-6.004-2.946-7.799-6.556zm-4.676-24.787c.877 1.768 2.197 3.002 3.957 3.707 1.76.703 4.479.932 8.154.684 2.168-2.514 3.492-4.717 3.973-6.607s.283-3.719-.596-5.486c-.963-1.938-2.424-3.133-4.381-3.584s-4.152-.072-6.586 1.139c-2.395 1.189-3.984 2.699-4.773 4.527-.787 1.827-.703 3.702.252 5.62zm9.514 22.526c1.145 2.303 2.838 3.701 5.076 4.191 2.24.49 4.807.016 7.701-1.424 2.855-1.42 4.744-3.197 5.666-5.332.924-2.135.803-4.373-.363-6.715-.926-1.861-2.496-3.145-4.711-3.852-2.215-.705-5.521-.814-9.916-.328-2.244 2.648-3.639 5.035-4.184 7.16-.544 2.128-.3 4.227.731 6.3z"></path><path d="M106.605 373.52l-39.283-14.656 3.799-10.184c3.663-9.815 9.309-13.3 16.94-10.453 3.968 1.48 6.514 3.976 7.637 7.486 1.124 3.511.743 7.792-1.142 12.843l-1.724 4.622 15.477 5.774-1.704 4.568zm-17.668-11.796l1.534-4.111c1.51-4.048 1.949-7.221 1.317-9.518-.633-2.297-2.391-3.983-5.275-5.06-2.597-.968-4.849-.839-6.756.387-1.907 1.228-3.532 3.641-4.875 7.242l-1.904 5.105 15.959 5.955zm31.151-23.017l-37.677-18.394 2.139-4.381 16.03 7.826 9.688-19.844-16.029-7.825 2.139-4.381 37.677 18.394-2.139 4.381-17.73-8.656-9.688 19.844 17.73 8.656-2.14 4.38zm20.639-40.343l-35.724-21.946 5.689-9.261c5.484-8.927 11.696-11.259 18.636-6.996 3.609 2.217 5.626 5.156 6.052 8.817.427 3.662-.771 7.789-3.594 12.383l-2.582 4.203 14.075 8.646-2.552 4.154zm-15.066-14.977l2.297-3.739c2.262-3.681 3.304-6.71 3.125-9.086-.178-2.375-1.579-4.369-4.202-5.98-2.362-1.451-4.597-1.758-6.704-.921-2.107.837-4.167 2.893-6.178 6.167l-2.852 4.643 14.514 8.916zm27.901-42.496c-3.354-2.72-5.789-5.723-7.305-9.01s-1.997-6.667-1.443-10.142c.555-3.474 2.133-6.816 4.734-10.023 2.77-3.415 5.813-5.894 9.132-7.437l1.95 4.24c-3.156 1.526-5.734 3.522-7.733 5.987-2.902 3.579-4.002 7.37-3.301 11.372.701 4.003 3.122 7.683 7.261 11.04 4.259 3.453 8.358 5.123 12.3 5.008 3.942-.114 7.412-2.02 10.41-5.718 1.842-2.272 3.536-5.194 5.08-8.767l3.332 2.702c-.979 2.948-2.811 6.078-5.496 9.389-3.89 4.797-8.341 7.309-13.355 7.539-5.013.23-10.202-1.831-15.566-6.18zm42.889-18.413l-30.182-29.102 16.223-16.825 3.138 3.026-12.839 13.315 9.662 9.315 12.063-12.51 3.138 3.025-12.063 12.51 11.106 10.709 12.839-13.316 3.138 3.026-16.223 16.827zm24.329-24.709l-27.318-31.805 4.177-3.588 40.171 11.694.172-.148a343.287 343.287 0 0 1-3.445-3.619c-1.492-1.592-2.63-2.845-3.415-3.758l-.598-.696-15.677-18.252 3.416-2.933 27.318 31.805-4.177 3.588-40.31-11.764-.174.149c2.923 2.934 5.505 5.706 7.748 8.316l15.528 18.079-3.416 2.932zm9.708-57.089l-2.518-3.559 25.659-18.153 2.518 3.559-10.84 7.668 21.698 30.668-3.98 2.816-21.697-30.668-10.84 7.669zm54.501 8.069l-21.217-36.163 9.919-5.819c4.436-2.602 8.21-3.678 11.323-3.227 3.113.451 5.668 2.379 7.666 5.783 2.809 4.787 2.283 9.445-1.578 13.973l19.364 10.506-4.972 2.917-17.594-9.927-7.544 4.426 8.838 15.064-4.205 2.467zm-6.737-21.117l5.763-3.381c2.968-1.742 4.798-3.61 5.489-5.606s.342-4.177-1.046-6.544c-1.408-2.399-3.127-3.715-5.159-3.947s-4.605.566-7.722 2.395l-5.467 3.208 8.142 13.875zm34.884 4.688l-2.925-45.15 3.71-1.746 32.845 31.072-4.567 2.149-10.412-9.87-15.207 7.155 1.019 14.29-4.463 2.1zm3.146-21.067l12.274-5.775-9.942-9.679c-1.271-1.219-2.718-2.767-4.34-4.645.4 1.84.714 3.922.941 6.245l1.067 13.854zm37.887 2.551l-14.588-39.308 4.571-1.696 13.071 35.221 17.342-6.436 1.517 4.087-21.913 8.132zm47.838-15.793l-9.729-40.783 22.735-5.424 1.012 4.24-17.993 4.292 3.114 13.055 16.905-4.033 1.012 4.24-16.905 4.033 3.58 15.008 17.993-4.292 1.012 4.24-22.736 5.424zm31.305-22.364l-3.797-26.746 4.827-.686 3.851 27.128c.493 3.469 1.817 5.998 3.974 7.587 2.156 1.589 5.071 2.123 8.743 1.602 3.502-.497 6.066-1.813 7.695-3.949 1.627-2.136 2.194-4.948 1.699-8.437l-3.843-27.071 4.827-.685 3.813 26.86c.672 4.732-.229 8.655-2.703 11.767-2.474 3.113-6.21 5.023-11.207 5.733-4.998.709-9.057-.104-12.179-2.442-3.124-2.337-5.024-5.891-5.7-10.661zm46.933 9.221l-1.866-41.886 11.489-.512c5.138-.229 8.978.583 11.519 2.436 2.542 1.854 3.901 4.751 4.076 8.694.247 5.544-2.394 9.417-7.922 11.617l12.213 18.335-5.758.257-10.919-16.996-8.738.389.777 17.448-4.871.218zm3.907-21.819l6.676-.297c3.438-.153 5.928-.951 7.472-2.393 1.543-1.442 2.254-3.534 2.132-6.274-.124-2.78-1.029-4.746-2.717-5.9-1.688-1.154-4.336-1.651-7.946-1.49l-6.332.282.715 16.072zm33.299-.59c.369-6.824 2.336-12.023 5.9-15.597 3.564-3.574 8.438-5.193 14.623-4.857 6.014.326 10.607 2.493 13.777 6.499 3.172 4.006 4.576 9.374 4.211 16.103-.363 6.692-2.344 11.862-5.939 15.51-3.598 3.648-8.412 5.309-14.443 4.981-6.168-.334-10.822-2.475-13.969-6.422s-4.533-9.353-4.16-16.217zm5.151.337c-.309 5.68.666 10.052 2.922 13.119s5.684 4.724 10.285 4.974c4.639.252 8.221-1.021 10.746-3.818 2.527-2.797 3.943-7.045 4.254-12.744.307-5.642-.641-9.984-2.84-13.028-2.201-3.043-5.609-4.691-10.23-4.941-4.639-.251-8.246 1.025-10.818 3.829-2.577 2.803-4.015 7.007-4.319 12.609zm43.441 24.301l6.393-41.437 10.742 1.658c10.354 1.598 14.91 6.421 13.668 14.47-.645 4.186-2.572 7.184-5.783 8.996s-7.48 2.306-12.809 1.483l-4.875-.752-2.52 16.325-4.816-.743zm7.971-19.692l4.336.669c4.27.659 7.467.446 9.588-.639 2.121-1.084 3.416-3.148 3.887-6.19.422-2.74-.16-4.919-1.748-6.538-1.59-1.619-4.281-2.721-8.08-3.307l-5.385-.831-2.598 16.836zm28.939 26.028l9.879-40.747 22.715 5.507-1.027 4.236-17.977-4.358-3.162 13.043 16.891 4.095-1.027 4.236-16.891-4.095-3.635 14.995 17.977 4.358-1.027 4.236-22.716-5.506zm56.035-6.238c1.549-4.031 3.65-7.276 6.305-9.736 2.656-2.459 5.723-3.964 9.197-4.512 3.477-.548 7.143-.083 10.998 1.397 4.104 1.576 7.404 3.703 9.898 6.381l-3.428 3.167c-2.43-2.528-5.125-4.361-8.088-5.499-4.301-1.651-8.246-1.523-11.836.383-3.588 1.906-6.338 5.347-8.248 10.323-1.965 5.119-2.283 9.533-.953 13.246 1.328 3.712 4.215 6.422 8.66 8.128 2.73 1.048 6.033 1.754 9.908 2.116l-1.537 4.004c-3.107-.018-6.65-.791-10.629-2.318-5.766-2.213-9.533-5.668-11.305-10.364-1.77-4.697-1.416-10.268 1.058-16.716zm38.287 15.062c3.086-6.098 6.979-10.066 11.68-11.904 4.699-1.838 9.814-1.359 15.342 1.438 5.373 2.718 8.707 6.55 9.998 11.493 1.291 4.944.416 10.423-2.625 16.436-3.025 5.98-6.92 9.917-11.68 11.809s-9.836 1.476-15.227-1.251c-5.512-2.788-8.912-6.621-10.203-11.5-1.292-4.882-.386-10.387 2.715-16.521zm4.582 2.381c-2.568 5.075-3.438 9.47-2.605 13.185s3.303 6.612 7.414 8.692c4.146 2.097 7.938 2.374 11.375.829 3.439-1.545 6.445-4.863 9.021-9.955 2.551-5.042 3.432-9.398 2.643-13.07s-3.248-6.551-7.375-8.64c-4.146-2.097-7.963-2.38-11.447-.848-3.485 1.531-6.494 4.8-9.026 9.807zm29.981 39.563l22.904-35.119 4.611 3.008v41.838l.189.124c.262-.469 1.098-1.908 2.512-4.319 1.111-1.877 1.998-3.32 2.654-4.329l.502-.769 13.145-20.154 3.771 2.459-22.904 35.119-4.611-3.008.029-41.99-.193-.125c-2 3.626-3.939 6.881-5.818 9.763l-13.02 19.961-3.771-2.459zm38.258 26.073l26.02-32.877 18.326 14.504-2.705 3.418-14.504-11.478-9.504 12.008 13.629 10.785-2.705 3.418-13.629-10.785-11.105 14.032-3.823-3.025zm25.154 20.53l28.506-30.745 17.141 15.891-2.965 3.196-13.564-12.576-9.125 9.842 12.744 11.816-2.963 3.196-12.744-11.816-10.49 11.314 13.564 12.576-2.965 3.196-17.139-15.89zm25.145 23.996l31.012-28.217 7.738 8.506c3.461 3.803 5.293 7.274 5.494 10.414.199 3.139-1.16 6.037-4.08 8.693-4.104 3.735-8.77 4.181-13.996 1.337l-6.289 21.114-3.879-4.264 6.086-19.263-5.887-6.47-12.918 11.754-3.281-3.604zm19.275-10.946l4.496 4.942c2.316 2.545 4.521 3.951 6.617 4.215 2.096.265 4.158-.526 6.188-2.373 2.059-1.872 2.99-3.826 2.799-5.862-.191-2.035-1.504-4.39-3.936-7.062l-4.266-4.688-11.898 10.828zm6.08 39.788l33.297-25.482 14.205 18.561-3.463 2.649-11.242-14.689-10.658 8.157 10.563 13.8-3.461 2.649-10.563-13.8-12.252 9.377 11.242 14.689-3.461 2.649-14.207-18.56zm20.773 27.739l35.547-22.235 2.92 4.668-17.59 37.961.119.192c.434-.316 1.799-1.27 4.096-2.863 1.797-1.236 3.207-2.173 4.229-2.812.291-.183.551-.344.777-.487l20.398-12.76 2.389 3.817-35.545 22.235-2.92-4.668 17.68-38.087-.123-.195c-3.338 2.449-6.467 4.587-9.385 6.412l-20.203 12.639-2.389-3.817zm41.678 28.353c3.871-1.914 7.615-2.875 11.236-2.883 3.619-.008 6.893.965 9.82 2.917 2.926 1.953 5.305 4.781 7.135 8.482 1.951 3.941 2.934 7.742 2.953 11.402l-4.668.004c-.07-3.505-.811-6.681-2.217-9.525-2.043-4.13-5.029-6.71-8.961-7.742-3.93-1.031-8.283-.366-13.061 1.997-4.916 2.431-8.143 5.461-9.682 9.091-1.541 3.63-1.254 7.579.855 11.846 1.297 2.622 3.246 5.379 5.85 8.272l-3.844 1.902c-2.273-2.119-4.354-5.089-6.244-8.91-2.736-5.536-3.164-10.63-1.283-15.282 1.885-4.652 5.922-8.509 12.111-11.571zm-1.156 46.653l39.051-15.26 8.508 21.769-4.061 1.586-6.732-17.228-12.5 4.885 6.324 16.186-4.059 1.587-6.326-16.187-14.371 5.616 6.732 17.229-4.059 1.587-8.507-21.77z"></path></svg>
