<svg xmlns="http://www.w3.org/2000/svg" xml:space="preserve" id="Livello_1" width="200" height="60" x="0" y="0" style="enable-background:new 0 0 220 60" version="1.1" viewBox="0 0 220 60"><style>.st0{fill:#fff}</style><path d="M97.29 7.28c0-1.51-.92-2.8-2.23-3.35-2.11-.86-4.43-1.34-6.85-1.34V2.5h-7.27c-1 0-1.82.81-1.82 1.82v51.37c0 1 .81 1.82 1.82 1.82h7.27v-.09c2.42 0 4.74-.48 6.85-1.34a3.631 3.631 0 0 0 2.23-3.35V7.32c-.01-.02 0-.03 0-.04zM73.67 2.59c-9.18.91-16.35 8.65-16.35 18.07v.18c0 9.42 7.17 17.16 16.35 18.07 1 0 1.82-.81 1.82-1.82V4.41c0-1.01-.81-1.82-1.82-1.82zM119.08 16.53c0-1.51-.92-2.8-2.23-3.35-2.11-.86-4.43-1.34-6.85-1.34s-4.74.48-6.85 1.34a3.631 3.631 0 0 0-2.23 3.35v26.94c0 1.51.92 2.8 2.23 3.35 2.11.86 4.43 1.34 6.85 1.34 2.43 0 4.74-.48 6.85-1.34a3.631 3.631 0 0 0 2.23-3.35V16.53zM162.68 20.66c0-9.42-7.17-17.16-16.35-18.07-1 0-1.82.81-1.82 1.82v32.7c0 1 .81 1.82 1.82 1.82 9.18-.91 16.35-8.66 16.35-18.07v-.09c-.01-.05 0-.08 0-.11zM131.72 27.79c1.13 0 1.88-.7 1.88-1.78 0-.6-.3-1.18-.6-1.48h-2.51c-.34.34-.61.9-.61 1.48-.01 1.08.73 1.78 1.84 1.78zM131.75 32.27c-1.13 0-1.88.69-1.88 1.78 0 .6.29 1.18.6 1.46h2.54c.33-.34.59-.89.59-1.46 0-1.08-.74-1.78-1.85-1.78zM131.75 48.42c-1.13 0-1.88.69-1.88 1.78 0 .6.29 1.17.6 1.46h2.54c.33-.34.59-.89.59-1.46 0-1.08-.74-1.78-1.85-1.78z" class="st0"/><path d="M139.06 2.5h-7.27v.09c-2.42 0-4.74.48-6.85 1.34a3.631 3.631 0 0 0-2.23 3.35v45.43c0 1.51.92 2.8 2.23 3.35 2.11.86 4.43 1.34 6.85 1.34v.09h7.27c1 0 1.82-.81 1.82-1.82V4.32c0-1.01-.81-1.82-1.82-1.82zm-10.6 13.93v-1.75H135v1.75h-.68c.46.44.8 1.09.8 1.96 0 1.84-1.43 3.08-3.4 3.08-1.98 0-3.38-1.24-3.38-3.08 0-.83.32-1.51.76-1.96h-.64zm-2.34 6.36H135v1.75h-.68c.46.44.8 1.09.8 1.96 0 1.84-1.43 3.08-3.4 3.08-1.98 0-3.38-1.24-3.38-3.08 0-.83.32-1.51.76-1.96h-2.99v-1.75zm0 20.79h3.11c-.54-.49-.89-1.21-.89-2.16 0-1.78 1.28-2.51 2.89-2.51H135v1.75h-3.48c-.96 0-1.56.4-1.56 1.35 0 .86.63 1.36 1.15 1.58H135v1.75h-8.88v-1.76zm11.23 9.83h-8.89v-1.75h.68c-.46-.44-.79-1.08-.79-1.95 0-1.83 1.41-3.06 3.4-3.06 1.96 0 3.38 1.24 3.38 3.06 0 .84-.31 1.5-.74 1.95h2.96v1.75zm0-16.15h-8.89v-1.75h.68c-.46-.44-.79-1.08-.79-1.95 0-1.83 1.41-3.06 3.4-3.06 1.96 0 3.38 1.24 3.38 3.06 0 .84-.31 1.5-.74 1.95h2.96v1.75zm-.31-23.68-1.41-.26c.17-.31.37-.76.37-1.24 0-.58-.27-.84-.84-1.09l-.34-.14-6.37 2.98v-1.94l4.63-1.8-4.63-1.74V6.59l6.6 2.71c1.64.65 2.41 1.31 2.41 2.78.02.6-.21 1.18-.42 1.5z" class="st0"/><path d="M131.72 19.69c1.13 0 1.88-.7 1.88-1.78 0-.6-.3-1.18-.6-1.48h-2.51c-.34.34-.61.9-.61 1.48-.01 1.08.73 1.78 1.84 1.78z" class="st0"/></svg>