<svg xmlns="http://www.w3.org/2000/svg" viewBox="0 0 491.86 527.65"><defs><style>.cls-1{fill:#048dc2;}.cls-2{fill:#131e42;}.cls-3{fill:#00bef1;}.cls-4{fill:#005f8f;}.cls-5{fill:#009ed2;}.cls-6{fill:#121617;}.cls-7{fill:#fff;}</style></defs><title>19-1</title><g id="Warstwa_2" data-name="Warstwa 2"><g id="centralne"><polygon class="cls-1" points="282.78 274.93 306.14 135.61 345.39 159.74 325.01 274.93 282.78 274.93"/><polygon class="cls-2" points="282.78 274.93 270.11 246.93 254.91 213 306.14 135.61 282.78 274.93 282.78 274.93"/><polygon class="cls-3" points="254.91 213 202.54 213 239.7 94.24 306.43 134.95 254.91 213 254.91 213"/><polygon class="cls-1" points="139.19 274.93 160.31 167.19 239.7 94.24 183.12 274.93 139.19 274.93"/><polygon class="cls-2" points="139.19 274.93 119.77 184.15 113.01 153.61 160.31 167.19 139.19 274.93 139.19 274.93"/><polygon class="cls-4" points="239.7 94.24 208.65 18.49 322.1 60.54 380.14 181.6 239.7 94.24 239.7 94.24"/><polygon class="cls-5" points="160.31 167.19 100.04 22.7 200.98 0 239.7 94.24 160.31 167.19 160.31 167.19"/><polygon class="cls-4" points="26.86 129.01 100.04 22.7 160.31 167.19 26.86 129.01 26.86 129.01"/><polygon class="cls-5" points="66.56 242.69 43.76 231.66 26.86 129.01 80.07 144.29 66.56 242.69 66.56 242.69"/><polygon class="cls-2" points="26.86 244.38 43.76 231.66 66.56 242.69 35.31 257.96 26.86 244.38"/><path class="cls-6" d="M22.64,395.3H0l11.64-69.22a19.26,19.26,0,0,1,1.6-5.08,11.28,11.28,0,0,1,4.15-4.39A11.78,11.78,0,0,1,22,314.76a29.28,29.28,0,0,1,4.45-.34H54.85c1,0,2.2.05,3.61.17a23.28,23.28,0,0,1,4.42.81,19.86,19.86,0,0,1,4.6,1.91,13.17,13.17,0,0,1,4,3.46,15.43,15.43,0,0,1,2.73,5.37,25.47,25.47,0,0,1,1,6,40.3,40.3,0,0,1-.2,6c-.2,1.92-.43,3.62-.68,5.08s-.54,3-1,5-1,4.18-1.66,6.41A49,49,0,0,1,69,361.33a26.77,26.77,0,0,1-3.77,5.89,21,21,0,0,1-5.52,4.67,25.18,25.18,0,0,1-6,2.49,32.78,32.78,0,0,1-5.84,1c-1.87.16-3.62.24-5.24.24H26Zm16-36.06a9.91,9.91,0,0,0,5.94-1.62,13.66,13.66,0,0,0,3.29-3.12,13.78,13.78,0,0,0,1.87-4.21q.63-2.37,1.14-5.37c.29-1.78.51-3.39.64-4.86a14,14,0,0,0-.19-4A5.75,5.75,0,0,0,50,333.14a6.94,6.94,0,0,0-4.31-2.21c-.72-.07-1.24-.11-1.54-.11h-8a3.07,3.07,0,0,0-1,.29,3.69,3.69,0,0,0-1,.52A3.4,3.4,0,0,0,33,333.71l-4.29,25.53Z"/><path class="cls-6" d="M88.29,294.77h22.65l-3.3,19.65h13.51c1.7,0,3.43,0,5.2.05a41.47,41.47,0,0,1,5.23.46,24.71,24.71,0,0,1,5,1.33,16.6,16.6,0,0,1,4.51,2.67,15.21,15.21,0,0,1,5.07,7.68,20.38,20.38,0,0,1,.56,9.06l-6.73,40H117.33l5.24-31.2a28.73,28.73,0,0,0,.34-5.08,8.8,8.8,0,0,0-2-5.43,7.45,7.45,0,0,0-4.07-2.95,18.3,18.3,0,0,0-4.69-.63H105l-7.61,45.29H74.69Z"/><path class="cls-6" d="M166.15,395.3H143.51l11.64-69.22a18.9,18.9,0,0,1,1.6-5.08,11.21,11.21,0,0,1,4.15-4.39,11.78,11.78,0,0,1,4.59-1.85,29.25,29.25,0,0,1,4.44-.34h28.43c1,0,2.2.05,3.61.17a23.28,23.28,0,0,1,4.42.81,19.61,19.61,0,0,1,4.59,1.91,13.17,13.17,0,0,1,4,3.46,15.45,15.45,0,0,1,2.74,5.37,26,26,0,0,1,1,6,40.32,40.32,0,0,1-.19,6c-.21,1.92-.44,3.62-.68,5.08s-.54,3-1,5-1,4.18-1.66,6.41a47.74,47.74,0,0,1-2.63,6.71,26.74,26.74,0,0,1-3.76,5.89,21,21,0,0,1-5.52,4.67,25.07,25.07,0,0,1-6,2.49,32.53,32.53,0,0,1-5.83,1c-1.87.16-3.62.24-5.24.24H169.46Zm16-36.06a9.87,9.87,0,0,0,5.93-1.62,11.64,11.64,0,0,0,5.17-7.33q.62-2.37,1.13-5.37c.3-1.78.51-3.39.64-4.86a13.69,13.69,0,0,0-.18-4,5.83,5.83,0,0,0-1.36-2.88,6.94,6.94,0,0,0-2.11-1.57,7.09,7.09,0,0,0-2.2-.64c-.73-.07-1.24-.11-1.55-.11h-8a3.07,3.07,0,0,0-1,.29,3.52,3.52,0,0,0-1,.52,3.4,3.4,0,0,0-1.16,2.08l-4.29,25.53Z"/><path class="cls-6" d="M242.82,375.65c-2.32,0-4.5,0-6.57-.11a25.1,25.1,0,0,1-5.75-.87,13.35,13.35,0,0,1-4.68-2.37,12,12,0,0,1-3.38-4.62,19.29,19.29,0,0,1-1.12-8.5A128.51,128.51,0,0,1,223,345.73q.69-4.17,1.34-8a60.28,60.28,0,0,1,1.6-7.11,30.82,30.82,0,0,1,2.46-6.07,17,17,0,0,1,3.94-4.85,17.29,17.29,0,0,1,5.83-3.41,38.11,38.11,0,0,1,7.29-1.79,70,70,0,0,1,8.15-.7q4.23-.1,8.62-.11c6.24,0,11.36.19,15.39.58s7.08,1.58,9.21,3.58a10.36,10.36,0,0,1,2.81,4.28,21.27,21.27,0,0,1,1.13,5.31,30,30,0,0,1-.08,5.6q-.31,2.83-.73,5.37a39.44,39.44,0,0,1-1.54,6.07,10.17,10.17,0,0,1-4,5.14,7.38,7.38,0,0,1-3.2,1.51,20.64,20.64,0,0,1-3.1.23H244.7a9.29,9.29,0,0,0-.28,2.65,6.2,6.2,0,0,0,.48,2.31,4.53,4.53,0,0,0,3.9,2.6,53.89,53.89,0,0,0,5.78.29h29.7l-2.76,16.41Zm21-38.59c1.62,0,2.7-.38,3.26-1.16a5.14,5.14,0,0,0,1-2.08,3.72,3.72,0,0,0-.4-2.42q-.61-1.15-3.06-1.74a30,30,0,0,0-3.17-.34q-1.83-.12-2.76-.12c-1.31,0-2.74.06-4.3.18a9.84,9.84,0,0,0-3.73.87A5.24,5.24,0,0,0,248,333a12.53,12.53,0,0,0-.92,4.11Z"/><path class="cls-6" d="M295.28,340.18c.24-1.46.57-3.06,1-4.8a30.14,30.14,0,0,1,1.81-5.32,28.79,28.79,0,0,1,3.08-5.25,21.45,21.45,0,0,1,4.77-4.62A24.46,24.46,0,0,1,312,317a38,38,0,0,1,6.35-1.73,43,43,0,0,1,6-.7c1.9-.08,3.62-.11,5.17-.11h15l-2.68,15.94H334a27,27,0,0,0-6.43.75,11.63,11.63,0,0,0-5.75,3.64,16.37,16.37,0,0,0-3.47,5.83,40.28,40.28,0,0,0-1.5,5.84L312,375.65H289.31Z"/><path class="cls-6" d="M342.16,359.24h33.39a2.82,2.82,0,0,0,1.46-.46,1.53,1.53,0,0,0,.77-1.16.9.9,0,0,0-.2-.86,7,7,0,0,0-.6-.52,7.81,7.81,0,0,0-1.84-.75c-.88-.27-2.45-.83-4.69-1.68L358,349.54a34.55,34.55,0,0,1-7-3.3,10.58,10.58,0,0,1-4.27-4.79,13.49,13.49,0,0,1-.94-5.08,29.6,29.6,0,0,1,.35-5.2,29.07,29.07,0,0,1,1.6-5.72,19,19,0,0,1,3.13-5.26,13.77,13.77,0,0,1,6.7-4.74,31.18,31.18,0,0,1,8.49-1H407l-2.64,15.71H371.08a11.65,11.65,0,0,1-1.26-.07,3.9,3.9,0,0,0-1.41.19,2.94,2.94,0,0,0-.81.28,1,1,0,0,0-.41.75c-.08.46,0,.78.19.92a4.3,4.3,0,0,0,.85.47c.65.22,1.12.4,1.41.52a5.31,5.31,0,0,1,.75.35c.21.11.47.22.75.34s.76.29,1.42.52l14.61,5.2A57.78,57.78,0,0,1,395,343a11.37,11.37,0,0,1,4.88,5,12.59,12.59,0,0,1,1.57,6.47,38.1,38.1,0,0,1-.43,5.31,29.36,29.36,0,0,1-2.14,6.93,14.87,14.87,0,0,1-5.14,6.13,13.1,13.1,0,0,1-5.49,2.42,29.29,29.29,0,0,1-5.05.47H339.4Z"/><path class="cls-1" d="M450.3,455.35,237.16,471.54A8.55,8.55,0,0,1,228,462.6l2.52-52.55a8.56,8.56,0,0,1,7.91-8.12l214.24-16.18a8.56,8.56,0,0,1,9.18,9.13l-3.63,52.53A8.55,8.55,0,0,1,450.3,455.35Z"/><path class="cls-2" d="M480.08,516.74,332.42,527.62a9.37,9.37,0,0,1-10-10.11l4.17-50.88a9.37,9.37,0,0,1,8.64-8.58l146.6-10.9a9.38,9.38,0,0,1,10.05,9.91L488.74,508A9.36,9.36,0,0,1,480.08,516.74Z"/><path class="cls-7" d="M270.86,424.79a14.91,14.91,0,0,0-4.39-.44,6,6,0,0,0-3.24,1,2.46,2.46,0,0,0-1.05,2.27,2.89,2.89,0,0,0,1,2,6.51,6.51,0,0,0,2.24,1.22,32.92,32.92,0,0,0,3.59.92,39.73,39.73,0,0,1,5.22,1.43,9,9,0,0,1,3.58,2.43,7.43,7.43,0,0,1,1.76,4.59,8,8,0,0,1-1.11,5,9.44,9.44,0,0,1-3.89,3.48,15.6,15.6,0,0,1-5.93,1.57,18.91,18.91,0,0,1-7.07-.78,19.62,19.62,0,0,1-6.19-3.08l2-5.15a17.84,17.84,0,0,0,5.44,2.94,13.85,13.85,0,0,0,5.45.8,6.8,6.8,0,0,0,3.75-1.24,3.09,3.09,0,0,0,.17-4.74,6.33,6.33,0,0,0-2.26-1.2c-.9-.28-2.12-.58-3.66-.89a42,42,0,0,1-5.18-1.39,8.73,8.73,0,0,1-3.56-2.36,7.28,7.28,0,0,1-1.76-4.52,7.8,7.8,0,0,1,1-4.75,9.14,9.14,0,0,1,3.76-3.38,15.42,15.42,0,0,1,5.89-1.56,20.86,20.86,0,0,1,11.26,2.35l-2,5.27A22.59,22.59,0,0,0,270.86,424.79Z"/><path class="cls-7" d="M292.57,441.15a7.37,7.37,0,0,0,5.64,1.61,7.18,7.18,0,0,0,5.25-2.47,7.81,7.81,0,0,0,1.54-5.81l-1.42-17.92,5.83-.46L310.82,434a14.12,14.12,0,0,1-1.06,7,11,11,0,0,1-4.23,4.87,15.08,15.08,0,0,1-6.9,2.12,15.33,15.33,0,0,1-7.24-1,10.86,10.86,0,0,1-5-4.13,14.26,14.26,0,0,1-2.15-6.77l-1.41-17.92,5.82-.46,1.42,17.92A7.64,7.64,0,0,0,292.57,441.15Z"/><path class="cls-7" d="M316.28,415.56l6.65-.53,11.64,18.82,8.46-20.4,6.65-.53,2.41,30.44-5.35.43L345,422l-8,19.45-3.74.29-11-17.95L324,445.58l-5.31.42Z"/><path class="cls-7" d="M357.16,412.33l6.65-.53,11.64,18.82,8.46-20.4,6.65-.53L393,440.13l-5.35.43-1.73-21.83-8,19.45-3.74.29-11-18,1.72,21.83-5.3.42Z"/><path class="cls-7" d="M398,409.1l5.83-.46,2.4,30.44-5.82.46Z"/><path class="cls-7" d="M408,408.32l24.83-2,.41,5.18-9.48.75,2,25.27-5.87.46-2-25.27-9.48.75Z"/><path class="cls-7" d="M354.24,506.21a1.07,1.07,0,0,1-.4-.77l-.26-3.43a2.84,2.84,0,0,1,1-2.37l3.94-4.48q4.1-3.62,6.18-5.61a22.94,22.94,0,0,0,3.14-3.56,4.66,4.66,0,0,0,.95-2.9q-.25-3.39-3.63-3.13a3.5,3.5,0,0,0-2.67,1.28,5.65,5.65,0,0,0-1.08,2.77,1.4,1.4,0,0,1-1.47,1.16l-6,.45a1,1,0,0,1-.73-.24.93.93,0,0,1-.34-.64,10.49,10.49,0,0,1,1.26-5.59,11.08,11.08,0,0,1,4.12-4.21,14.24,14.24,0,0,1,6.43-1.93,16.42,16.42,0,0,1,6.72.74,9,9,0,0,1,6.32,8.26,9.55,9.55,0,0,1-1.6,6.1,31.75,31.75,0,0,1-5.76,6.22l-3.51,4.07,11.56-.86a1.13,1.13,0,0,1,.85.26,1.09,1.09,0,0,1,.38.8l.37,4.89a1.17,1.17,0,0,1-.26.82,1.1,1.1,0,0,1-.8.41l-23.81,1.78A1.12,1.12,0,0,1,354.24,506.21Z"/><path class="cls-7" d="M387.81,501.16a12.91,12.91,0,0,1-4.26-8.42c-.19-1.64-.33-3.12-.43-4.43s-.18-2.86-.24-4.57a13.5,13.5,0,0,1,1.25-6.23,10.93,10.93,0,0,1,4.12-4.56,14.87,14.87,0,0,1,6.95-2.09,15.07,15.07,0,0,1,7.2,1,10.84,10.84,0,0,1,4.77,3.9,13.54,13.54,0,0,1,2.17,6c.13.85.27,2.37.43,4.56s.24,3.62.24,4.45a12.89,12.89,0,0,1-3,9q-3,3.54-9.39,4.06T387.81,501.16Zm12.43-5.92a6.89,6.89,0,0,0,.84-4c0-.89-.08-2.32-.23-4.3s-.28-3.38-.4-4.2a6.93,6.93,0,0,0-1.44-3.82,3.68,3.68,0,0,0-3.3-1.2c-2.75.2-4.06,2.09-3.95,5.67,0,.82.12,2.23.27,4.21s.27,3.41.37,4.29c.42,3.55,2,5.23,4.74,5A3.77,3.77,0,0,0,400.24,495.24Z"/><path class="cls-7" d="M425.13,500.92a1.1,1.1,0,0,1-.4-.77l-1.6-21.4-5.77,5.17a1.33,1.33,0,0,1-.67.28,1.18,1.18,0,0,1-1-.48l-3.11-3.44a1.49,1.49,0,0,1-.23-.67,1.19,1.19,0,0,1,.43-1.05l10-9a1.77,1.77,0,0,1,1-.4l6-.45a1.15,1.15,0,0,1,.87.26,1.06,1.06,0,0,1,.41.79l2.22,29.72a1.06,1.06,0,0,1-.29.84,1.21,1.21,0,0,1-.82.39l-6.26.46A1.1,1.1,0,0,1,425.13,500.92Z"/><path class="cls-7" d="M443.49,499.6a1.06,1.06,0,0,1-.19-1.3l5.75-9.21a4.16,4.16,0,0,1-1.23.18,12.88,12.88,0,0,1-5.41-1.13A11.05,11.05,0,0,1,438,484.7a9.68,9.68,0,0,1-2-5.35A11,11,0,0,1,441.37,469a15.11,15.11,0,0,1,7.08-2.14,16.78,16.78,0,0,1,7.42.92,10.74,10.74,0,0,1,4.94,3.65,10.5,10.5,0,0,1,2,5.57,10.18,10.18,0,0,1-.68,4.67,34.52,34.52,0,0,1-2.72,5.1l-.74,1.21-6.45,10.31a1.93,1.93,0,0,1-1.58,1l-6.44.48A.92.92,0,0,1,443.49,499.6ZM453,481.4a4.92,4.92,0,0,0-.52-6.67,5.06,5.06,0,0,0-6.61.49,5,5,0,0,0,.48,6.68,5.12,5.12,0,0,0,6.65-.5Z"/></g></g></svg>