<svg viewBox="0 0 209 59" fill="none" xmlns="http://www.w3.org/2000/svg"><path d="M8.19277 52.2148V52.1254C8.19277 50.911 7.84208 49.9579 7.14069 49.2662C6.44894 48.5648 5.46562 48.2141 4.19213 48.2141C2.91863 48.2141 1.88993 48.5744 1.13904 49.2951C0.388143 50.0075 0.0126953 51.0293 0.0126953 52.3633V54.8525C0.0126953 56.1851 0.388143 57.2125 1.13904 57.9345C1.88993 58.6455 2.90763 59.0003 4.19213 59.0003C5.47662 59.0003 6.44894 58.6551 7.14069 57.9634C7.84208 57.262 8.19277 56.3034 8.19277 55.0891V54.8814H6.26603V55.1482C6.26603 55.7506 6.09274 56.2553 5.74755 56.6596C5.41199 57.0543 4.89351 57.2524 4.19213 57.2524C3.49074 57.2524 2.95714 57.0406 2.56244 56.6156C2.16636 56.181 1.9697 55.6034 1.9697 54.8814V52.333C1.9697 51.6014 2.16636 51.0238 2.56244 50.5988C2.95714 50.1752 3.50037 49.9621 4.19213 49.9621C4.88388 49.9621 5.41199 50.1601 5.74755 50.5548C6.09274 50.9495 6.26603 51.4542 6.26603 52.0662V52.2148H8.19277ZM30.1159 49.2951C29.3443 48.5744 28.3074 48.2141 27.0036 48.2141C25.6999 48.2141 24.6629 48.5744 23.8928 49.2951C23.1213 50.0075 22.7362 51.0293 22.7362 52.3633V54.8525C22.7362 56.1851 23.1213 57.2125 23.8928 57.9345C24.6629 58.6455 25.6999 59.0003 27.0036 59.0003C28.3074 59.0003 29.3443 58.6455 30.1159 57.9345C30.886 57.2125 31.2711 56.1851 31.2711 54.8525V52.3633C31.2711 51.0293 30.886 50.0075 30.1159 49.2951ZM29.3155 54.9117C29.3155 55.6227 29.1133 56.1906 28.7076 56.6156C28.3033 57.0406 27.7353 57.2524 27.0036 57.2524C26.272 57.2524 25.715 57.0406 25.2997 56.6156C24.8954 56.1906 24.6918 55.6227 24.6918 54.9117V52.3041C24.6918 51.5918 24.8954 51.0238 25.2997 50.5988C25.715 50.1752 26.283 49.9621 27.0036 49.9621C27.7243 49.9621 28.3033 50.1752 28.7076 50.5988C29.1133 51.0238 29.3155 51.5918 29.3155 52.3041V54.9117ZM52.2191 48.4218V57.46H51.9537L49.8936 48.4218H46.1748V58.794H48.1002V49.7544H48.367L50.4272 58.794H54.1459V48.4218H52.2191ZM75.8077 50.1986V48.4218H69.2875V58.794H71.2445V54.4812H75.4529V52.703H71.2445V50.1986H75.8077ZM92.3466 57.0158V54.4523H96.6429V52.6741H92.3466V50.1986H97.0583V48.4218H90.391V58.794H97.1477V57.0158H92.3466ZM119.072 52.8818C119.369 52.4953 119.518 51.992 119.518 51.3703V51.1916C119.518 50.6291 119.384 50.1395 119.118 49.7255C118.851 49.3102 118.475 48.9898 117.991 48.7615C117.507 48.5345 116.939 48.4218 116.287 48.4218H111.783V58.794H113.739V54.8814H116.465C116.752 54.8814 116.954 54.9557 117.072 55.1042C117.2 55.2527 117.265 55.4453 117.265 55.6818V58.794H119.221V55.3999C119.221 54.9859 119.112 54.6545 118.895 54.4069C118.677 54.1511 118.372 54.0122 117.976 53.993V53.7262C118.411 53.5488 118.776 53.2668 119.072 52.8818ZM117.562 51.7252C117.562 52.1405 117.429 52.4761 117.162 52.7332C116.905 52.9808 116.544 53.1032 116.08 53.1032H113.739V50.1986H116.08C116.554 50.1986 116.92 50.3279 117.176 50.5851C117.433 50.8312 117.562 51.1627 117.562 51.5766V51.7252ZM136.288 57.0158V54.4523H140.585V52.6741H136.288V50.1986H140.999V48.4218H134.332V58.794H141.089V57.0158H136.288ZM161.77 48.4218V57.46H161.503L159.443 48.4218H155.724V58.794H157.651V49.7544H157.917L159.977 58.794H163.695V48.4218H161.77ZM186.781 52.2148V52.1254C186.781 50.911 186.43 49.9579 185.728 49.2662C185.037 48.5648 184.053 48.2141 182.78 48.2141C181.506 48.2141 180.478 48.5744 179.727 49.2951C178.976 50.0075 178.6 51.0293 178.6 52.3633V54.8525C178.6 56.1851 178.976 57.2125 179.727 57.9345C180.478 58.6455 181.495 59.0003 182.78 59.0003C184.064 59.0003 185.037 58.6551 185.728 57.9634C186.43 57.262 186.781 56.3034 186.781 55.0891V54.8814H184.854V55.1482C184.854 55.7506 184.681 56.2553 184.335 56.6596C184 57.0543 183.481 57.2524 182.78 57.2524C182.079 57.2524 181.545 57.0406 181.15 56.6156C180.754 56.181 180.557 55.6034 180.557 54.8814V52.333C180.557 51.6014 180.754 51.0238 181.15 50.5988C181.545 50.1752 182.088 49.9621 182.78 49.9621C183.472 49.9621 184 50.1601 184.335 50.5548C184.681 50.9495 184.854 51.4542 184.854 52.0662V52.2148H186.781ZM203.518 57.0158V54.4523H207.814V52.6741H203.518V50.1986H208.229V48.4218H201.562V58.794H208.319V57.0158H203.518Z" fill="white"></path><path fill-rule="evenodd" clip-rule="evenodd" d="M36.6064 2.61143C35.2368 1.22383 33.1568 0.437256 30.3096 0.437256H0V41.2064H18.1813V34.8224C17.5623 35.17 16.9059 35.4663 16.2038 35.6671C11.5882 37.0104 7.72592 37.171 4.62392 36.822C3.23079 36.6656 3.22525 34.7102 4.55468 34.4748H4.55606L4.55745 34.4734C10.9055 33.3669 15.5474 29.675 17.5318 27.8498C18.2353 27.2031 19.1562 26.7987 20.1076 26.7156H20.1131L20.1187 26.7142C21.9785 26.5785 23.5364 26.8776 24.7204 27.6767H24.7218L24.726 27.6808C25.2287 28.027 25.5652 28.4896 25.7535 28.995C25.8509 29.2542 25.7937 29.547 25.6053 29.7498C25.0708 30.3272 24.1942 31.0016 23.2525 31.6567C22.9783 31.8478 22.6931 32.0403 22.405 32.2314H30.3096C33.1568 32.2314 35.2368 31.4462 36.6064 30.0572C37.9787 28.6668 38.7445 26.5674 38.7445 23.7244V8.94283C38.7445 6.10117 37.9787 4.00179 36.6064 2.61143ZM21.311 20.5421C18.828 20.5421 16.809 18.541 16.809 16.0525C16.809 13.564 18.8377 11.5504 21.311 11.5504C23.7843 11.5504 25.8006 13.5529 25.8006 16.0525C25.8006 18.5521 23.7968 20.5421 21.311 20.5421Z" fill="white"></path><path d="M81.0905 0.430664V41.2137H63.113V26.0453H60.205V41.2137H42.2275V0.430664H60.205V16.2651H63.113V0.430664H81.0905Z" fill="white"></path><path d="M123.337 9.67266V23.7259C123.337 26.5703 122.57 28.6711 121.197 30.0614C119.826 31.4504 117.746 32.237 114.898 32.237H102.764V41.2148H84.5742V0.428955H114.896C117.745 0.428955 119.825 1.21554 121.196 2.60452C122.568 3.99488 123.335 6.09566 123.335 8.9387V9.67266H123.337Z" fill="white"></path><path fill-rule="evenodd" clip-rule="evenodd" d="M144.984 0.438965H126.82V32.9073C126.82 35.6103 127.531 37.6916 128.932 39.0929C130.334 40.4941 132.415 41.2049 135.118 41.2049H157.678C160.383 41.2049 162.463 40.4941 163.862 39.0929C165.264 37.6916 165.974 35.6103 165.974 32.9073V0.438965H147.858V31.5938L144.984 31.5967V0.438965ZM148.694 1.275V32.429L144.148 32.4336V1.275H127.656V32.9073C127.656 35.4712 128.329 37.3073 129.524 38.5017C130.718 39.696 132.554 40.3689 135.118 40.3689H157.678C160.244 40.3689 162.078 39.696 163.271 38.502L163.271 38.5017C164.466 37.3073 165.138 35.4712 165.138 32.9073V1.275H148.694Z" fill="white"></path><path fill-rule="evenodd" clip-rule="evenodd" d="M204.005 20.1896L208.318 16.4321V0.484375H190.333V14.9641L187.459 16.8173V0.484375H169.458V41.1597H187.459V25.9476H190.332L190.321 27.0595L190.332 41.1597L208.318 41.1526V26.1023L203.113 20.9717L204.005 20.1896ZM207.482 26.4521L201.886 20.9361L203.454 19.5611L203.455 19.5601L203.456 19.5592L207.482 16.0516V1.32041H191.169V15.4198L186.623 18.3511V1.32041H170.294V40.3237H186.623V25.1116H191.177L191.157 27.0635L191.168 40.3237L207.482 40.3169V26.4521Z" fill="white"></path></svg>
