<svg height="100%" width="100%" xmlns="http://www.w3.org/2000/svg" viewBox="0 0 40 40"><g fill="none" fill-rule="evenodd"><path d="M0 0h219.6v40H0z"></path><g mask="url(#b)"><path fill="currentColor" d="M40 4c0-2.208-1.792-4-4-4H4C1.792 0 0 1.792 0 4v32c0 2.208 1.792 4 4 4h32c2.208 0 4-1.792 4-4V4z"></path><path fill="#fff" d="M30.13 5.185c-2.226.076-4.169 1.305-5.615 3-1.601 1.861-2.666 4.067-3.434 6.32-1.373-1.126-2.43-2.582-4.634-3.216-1.703-.49-3.49-.288-5.135.937-.78.582-1.316 1.46-1.571 2.29-.661 2.147.694 4.06 1.31 4.746l1.347 1.442c.277.283.946 1.021.618 2.078-.352 1.151-1.738 1.894-3.16 1.458-.636-.195-1.549-.668-1.344-1.334.084-.273.279-.478.384-.711.096-.204.142-.355.171-.445.26-.848-.096-1.951-1.004-2.232-.848-.26-1.715-.054-2.052 1.037-.38 1.24.213 3.49 3.392 4.47 3.724 1.146 6.874-.883 7.32-3.526.282-1.656-.466-2.888-1.836-4.47l-1.117-1.235c-.675-.676-.908-1.827-.208-2.712.59-.747 1.431-1.065 2.81-.69 2.01.545 2.907 1.94 4.402 3.066-.616 2.026-1.02 4.06-1.386 5.882l-.224 1.36c-1.069 5.607-1.885 8.686-4.006 10.454-.427.304-1.038.76-1.958.792-.484.015-.64-.318-.647-.464-.01-.337.275-.493.464-.645.284-.155.713-.411.683-1.233-.03-.97-.834-1.812-1.997-1.773-.87.03-2.197.847-2.147 2.348.051 1.55 1.495 2.71 3.673 2.636 1.163-.039 3.762-.512 6.323-3.556 2.981-3.49 3.815-7.49 4.442-10.42l.7-3.866c.388.047.804.079 1.257.09 3.713.078 5.569-1.844 5.598-3.244.018-.846-.556-1.68-1.36-1.66-.574.016-1.296.4-1.469 1.194-.17.78 1.18 1.484.125 2.17-.75.484-2.095.826-3.988.549l.344-1.903c.702-3.61 1.57-8.048 4.858-8.156.24-.011 1.116.01 1.136.59.006.193-.042.244-.268.686-.232.346-.319.641-.307.979.031.92.732 1.527 1.746 1.491 1.356-.045 1.746-1.365 1.724-2.044-.056-1.595-1.737-2.603-3.96-2.53z"></path></g></g></svg>
