<?xml version="1.0" encoding="utf-8"?>
<!DOCTYPE svg PUBLIC "-//W3C//DTD SVG 1.1//EN" "http://www.w3.org/Graphics/SVG/1.1/DTD/svg11.dtd">
<svg version="1.1" id="Layer_1" xmlns="http://www.w3.org/2000/svg" xmlns:xlink="http://www.w3.org/1999/xlink" x="0px" y="0px"
     viewBox="0 0 462.4 105.9" style="enable-background:new 0 0 462.4 105.9;" xml:space="preserve">
<style type="text/css">
    .squid{fill:#149287;}
    .wordmark{fill:#f9efc1;}
    .axosoft{fill:#e75225;}
</style>
<path class="squid" d="M117.5,23.9c-0.5-1.3-2-1.9-3.2-1.4c-0.9,0.4-1.5,1.3-1.5,2.2c0,0.3,0,0.6,0.2,0.8c2.3,6.1,3.6,12.7,3.6,19.7
    c0,28.3-21.1,51.8-48.5,55.3l0-26.1c1.7-0.3,3.3-0.8,4.9-1.3l0,21.9C95.3,89.6,112,69.4,112,45.2C112,25.9,101.3,9,85.5,0.3
    c-1.2-0.7-2.7-0.2-3.3,1.1c-0.2,0.3-0.2,0.7-0.2,1.1c0,0.9,0.5,1.7,1.2,2.1c14.3,7.9,24,23.2,24,40.7c0,19.7-12.2,36.5-29.5,43.3
    l0-19.4c3-0.9,5.2-3.7,5.2-7.1c0-2.8-1.4-5.1-3.7-6.4c1.7-16.8,9.4-12.3,9.4-17.7v-3.1c0-8-18.5-34.1-27.2-34.7c-0.3,0-0.5,0-0.8,0
    c-0.3,0-0.5,0-0.8,0c-8.7,0.6-27.2,26.7-27.2,34.7v3.1c0,5.3,7.6,0.9,9.4,17.7c-2.2,1.3-3.6,3.7-3.6,6.4c0,3.3,2.2,6.1,5.2,7.1v19.4
    c-17.2-6.8-29.5-23.6-29.5-43.3c0-17.5,9.7-32.8,24-40.7c1.1-0.6,1.6-2,1-3.2C38.8,0.5,37.9,0,37,0c-0.4,0-0.8,0.1-1.2,0.3
    C20,9,9.3,25.9,9.3,45.2c0,24.2,16.7,44.4,39.2,49.9l0-21.9c1.6,0.5,3.2,1,4.9,1.3v26.1C26,97,4.9,73.6,4.9,45.2
    c0-6.9,1.3-13.5,3.6-19.7c0.5-1.2-0.1-2.6-1.3-3.1c-0.3-0.1-0.6-0.2-0.9-0.2c-1,0-1.9,0.6-2.3,1.6C1.4,30.5,0,37.7,0,45.2
    c0,32.7,25.8,59.3,58.2,60.6V75.1c0.9,0.1,2.5,0.1,2.5,0.1s1.6,0,2.5-0.1l0,30.7c32.4-1.3,58.2-27.9,58.2-60.6
    C121.3,37.7,120,30.5,117.5,23.9z M71.9,58.5c0.9-0.9,2.1-1.5,3.5-1.5c1.4,0,2.6,0.6,3.5,1.5c0.9,0.9,1.5,2.1,1.5,3.5
    c0,1.4-0.6,2.6-1.5,3.5C78,66.4,76.8,67,75.4,67c-1.4,0-2.6-0.6-3.5-1.5c-0.9-0.9-1.5-2.1-1.5-3.5C70.4,60.6,71,59.4,71.9,58.5z
     M49.5,65.5c-0.9,0.9-2.1,1.5-3.5,1.5c-1.4,0-2.6-0.6-3.5-1.5C41.5,64.6,41,63.4,41,62c0-1.4,0.6-2.6,1.5-3.5
    c0.9-0.9,2.1-1.5,3.5-1.5c1.4,0,2.6,0.6,3.5,1.5c0.9,0.9,1.5,2.1,1.5,3.5C50.9,63.4,50.4,64.6,49.5,65.5z"/>
<g>
    <path class="wordmark" d="M176.9,51.9c-1-1.5-2.2-2.9-3.6-4c-2.5-2-5.6-3.2-9.4-3.2c-7.9,0-15.9,6-15.9,16.6c0,11.1,8.1,16.9,15.9,16.9
        c3.9,0,7.2-1.1,9.7-3c2.6-1.9,4.3-4.5,5-7.4h-18.3v-7.9H190c0.1,3.2-0.3,8.2-2.2,12.3c-4.6,10.2-15.1,14.7-23.9,14.7
        c-14.6,0-25.8-11.3-25.8-25.5c0-14.6,11.6-25.3,25.9-25.3c11.1,0,20.8,7,24,15.9H176.9z"/>
    <path class="wordmark" d="M197,36.9h8.7v7.7H197V36.9z M197,49.5h8.7v36.3H197V49.5z"/>
    <path class="wordmark" d="M217.2,56.2h-6v-6.7h6V36.9h8.7v12.6h6.2v6.7h-6.2v29.6h-8.7V56.2z"/>
    <path class="wordmark" d="M239.3,36.9h9.9v22.7l16.2-22.7h10.4L258,61.3l19.5,24.6h-12l-16.3-22v22h-9.9V36.9z"/>
    <path class="wordmark" d="M282.2,49.5h8.2v4.8c1.6-3.2,4.6-5.8,10.1-5.9v8.7h-0.4c-6.1,0-9.2,2.8-9.2,9.1v19.6h-8.7V49.5z"/>
    <path class="wordmark" d="M341.7,85.8H333v-5.2c-2.3,4.2-7.1,6.4-12.2,6.4c-11.6,0-18.5-9.1-18.5-19.3c0-11.4,8.3-19.3,18.5-19.3
        c6.6,0,10.7,3.5,12.2,6.4v-5.3h8.7V85.8z M311,67.8c0,4.5,3.2,11.1,11.1,11.1c4.8,0,8-2.5,9.7-5.8c0.9-1.6,1.3-3.3,1.4-5.1
        c0.1-1.7-0.3-3.5-1-5.1c-1.5-3.4-4.9-6.4-10.1-6.4C315,56.5,311,62.1,311,67.8L311,67.8z"/>
    <path class="wordmark" d="M351.2,36.9h8.7v26.5l12.5-13.8h10.4l-15.1,16l15.2,20.3h-9.9l-13-18.1v18.1h-8.7V36.9z"/>
    <path class="wordmark" d="M397.7,77.2c4.5,3.7,10.4,2.2,13.8-1.5c2.9-3.1,3.5-6.5,2.4-9.7l6.1-6.5c1.8,4,2.2,8,1.6,11.6
        c-0.6,3.7-2.2,7-4.8,9.7c-7.7,8.1-19.8,7.7-27.1,0.8c-7.5-7.1-8.5-19.2-1-27.2c3.7-3.9,8.5-6,13.4-6c6.4-0.1,11.6,2.6,15.8,7.5
        L397.7,77.2z M407.2,57.6c-2.7-2.1-8.7-2.8-13.1,1.9c-4.4,4.7-3.5,10.4-1.1,13.1L407.2,57.6z"/>
    <path class="wordmark" d="M428.9,49.5h8.1c0,1.6,0,3.1-0.1,4.8c1.6-2.8,4.8-6,11.3-6c11.8,0.1,14.1,9.1,14.1,15.6v21.9h-8.7V66.1
        c0-5.4-1.8-9.6-7.9-9.6c-6.2,0.1-8.3,4.2-8.3,9.3v20.1h-8.7V49.5z"/>
</g>
<path class="axosoft" d="M200.3,21.7c0.1,0.4,0.2,0.8,0.4,1.1c0.2,0.3,0.5,0.6,0.8,0.8c0.3,0.2,0.7,0.3,1.2,0.3c0.5,0,0.9-0.1,1.2-0.3
    c0.3-0.2,0.6-0.4,0.8-0.8c0.2-0.3,0.3-0.7,0.4-1.1c0.1-0.4,0.1-0.8,0.1-1.2c0-0.4,0-0.8-0.1-1.2c-0.1-0.4-0.2-0.8-0.4-1.1
    c-0.2-0.3-0.5-0.6-0.8-0.8c-0.3-0.2-0.7-0.3-1.2-0.3c-0.5,0-0.9,0.1-1.2,0.3c-0.3,0.2-0.6,0.5-0.8,0.8c-0.2,0.3-0.3,0.7-0.4,1.1
    c-0.1,0.4-0.1,0.8-0.1,1.2C200.2,20.9,200.2,21.3,200.3,21.7z"/>
<path class="axosoft" d="M177.7,21.9c0.1,0.4,0.2,0.8,0.4,1.1c0.2,0.3,0.5,0.6,0.8,0.8c0.3,0.2,0.7,0.3,1.2,0.3c0.5,0,0.9-0.1,1.2-0.3
    c0.3-0.2,0.6-0.4,0.8-0.8c0.2-0.3,0.3-0.7,0.4-1.1c0.1-0.4,0.1-0.8,0.1-1.2c0-0.4,0-0.8-0.1-1.2s-0.2-0.8-0.4-1.1
    c-0.2-0.3-0.5-0.6-0.8-0.8c-0.3-0.2-0.7-0.3-1.2-0.3c-0.5,0-0.9,0.1-1.2,0.3c-0.3,0.2-0.6,0.4-0.8,0.8c-0.2,0.3-0.3,0.7-0.4,1.1
    s-0.1,0.8-0.1,1.2C177.6,21.1,177.6,21.5,177.7,21.9z"/>
<path class="axosoft" d="M159.6,20.8c-0.2,0.1-0.4,0.1-0.6,0.2c-0.2,0-0.4,0.1-0.7,0.1c-0.2,0-0.5,0.1-0.7,0.1c-0.2,0-0.4,0.1-0.6,0.2
    c-0.2,0.1-0.4,0.2-0.6,0.3c-0.2,0.1-0.3,0.3-0.4,0.4c-0.1,0.2-0.1,0.4-0.1,0.7c0,0.3,0,0.5,0.1,0.7c0.1,0.2,0.2,0.3,0.4,0.4
    c0.2,0.1,0.4,0.2,0.6,0.2c0.2,0,0.4,0.1,0.7,0.1c0.6,0,1-0.1,1.3-0.3c0.3-0.2,0.5-0.4,0.7-0.7c0.1-0.3,0.2-0.5,0.3-0.8
    c0-0.3,0.1-0.5,0.1-0.7v-1.1C159.9,20.7,159.7,20.8,159.6,20.8z"/>
<g>
    <path class="axosoft" d="M149.2,8.8L143,28.7h82.9l6.2-19.8H149.2z M160.3,25.8c-0.1-0.2-0.1-0.3-0.1-0.5c0-0.2-0.1-0.3-0.1-0.5
        c-0.5,0.5-1,0.8-1.6,1c-0.6,0.2-1.3,0.3-1.9,0.3c-0.5,0-1-0.1-1.4-0.2c-0.4-0.1-0.8-0.3-1.1-0.6c-0.3-0.3-0.6-0.6-0.8-1
        c-0.2-0.4-0.3-0.9-0.3-1.4c0-0.6,0.1-1.1,0.3-1.5c0.2-0.4,0.5-0.7,0.8-0.9c0.3-0.2,0.7-0.4,1.1-0.5c0.4-0.1,0.9-0.2,1.3-0.3
        c0.4-0.1,0.9-0.1,1.3-0.2c0.4,0,0.8-0.1,1.1-0.2c0.3-0.1,0.6-0.2,0.8-0.4c0.2-0.2,0.3-0.4,0.3-0.7c0-0.3-0.1-0.6-0.2-0.7
        c-0.1-0.2-0.2-0.3-0.4-0.4c-0.2-0.1-0.4-0.2-0.6-0.2c-0.2,0-0.5-0.1-0.7-0.1c-0.6,0-1,0.1-1.3,0.4c-0.3,0.2-0.5,0.7-0.6,1.2h-2.9
        c0-0.7,0.2-1.2,0.5-1.7c0.3-0.5,0.7-0.8,1.1-1.1c0.5-0.3,1-0.5,1.6-0.6c0.6-0.1,1.2-0.2,1.7-0.2c0.5,0,1.1,0,1.6,0.1
        c0.5,0.1,1,0.2,1.5,0.4c0.4,0.2,0.8,0.5,1.1,0.9c0.3,0.4,0.4,0.9,0.4,1.5v5.5c0,0.5,0,0.9,0.1,1.4c0.1,0.4,0.1,0.8,0.3,1H160.3z
         M171.8,25.8l-2.2-3.4c-0.7,1.1-1.5,2.2-2.2,3.4l0,0.1h-3.3c1.1-2,2.3-3.9,3.8-5.6l-3.5-4.9h3.3l2,2.9c2.2-2.2,4.6-4,7.4-5.5
        c-2.1,2.4-4.1,4.8-6,7.4l4,5.7H171.8z M185.1,22.9c-0.3,0.7-0.6,1.2-1.1,1.7c-0.5,0.5-1,0.8-1.7,1.1s-1.4,0.4-2.2,0.4
        c-0.8,0-1.6-0.1-2.2-0.4c-0.7-0.3-1.2-0.6-1.7-1.1c-0.5-0.5-0.8-1.1-1.1-1.7c-0.3-0.7-0.4-1.4-0.4-2.3c0-0.8,0.1-1.6,0.4-2.3
        c0.3-0.7,0.6-1.3,1.1-1.7c0.5-0.5,1-0.8,1.7-1.1c0.7-0.3,1.4-0.4,2.2-0.4c0.8,0,1.6,0.1,2.2,0.4s1.2,0.6,1.7,1.1
        c0.5,0.5,0.8,1.1,1.1,1.7c0.3,0.7,0.4,1.4,0.4,2.3C185.5,21.5,185.4,22.2,185.1,22.9z M196,24.1c-0.3,0.5-0.6,0.8-1.1,1.1
        c-0.4,0.3-1,0.5-1.5,0.6c-0.6,0.1-1.2,0.2-1.8,0.2c-0.6,0-1.2-0.1-1.8-0.2c-0.6-0.1-1.1-0.3-1.6-0.6c-0.5-0.3-0.8-0.7-1.1-1.1
        c-0.3-0.5-0.5-1.1-0.5-1.8h2.8c0,0.3,0.1,0.6,0.2,0.8c0.1,0.2,0.3,0.4,0.5,0.6c0.2,0.1,0.4,0.2,0.7,0.3c0.3,0.1,0.5,0.1,0.8,0.1
        c0.2,0,0.4,0,0.6-0.1c0.2,0,0.4-0.1,0.6-0.2c0.2-0.1,0.3-0.2,0.5-0.4c0.1-0.2,0.2-0.4,0.2-0.6c0-0.4-0.3-0.8-0.9-1
        c-0.6-0.2-1.4-0.4-2.4-0.7c-0.4-0.1-0.8-0.2-1.2-0.3c-0.4-0.1-0.8-0.3-1.1-0.5c-0.3-0.2-0.6-0.5-0.8-0.8c-0.2-0.3-0.3-0.7-0.3-1.2
        c0-0.7,0.1-1.2,0.4-1.7c0.3-0.4,0.6-0.8,1.1-1c0.4-0.3,0.9-0.4,1.5-0.5c0.5-0.1,1.1-0.2,1.7-0.2c0.6,0,1.1,0.1,1.7,0.2
        c0.5,0.1,1,0.3,1.4,0.6c0.4,0.3,0.8,0.6,1.1,1c0.3,0.4,0.4,1,0.5,1.6h-2.8c0-0.6-0.3-0.9-0.6-1.1c-0.4-0.2-0.8-0.3-1.3-0.3
        c-0.2,0-0.3,0-0.5,0c-0.2,0-0.4,0.1-0.5,0.1c-0.2,0.1-0.3,0.2-0.4,0.3c-0.1,0.1-0.2,0.3-0.2,0.5c0,0.3,0.1,0.5,0.3,0.6
        c0.2,0.2,0.4,0.3,0.7,0.4c0.3,0.1,0.7,0.2,1.1,0.3c0.4,0.1,0.8,0.2,1.2,0.3c0.4,0.1,0.8,0.2,1.2,0.3c0.4,0.1,0.8,0.3,1.1,0.5
        c0.3,0.2,0.6,0.5,0.8,0.8c0.2,0.3,0.3,0.7,0.3,1.2C196.4,23.1,196.2,23.6,196,24.1z M207.8,22.8c-0.3,0.7-0.6,1.3-1.1,1.7
        c-0.5,0.5-1.1,0.9-1.7,1.1c-0.7,0.3-1.4,0.4-2.3,0.4c-0.8,0-1.6-0.1-2.2-0.4c-0.7-0.3-1.2-0.6-1.7-1.1c-0.5-0.5-0.8-1.1-1.1-1.7
        c-0.3-0.7-0.4-1.4-0.4-2.3c0-0.8,0.1-1.6,0.4-2.3c0.3-0.7,0.6-1.3,1.1-1.8c0.5-0.5,1-0.9,1.7-1.1c0.7-0.3,1.4-0.4,2.2-0.4
        c0.8,0,1.6,0.1,2.3,0.4c0.7,0.3,1.3,0.6,1.7,1.1c0.5,0.5,0.8,1.1,1.1,1.8c0.3,0.7,0.4,1.5,0.4,2.3
        C208.2,21.3,208.1,22.1,207.8,22.8z M221.7,17.1h-2.1v5.2c0,0.5,0.1,0.8,0.2,1c0.2,0.2,0.5,0.2,1,0.2c0.2,0,0.3,0,0.5,0
        c0.2,0,0.3,0,0.4-0.1v2.2c-0.2,0-0.5,0.1-0.8,0.1c-0.3,0-0.6,0-0.9,0c-0.4,0-0.9,0-1.3-0.1c-0.4-0.1-0.8-0.2-1.1-0.4
        c-0.3-0.2-0.5-0.4-0.7-0.8c-0.2-0.3-0.3-0.8-0.3-1.3v-6.2h-3.5v8.6h-2.9v-8.6h-1.7v-1.9h1.7v-0.8c0-0.9,0.3-1.7,0.9-2.3
        c0.6-0.6,1.5-0.9,2.7-0.9c0.3,0,0.5,0,0.8,0c0.3,0,0.5,0,0.8,0.1v2.2c-0.3,0-0.7-0.1-1.1-0.1c-0.4,0-0.7,0.1-0.8,0.3
        c-0.2,0.2-0.3,0.5-0.3,0.9v0.6h3.5V12h2.9v3.2h2.1V17.1z"/>
</g>
</svg>
